<svg xmlns="http://www.w3.org/2000/svg" xmlns:xlink="http://www.w3.org/1999/xlink" width="113" zoomAndPan="magnify" viewBox="0 0 84.75 101.999999" height="136" preserveAspectRatio="xMidYMid meet" version="1.0"><defs><g/><clipPath id="92d2960c82"><path d="M 0 0.148438 L 84.5 0.148438 L 84.5 101.847656 L 0 101.847656 Z M 0 0.148438 " clip-rule="nonzero"/></clipPath><clipPath id="12c1ad8756"><path d="M 32 59 L 53 59 L 53 74.179688 L 32 74.179688 Z M 32 59 " clip-rule="nonzero"/></clipPath><clipPath id="faea0bd7a7"><path d="M 8.753906 23 L 20 23 L 20 30 L 8.753906 30 Z M 8.753906 23 " clip-rule="nonzero"/></clipPath><clipPath id="5804a644a4"><path d="M 41 0.148438 L 47 0.148438 L 47 11 L 41 11 Z M 41 0.148438 " clip-rule="nonzero"/></clipPath></defs><g clip-path="url(#92d2960c82)"><path fill="#ffffff" d="M 0 0.148438 L 84.5 0.148438 L 84.5 101.851562 L 0 101.851562 Z M 0 0.148438 " fill-opacity="1" fill-rule="nonzero"/></g><g fill="#000000" fill-opacity="1"><g transform="translate(9.271858, 95.195039)"><g><path d="M 0.34375 -3.3125 C 0.34375 -1.3125 1.796875 0.125 3.8125 0.125 C 5.828125 0.125 7.28125 -1.3125 7.28125 -3.3125 C 7.28125 -5.328125 5.828125 -6.765625 3.8125 -6.765625 C 1.796875 -6.765625 0.34375 -5.328125 0.34375 -3.3125 Z M 5.828125 -3.3125 C 5.828125 -2.078125 5.03125 -1.140625 3.8125 -1.140625 C 2.578125 -1.140625 1.796875 -2.078125 1.796875 -3.3125 C 1.796875 -4.5625 2.578125 -5.5 3.8125 -5.5 C 5.03125 -5.5 5.828125 -4.5625 5.828125 -3.3125 Z M 5.828125 -3.3125 "/></g></g></g><g fill="#000000" fill-opacity="1"><g transform="translate(17.823617, 95.195039)"><g><path d="M 0.65625 -2.65625 C 0.65625 -1.015625 1.609375 0.125 3.640625 0.125 C 5.65625 0.125 6.59375 -1 6.59375 -2.65625 L 6.59375 -6.65625 L 5.15625 -6.65625 L 5.15625 -2.703125 C 5.15625 -1.78125 4.65625 -1.140625 3.640625 -1.140625 C 2.609375 -1.140625 2.09375 -1.78125 2.09375 -2.703125 L 2.09375 -6.65625 L 0.65625 -6.65625 Z M 0.65625 -2.65625 "/></g></g></g><g fill="#000000" fill-opacity="1"><g transform="translate(26.006602, 95.195039)"><g><path d="M 6.046875 0 L 4.546875 -2.53125 C 5.265625 -2.703125 6 -3.328125 6 -4.5 C 6 -5.734375 5.15625 -6.65625 3.765625 -6.65625 L 0.65625 -6.65625 L 0.65625 0 L 2.078125 0 L 2.078125 -2.375 L 3.109375 -2.375 L 4.421875 0 Z M 4.5625 -4.515625 C 4.5625 -3.953125 4.125 -3.59375 3.5625 -3.59375 L 2.078125 -3.59375 L 2.078125 -5.4375 L 3.5625 -5.4375 C 4.125 -5.4375 4.5625 -5.078125 4.5625 -4.515625 Z M 4.5625 -4.515625 "/></g></g></g><g fill="#000000" fill-opacity="1"><g transform="translate(33.342419, 95.195039)"><g/></g></g><g fill="#000000" fill-opacity="1"><g transform="translate(36.821146, 95.195039)"><g><path d="M 4.296875 0 L 6.859375 -6.65625 L 5.25 -6.65625 L 3.40625 -1.53125 L 1.5625 -6.65625 L -0.046875 -6.65625 L 2.515625 0 Z M 4.296875 0 "/></g></g></g><g fill="#000000" fill-opacity="1"><g transform="translate(44.565606, 95.195039)"><g><path d="M 2.078125 0 L 2.078125 -6.65625 L 0.65625 -6.65625 L 0.65625 0 Z M 2.078125 0 "/></g></g></g><g fill="#000000" fill-opacity="1"><g transform="translate(48.223728, 95.195039)"><g><path d="M 0.203125 -0.9375 C 0.828125 -0.3125 1.75 0.125 3.015625 0.125 C 4.8125 0.125 5.6875 -0.796875 5.6875 -2.015625 C 5.6875 -3.484375 4.28125 -3.8125 3.1875 -4.0625 C 2.421875 -4.25 1.859375 -4.390625 1.859375 -4.828125 C 1.859375 -5.234375 2.203125 -5.515625 2.84375 -5.515625 C 3.484375 -5.515625 4.203125 -5.28125 4.75 -4.78125 L 5.53125 -5.828125 C 4.875 -6.4375 4 -6.75 2.9375 -6.75 C 1.375 -6.75 0.421875 -5.859375 0.421875 -4.75 C 0.421875 -3.265625 1.8125 -2.953125 2.90625 -2.71875 C 3.671875 -2.53125 4.25 -2.359375 4.25 -1.859375 C 4.25 -1.484375 3.875 -1.109375 3.09375 -1.109375 C 2.171875 -1.109375 1.453125 -1.53125 0.984375 -2.015625 Z M 0.203125 -0.9375 "/></g></g></g><g fill="#000000" fill-opacity="1"><g transform="translate(55.130981, 95.195039)"><g><path d="M 2.078125 0 L 2.078125 -6.65625 L 0.65625 -6.65625 L 0.65625 0 Z M 2.078125 0 "/></g></g></g><g fill="#000000" fill-opacity="1"><g transform="translate(58.7891, 95.195039)"><g><path d="M 0.34375 -3.3125 C 0.34375 -1.3125 1.796875 0.125 3.8125 0.125 C 5.828125 0.125 7.28125 -1.3125 7.28125 -3.3125 C 7.28125 -5.328125 5.828125 -6.765625 3.8125 -6.765625 C 1.796875 -6.765625 0.34375 -5.328125 0.34375 -3.3125 Z M 5.828125 -3.3125 C 5.828125 -2.078125 5.03125 -1.140625 3.8125 -1.140625 C 2.578125 -1.140625 1.796875 -2.078125 1.796875 -3.3125 C 1.796875 -4.5625 2.578125 -5.5 3.8125 -5.5 C 5.03125 -5.5 5.828125 -4.5625 5.828125 -3.3125 Z M 5.828125 -3.3125 "/></g></g></g><g fill="#000000" fill-opacity="1"><g transform="translate(67.34086, 95.195039)"><g><path d="M 6.609375 0 L 6.609375 -6.65625 L 5.1875 -6.65625 L 5.1875 -2.34375 L 2.109375 -6.65625 L 0.65625 -6.65625 L 0.65625 0 L 2.078125 0 L 2.078125 -4.46875 L 5.25 0 Z M 6.609375 0 "/></g></g></g><g clip-path="url(#12c1ad8756)"><path fill="#d4c2ef" d="M 52.554688 60.960938 C 52.421875 60.457031 52.242188 59.691406 51.667969 59.527344 C 51.414062 59.5 51.148438 59.5 50.898438 59.527344 C 50.441406 59.585938 49.996094 59.75 49.507812 59.675781 C 49.167969 59.585938 48.917969 59.984375 48.5625 59.898438 C 48.195312 59.839844 47.824219 59.972656 47.441406 59.882812 C 47.277344 59.851562 47.085938 59.984375 46.921875 59.957031 C 46.71875 59.882812 46.539062 59.957031 46.347656 60.058594 C 46.273438 60.089844 46.183594 60.148438 46.109375 60.132812 C 45.832031 60.058594 45.609375 60.179688 45.355469 60.25 C 45.238281 60.28125 45.121094 60.3125 45.003906 60.265625 C 44.75 60.191406 44.484375 60.25 44.234375 60.28125 C 43.777344 60.386719 43.289062 60.28125 42.84375 60.472656 C 42.726562 60.503906 42.625 60.605469 42.519531 60.589844 C 41.824219 60.546875 41.175781 60.726562 40.496094 60.8125 C 39.710938 60.8125 38.898438 60.753906 38.144531 60.519531 C 37.910156 60.398438 37.660156 60.339844 37.40625 60.3125 C 36.667969 60.296875 36.195312 59.542969 35.425781 59.703125 C 35.21875 59.765625 34.984375 59.808594 34.761719 59.75 C 34.453125 59.703125 33.625 59.601562 33.445312 59.851562 C 33.3125 60.132812 33.09375 60.386719 33.046875 60.710938 C 33.003906 61.019531 33.035156 61.316406 33.359375 61.492188 C 33.417969 61.523438 33.460938 61.566406 33.476562 61.625 C 33.519531 61.804688 33.652344 61.890625 33.785156 61.980469 C 33.933594 62.039062 33.992188 62.230469 33.800781 62.277344 C 33.433594 62.394531 33.285156 62.734375 33.09375 63.03125 C 32.324219 63.929688 33.121094 64.921875 33.847656 65.558594 C 33.757812 65.925781 33.890625 66.265625 34.097656 66.578125 C 34.171875 66.695312 34.171875 66.8125 34.171875 66.945312 C 34.171875 67.328125 34.054688 67.757812 34.496094 68.007812 C 34.867188 68.867188 38.339844 69.117188 39.328125 69.207031 C 40.246094 69.164062 38.398438 70.789062 39.078125 72.175781 C 39.179688 72.871094 39.625 72.753906 39.933594 73.226562 C 39.933594 73.253906 39.992188 73.285156 40.023438 73.285156 C 40.480469 73.328125 40.570312 73.890625 41 73.980469 C 42.285156 74.203125 44.21875 73.980469 44.914062 72.722656 C 45.046875 72.488281 44.914062 72.207031 44.8125 71.984375 C 44.515625 71.542969 45.089844 71.511719 45.121094 71.097656 C 45.121094 71.007812 45.152344 70.9375 45.210938 70.875 C 45.476562 70.625 45.179688 69.78125 44.929688 69.589844 C 44.898438 69.5625 44.882812 69.515625 44.929688 69.457031 C 44.957031 69.457031 44.988281 69.429688 45.015625 69.429688 C 45.550781 69.5625 46.097656 69.429688 46.628906 69.53125 C 47.191406 69.429688 47.75 69.398438 48.328125 69.324219 C 49.035156 69.207031 49.777344 69.175781 50.441406 68.824219 C 51.253906 68.453125 51.695312 67.417969 51.269531 66.605469 C 51.210938 66.503906 51.164062 66.382812 51.210938 66.265625 C 51.476562 65.558594 51.609375 65.335938 51.210938 64.640625 C 51.121094 64.433594 51.003906 64.269531 50.75 64.257812 C 50.664062 64.257812 50.601562 64.199219 50.574219 64.109375 C 51.210938 63.546875 52.214844 63.84375 51.710938 62.691406 C 51.636719 62.511719 51.476562 62.378906 51.519531 62.171875 C 51.757812 61.980469 51.992188 61.789062 52.300781 61.746094 C 52.582031 61.640625 52.570312 61.210938 52.554688 60.960938 Z M 52.554688 60.960938 " fill-opacity="1" fill-rule="nonzero"/></g><path fill="#ffffff" d="M 59.632812 33.550781 C 59.660156 33.492188 59.648438 33.402344 59.617188 33.34375 C 59.453125 33.0625 59.617188 32.78125 59.558594 32.484375 C 59.574219 32.101562 59.335938 31.730469 59.5 31.347656 C 59.515625 31.304688 59.5 31.230469 59.46875 31.171875 C 59.351562 30.933594 59.367188 30.636719 59.175781 30.433594 C 59.113281 30.359375 59.144531 30.269531 59.144531 30.195312 C 59.070312 29.574219 58.96875 28.953125 58.628906 28.421875 C 58.433594 28.140625 58.539062 27.800781 58.332031 27.535156 C 58.109375 27.152344 57.976562 26.738281 57.742188 26.351562 C 57.519531 26.027344 57.296875 25.6875 57.164062 25.320312 C 57.074219 25.082031 57 24.816406 56.839844 24.625 C 56.484375 24.136719 56.054688 23.722656 55.65625 23.265625 C 55.347656 22.71875 54.800781 22.4375 54.386719 21.992188 C 54.195312 21.773438 54.015625 21.535156 53.707031 21.460938 C 53.574219 21.417969 53.457031 21.3125 53.441406 21.167969 C 53.410156 20.945312 53.261719 20.871094 53.070312 20.886719 C 52.921875 20.886719 52.777344 20.855469 52.6875 20.753906 C 52.183594 20.367188 51.5625 20.042969 51.003906 19.820312 C 49.539062 19.214844 48.089844 18.609375 46.523438 18.359375 C 45.726562 18.210938 44.914062 18.285156 44.132812 18.09375 C 43.984375 18.046875 43.792969 18.019531 43.644531 18.09375 C 43.347656 18.269531 43.082031 18.09375 42.785156 18.109375 C 42.359375 18.210938 41.914062 18.179688 41.472656 18.179688 C 40.984375 18.285156 40.496094 18.460938 39.992188 18.507812 C 39.652344 18.460938 39.328125 18.535156 39.03125 18.714844 C 38.796875 18.847656 38.558594 18.90625 38.292969 18.800781 C 37.925781 18.714844 37.660156 18.300781 37.257812 18.386719 C 36.578125 18.523438 35.886719 18.535156 35.21875 18.757812 C 34.585938 18.800781 34.171875 19.40625 33.507812 19.40625 C 32.988281 19.644531 32.5 19.953125 31.96875 20.191406 C 30.933594 20.605469 30.152344 21.433594 29.25 22.054688 C 28.820312 22.527344 28.304688 22.894531 27.863281 23.339844 C 27.582031 23.765625 27.226562 24.105469 26.902344 24.492188 C 26.574219 24.980469 26.414062 25.570312 26 26 C 25.957031 26.042969 25.941406 26.132812 25.910156 26.191406 C 25.601562 26.871094 25.453125 27.609375 25.15625 28.273438 C 25.054688 28.511719 24.9375 28.761719 24.921875 29.011719 C 24.921875 29.414062 24.683594 29.722656 24.640625 30.09375 C 24.640625 30.59375 24.328125 31.039062 24.433594 31.554688 C 24.210938 32.101562 24.390625 32.664062 24.300781 33.226562 C 24.210938 33.667969 24.242188 34.125 24.328125 34.554688 C 24.492188 35.472656 24.566406 36.402344 24.800781 37.316406 C 24.875 37.671875 24.832031 38.058594 25.023438 38.382812 C 25.246094 38.765625 25.347656 39.179688 25.421875 39.625 C 25.46875 39.902344 25.511719 40.183594 25.703125 40.40625 C 25.792969 40.507812 25.820312 40.65625 25.835938 40.804688 C 26 41.601562 26.414062 42.3125 26.621094 43.109375 C 26.648438 43.242188 26.695312 43.363281 26.769531 43.464844 C 27.003906 43.714844 27.046875 44.070312 27.242188 44.320312 C 27.460938 44.574219 27.582031 44.867188 27.714844 45.179688 C 27.964844 45.859375 28.394531 46.464844 28.628906 47.144531 C 28.746094 47.601562 28.953125 48.015625 29.234375 48.402344 C 29.308594 48.667969 29.472656 48.875 29.753906 48.976562 C 29.707031 49.214844 29.8125 49.390625 29.960938 49.523438 C 30.3125 49.863281 30.507812 50.335938 30.890625 50.660156 C 31.054688 50.824219 31.304688 50.957031 31.261719 51.253906 C 31.261719 51.28125 31.273438 51.328125 31.304688 51.339844 C 31.644531 51.679688 31.71875 52.199219 32.101562 52.523438 C 32.148438 52.566406 32.132812 52.625 32.148438 52.6875 C 32.207031 53.085938 32.488281 53.394531 32.558594 53.78125 C 32.839844 54 32.871094 54.371094 33.046875 54.652344 C 33.226562 54.933594 33.300781 55.273438 33.402344 55.597656 C 33.507812 55.894531 33.550781 56.1875 33.507812 56.484375 C 33.417969 57.074219 33.433594 58.714844 34.40625 58.167969 C 34.671875 58.09375 34.941406 57.753906 35.207031 57.976562 C 35.871094 58.449219 36.699219 58.597656 37.480469 58.773438 C 38.101562 58.9375 38.707031 58.890625 39.34375 58.773438 C 39.328125 58.640625 39.253906 58.566406 39.195312 58.507812 C 38.632812 57.871094 38.945312 57.015625 38.988281 56.277344 C 39.121094 55.210938 39.164062 54.148438 39.164062 53.070312 C 39.164062 52.214844 39.046875 51.398438 39.019531 50.558594 C 38.957031 50.085938 38.765625 49.65625 38.871094 49.167969 C 38.898438 48.992188 38.839844 48.828125 38.648438 48.769531 C 36.238281 48.164062 35.945312 47.78125 34.878906 45.546875 C 34.792969 45.34375 34.761719 45.121094 34.628906 44.929688 C 33.875 43.96875 33.417969 42.816406 33.210938 41.617188 C 33.121094 40.953125 33.167969 40.289062 33.105469 39.625 C 33.019531 39.210938 33.242188 38.824219 33.242188 38.410156 C 33.652344 37.65625 34.644531 37.316406 35.472656 37.4375 C 35.796875 37.496094 36.152344 37.464844 36.386719 37.789062 C 36.460938 37.894531 36.59375 37.9375 36.699219 38.011719 C 37.230469 38.351562 37.554688 38.914062 37.851562 39.460938 C 38.085938 39.992188 38.425781 40.507812 38.605469 41.054688 C 38.605469 41.425781 38.929688 41.632812 39.03125 41.957031 C 39.078125 42.089844 39.195312 42.210938 39.195312 42.371094 C 39.195312 42.476562 39.238281 42.578125 39.285156 42.683594 C 39.359375 42.917969 39.566406 43.109375 39.59375 43.347656 C 39.640625 44.175781 39.980469 44.929688 40.082031 45.742188 C 40.140625 46.109375 40.246094 46.496094 40.113281 46.894531 C 40.050781 47.054688 40.082031 47.246094 40.199219 47.394531 C 40.820312 47.367188 41.410156 47.1875 42.003906 47.070312 C 42.003906 46.90625 41.945312 46.835938 41.898438 46.730469 C 41.679688 46.082031 42.371094 45.414062 42.933594 46.035156 C 43.496094 46.820312 44.292969 47.394531 45.152344 47.808594 C 45.417969 47.484375 45.3125 47.160156 45.371094 46.804688 C 45.476562 46.539062 45.476562 46.273438 45.492188 46.007812 C 45.519531 45.207031 45.726562 44.457031 45.875 43.6875 C 45.933594 43.363281 46.125 43.082031 46.230469 42.769531 C 46.289062 42.59375 46.230469 42.414062 46.332031 42.269531 C 46.464844 42.074219 46.539062 41.855469 46.582031 41.617188 C 46.65625 41.335938 46.921875 41.160156 46.953125 40.863281 C 47.738281 39.460938 48.917969 37.449219 50.394531 36.726562 C 50.558594 36.652344 50.734375 36.535156 50.898438 36.769531 C 51.253906 36.832031 51.652344 36.890625 51.992188 37.007812 C 52.65625 37.214844 52.570312 38.128906 52.65625 38.707031 C 52.730469 39.078125 52.582031 39.355469 52.523438 39.695312 C 52.421875 40.570312 51.933594 41.335938 51.710938 42.164062 C 51.414062 43.40625 50.648438 44.457031 49.789062 45.355469 C 49.316406 45.753906 48.875 46.449219 48.195312 46.40625 C 47.914062 46.375 47.855469 46.109375 47.78125 45.886719 C 47.707031 45.683594 47.589844 45.445312 47.796875 45.269531 C 48.238281 44.855469 48.535156 44.308594 48.992188 43.910156 C 49.167969 43.746094 49.214844 43.496094 49.390625 43.332031 C 49.6875 43.066406 49.921875 42.726562 50.070312 42.371094 C 50.261719 41.914062 50.691406 41.542969 50.648438 40.984375 C 50.988281 40.214844 51.269531 39.488281 51.328125 38.617188 C 50.839844 38.78125 50.707031 39.285156 50.292969 39.445312 C 49.996094 39.238281 50.011719 38.871094 49.835938 38.574219 C 48.875 39.976562 48.164062 41.46875 47.722656 43.09375 C 47.648438 43.496094 47.605469 43.894531 47.542969 44.277344 C 47.515625 44.515625 47.367188 44.722656 47.382812 44.957031 C 47.425781 45.429688 47.25 45.859375 47.144531 46.300781 C 47.085938 47.160156 46.878906 48.015625 46.996094 48.902344 C 46.910156 49.671875 46.96875 50.453125 46.96875 51.222656 C 46.96875 53.367188 46.671875 55.464844 46.96875 57.605469 C 47.351562 57.457031 47.839844 57.664062 48.121094 57.207031 C 48.355469 57.253906 48.5625 57.089844 48.800781 57.148438 C 48.964844 57.191406 49.109375 57.148438 49.230469 57.046875 C 49.4375 56.867188 49.6875 56.898438 49.921875 56.824219 C 50.160156 56.765625 50.324219 56.5 50.632812 56.5 C 50.558594 56.882812 50.707031 57.3125 50.484375 57.664062 C 50.410156 57.769531 50.394531 57.902344 50.410156 58.003906 C 50.5 58.34375 50.808594 59.363281 51.269531 59.039062 C 51.710938 58.65625 52.023438 58.167969 52.050781 57.59375 C 52.082031 57.058594 52.199219 56.527344 52.125 55.980469 C 52.125 55.804688 52.242188 55.613281 52.199219 55.417969 C 52.4375 54.148438 52.835938 52.847656 53.070312 51.5625 C 53.160156 51.046875 53.25 50.527344 53.394531 50.027344 C 53.542969 49.523438 53.574219 48.949219 53.972656 48.546875 C 54.0625 48.238281 54.238281 47.972656 54.429688 47.734375 C 55.007812 46.90625 55.140625 45.84375 55.703125 45.015625 C 55.835938 44.617188 56.054688 44.261719 56.261719 43.894531 C 56.351562 43.746094 56.351562 43.554688 56.484375 43.464844 C 56.707031 43.332031 56.78125 43.109375 56.882812 42.902344 C 57.03125 42.429688 57.429688 42.074219 57.460938 41.558594 C 57.460938 41.308594 57.578125 41.054688 57.726562 40.847656 C 57.976562 40.496094 57.949219 39.992188 58.242188 39.652344 C 58.507812 39.328125 58.65625 38.957031 58.894531 38.617188 C 59.085938 38.382812 59.039062 38.085938 59.101562 37.820312 C 59.335938 37.511719 59.277344 37.125 59.367188 36.785156 C 59.441406 36.355469 59.5 35.898438 59.453125 35.472656 C 59.453125 35.292969 59.632812 35.132812 59.648438 34.925781 C 59.648438 34.6875 59.601562 34.4375 59.75 34.214844 C 59.792969 34.039062 59.617188 33.832031 59.71875 33.636719 Z M 28.792969 26.085938 C 28.554688 26.546875 28.320312 27.003906 28.097656 27.476562 C 27.964844 27.742188 27.90625 28.050781 27.890625 28.320312 C 27.816406 28.835938 27.582031 29.277344 27.34375 29.722656 C 26.976562 30.195312 27.460938 30.726562 27.226562 31.230469 C 27.003906 31.660156 27.359375 32.085938 27.195312 32.5 C 27.183594 32.972656 27.109375 33.460938 27.003906 33.917969 C 26.988281 34.007812 26.976562 34.109375 27.003906 34.199219 C 27.226562 34.925781 26.839844 35.675781 27.046875 36.417969 C 27.09375 36.609375 27.136719 36.832031 27.035156 37.039062 C 26.945312 37.257812 27.121094 37.464844 27.226562 37.671875 C 26.902344 38.128906 27.300781 38.707031 27.109375 39.210938 C 27.046875 39.371094 27.195312 39.550781 27.121094 39.726562 C 27.046875 39.695312 27.019531 39.636719 27.003906 39.59375 C 26.929688 39.105469 26.605469 38.675781 26.5 38.203125 C 26.191406 36.59375 26.28125 34.984375 26.207031 33.359375 C 26.191406 33.121094 26.339844 32.871094 26.324219 32.632812 C 26.296875 32.203125 26.457031 31.777344 26.367188 31.332031 C 26.355469 31.246094 26.382812 31.171875 26.429688 31.097656 C 26.589844 30.84375 26.621094 30.566406 26.5625 30.285156 C 26.429688 29.886719 26.855469 29.679688 26.839844 29.292969 C 26.929688 28.820312 26.828125 28.246094 27.183594 27.847656 C 27.550781 27.492188 27.550781 26.945312 27.863281 26.558594 C 28.082031 26.351562 28.1875 25.984375 28.453125 25.820312 C 28.984375 25.613281 28.882812 24.875 29.5 24.742188 C 29.25 25.1875 29 25.613281 28.777344 26.058594 Z M 30.582031 23.574219 C 30.609375 23.457031 30.683594 23.414062 30.832031 23.457031 C 30.757812 23.558594 30.699219 23.589844 30.582031 23.574219 Z M 44.945312 39.859375 C 44.8125 40.082031 44.839844 40.304688 44.839844 40.539062 C 44.839844 40.953125 44.675781 41.324219 44.5 41.675781 C 44.144531 42.429688 43.777344 43.703125 42.726562 43.554688 C 42.636719 43.480469 42.636719 43.390625 42.652344 43.316406 C 42.683594 43.183594 42.683594 43.050781 42.742188 42.933594 C 43.066406 42.195312 43.246094 41.425781 43.464844 40.65625 C 43.597656 40.183594 43.40625 39.695312 43.449219 39.222656 C 43.464844 39.046875 43.449219 39.046875 43.332031 38.855469 C 42.875 39.003906 42.253906 38.738281 42.476562 38.191406 C 42.476562 38.144531 42.503906 38.101562 42.503906 38.058594 C 42.445312 37.257812 42.933594 36.785156 43.496094 36.355469 C 44.351562 36.105469 44.675781 37.789062 44.75 38.398438 C 44.796875 38.871094 44.988281 39.386719 44.929688 39.859375 Z M 44.945312 39.859375 " fill-opacity="1" fill-rule="nonzero"/><path fill="#ffffff" d="M 45.699219 56.617188 C 45.652344 56.21875 45.683594 55.804688 45.578125 55.40625 C 45.34375 54.398438 45.460938 53.367188 45.269531 52.347656 C 45.296875 51.667969 45.105469 50.972656 45.179688 50.292969 C 45.222656 49.773438 45.152344 49.273438 45.105469 48.726562 C 43.96875 48.785156 43.039062 48.355469 42.238281 47.5 C 41.796875 48.195312 41.132812 48.519531 40.453125 48.785156 C 40.597656 50.367188 40.660156 51.875 40.40625 53.425781 C 40.113281 55.183594 40.390625 57.058594 39.652344 58.699219 C 39.949219 58.832031 40.230469 58.953125 40.511719 58.699219 C 40.910156 58.613281 41.351562 58.582031 41.765625 58.640625 C 41.886719 58.671875 42.019531 58.683594 42.105469 58.625 C 42.285156 58.492188 42.503906 58.507812 42.699219 58.449219 C 42.992188 58.359375 43.304688 58.359375 43.585938 58.226562 C 43.894531 58.078125 44.277344 58.09375 44.574219 57.886719 C 44.988281 57.902344 45.402344 57.753906 45.816406 57.8125 C 45.933594 57.386719 45.667969 57.074219 45.667969 56.644531 Z M 45.699219 56.617188 " fill-opacity="1" fill-rule="nonzero"/><g clip-path="url(#faea0bd7a7)"><path fill="#f6d46b" d="M 14.578125 28.894531 C 15.019531 29.011719 15.507812 28.984375 15.949219 29.175781 C 16.558594 29.339844 17.222656 29.292969 17.8125 29.558594 C 18.125 29.632812 18.980469 29.914062 19.054688 29.457031 C 19.097656 29.265625 19.171875 29.074219 19.15625 28.867188 C 19.15625 28.703125 19.15625 28.539062 19.289062 28.40625 C 19.542969 27.875 18.730469 27.105469 18.285156 26.945312 C 17.25 26.484375 16.335938 25.878906 15.433594 25.199219 C 14.738281 24.816406 14.058594 24.433594 13.394531 24.003906 C 13.070312 23.828125 11.785156 23 11.886719 23.828125 C 11.886719 24.003906 11.992188 24.167969 11.960938 24.375 C 11.386719 24.328125 10.824219 24.035156 10.394531 24.535156 C 10.292969 24.535156 10.203125 24.460938 10.085938 24.507812 C 9.878906 24.757812 9.996094 25.140625 9.9375 25.4375 C 9.714844 26.886719 11.5625 25.96875 11.785156 26.574219 C 11.664062 26.648438 11.5625 26.605469 11.488281 26.574219 C 10.691406 26.367188 9.820312 26.484375 9.199219 27.046875 C 9.050781 27.195312 8.753906 27.507812 8.960938 27.710938 C 9.332031 28.050781 9.757812 28.320312 10.261719 28.347656 C 10.542969 28.363281 10.839844 28.347656 11.105469 28.421875 C 12.257812 28.703125 13.46875 28.421875 14.578125 28.878906 Z M 14.578125 28.894531 " fill-opacity="1" fill-rule="nonzero"/></g><path fill="#f6d46b" d="M 23.308594 14.753906 C 23.382812 14.769531 23.515625 14.753906 23.53125 14.828125 C 23.574219 15.09375 23.855469 15.152344 23.945312 15.375 C 24.210938 15.90625 25.023438 15.34375 25.320312 15.863281 C 25.480469 16.082031 26.117188 16.835938 26.382812 16.761719 C 26.5625 16.71875 26.722656 16.71875 26.902344 16.761719 C 27.253906 16.851562 27.195312 16.480469 27.386719 16.304688 C 27.550781 16.15625 27.269531 15.460938 27.136719 15.316406 C 27.09375 14.753906 26.707031 14.339844 26.5625 13.824219 C 26.441406 13.421875 26.308594 13.007812 26.089844 12.625 C 25.660156 11.871094 25.4375 11.015625 25.039062 10.246094 C 24.523438 9.464844 24.285156 7.851562 23.058594 8.03125 C 22.761719 8.105469 22.554688 7.882812 22.304688 7.777344 C 21.507812 7.410156 21.699219 8.828125 21.328125 9.167969 C 20.929688 8.710938 19.957031 8.546875 19.808594 9.285156 C 19.777344 9.847656 19.378906 10.660156 20.058594 10.984375 C 20.546875 11.164062 20.238281 11.398438 20.488281 11.636719 C 20.722656 11.796875 20.84375 12.078125 21.078125 12.242188 C 21.195312 12.328125 21.257812 12.433594 21.300781 12.582031 C 21.390625 12.996094 21.699219 13.214844 22.039062 13.421875 C 22.410156 13.894531 22.703125 14.574219 23.308594 14.769531 Z M 23.308594 14.753906 " fill-opacity="1" fill-rule="nonzero"/><g clip-path="url(#5804a644a4)"><path fill="#f6d46b" d="M 41.144531 2.546875 C 41.160156 2.578125 41.175781 2.621094 41.144531 2.652344 C 41.027344 2.945312 41.203125 3.199219 41.25 3.476562 C 41.265625 3.613281 41.339844 3.714844 41.367188 3.847656 C 41.707031 5.398438 42.210938 6.90625 42.59375 8.429688 C 42.59375 8.917969 42.992188 9.183594 43.097656 9.609375 C 43.097656 9.890625 43.246094 10.128906 43.363281 10.363281 C 43.496094 10.660156 44.144531 10.957031 44.324219 10.628906 C 44.324219 10.378906 44.515625 10.203125 44.574219 9.980469 C 45.121094 7.957031 45.519531 5.902344 45.933594 3.847656 C 46.066406 3.152344 46.109375 2.445312 46.140625 1.75 C 46.140625 1.585938 46.125 1.425781 46.023438 1.292969 C 45.917969 1.246094 45.832031 1.351562 45.710938 1.261719 C 45.667969 0.699219 45.015625 0.597656 44.78125 0.152344 C 44.132812 0.492188 43.730469 0.273438 43.273438 1.011719 C 42.964844 0.863281 42.710938 0.671875 42.371094 0.671875 C 42.238281 0.953125 41.898438 1.054688 41.78125 1.378906 C 41.441406 1.21875 40.984375 1.085938 41.058594 1.601562 C 41.085938 1.914062 40.984375 2.238281 41.144531 2.53125 Z M 41.144531 2.546875 " fill-opacity="1" fill-rule="nonzero"/></g><path fill="#f6d46b" d="M 74.792969 28.71875 C 74.617188 28.480469 74.628906 28.15625 74.453125 27.917969 C 74.421875 27.890625 74.453125 27.800781 74.484375 27.757812 C 74.644531 27.195312 74.203125 26.972656 73.832031 26.679688 C 73.9375 26.53125 74.113281 26.515625 74.1875 26.382812 C 74.511719 25.835938 74.023438 25.082031 73.375 25.289062 C 73.109375 25.363281 72.84375 25.453125 72.546875 25.394531 C 72.457031 25.378906 72.324219 25.394531 72.28125 25.4375 C 71.808594 25.761719 71.261719 25.953125 70.757812 26.191406 C 70.433594 26.324219 70.152344 26.605469 69.769531 26.605469 C 69.398438 26.886719 68.957031 27.019531 68.527344 27.179688 C 67.980469 27.402344 67.417969 27.609375 66.902344 27.890625 C 66.519531 28.082031 66.519531 28.097656 66.5625 28.527344 C 65.914062 28.878906 66.976562 30.726562 67.671875 30.535156 C 68.023438 30.609375 68.367188 30.683594 68.707031 30.550781 C 68.777344 30.519531 68.867188 30.460938 68.941406 30.503906 C 69.164062 30.609375 69.324219 30.503906 69.488281 30.34375 C 69.992188 30.757812 70.523438 30.195312 71.070312 30.402344 C 71.113281 30.402344 71.171875 30.402344 71.203125 30.386719 C 71.558594 30.164062 71.957031 30.433594 72.339844 30.3125 C 73.035156 30.152344 73.742188 30.238281 74.4375 30.152344 C 74.570312 30.152344 74.675781 30.105469 74.734375 29.988281 C 74.984375 29.5 75.132812 29.21875 74.777344 28.746094 Z M 74.792969 28.71875 " fill-opacity="1" fill-rule="nonzero"/><path fill="#f6d46b" d="M 72 47.160156 C 71.824219 47.042969 71.558594 47.101562 71.4375 46.921875 C 71.46875 46.820312 71.601562 46.820312 71.660156 46.6875 C 71.410156 46.480469 71.171875 46.289062 70.832031 46.273438 C 69.429688 46.242188 68.277344 45.429688 66.992188 44.972656 C 66.769531 44.882812 66.5625 44.765625 66.324219 44.765625 C 66.238281 44.765625 66.164062 44.722656 66.105469 44.660156 C 65.882812 44.394531 65.601562 44.410156 65.304688 44.527344 C 64.820312 44.75 63.871094 45.296875 64.375 45.902344 C 64.613281 46.15625 64.699219 46.507812 64.996094 46.703125 C 65.277344 46.9375 65.632812 47.113281 65.824219 47.453125 C 66 47.589844 66.238281 47.632812 66.3125 47.882812 C 66.339844 47.957031 66.414062 48.015625 66.488281 48.0625 C 66.8125 48.207031 66.960938 48.503906 67.167969 48.742188 C 67.65625 49.273438 68.246094 49.714844 68.660156 50.308594 C 68.707031 50.394531 68.765625 50.46875 68.851562 50.515625 C 69.398438 50.824219 69.917969 52.007812 70.625 51.414062 C 71.039062 50.898438 71.898438 51.296875 71.972656 50.839844 C 72.03125 50.542969 72.148438 50.261719 72.339844 50.011719 C 72.53125 49.761719 72.503906 49.40625 72.695312 49.140625 C 72.722656 49.007812 72.621094 48.828125 72.664062 48.695312 C 72.960938 48.488281 73.019531 48.414062 72.902344 48.207031 C 72.679688 47.808594 72.429688 47.425781 72 47.203125 Z M 72 47.160156 " fill-opacity="1" fill-rule="nonzero"/><path fill="#f6d46b" d="M 67.820312 10.082031 C 67.714844 9.773438 67.449219 9.582031 67.183594 9.449219 C 66.59375 9.136719 66.472656 8.414062 65.867188 8.105469 C 65.484375 7.851562 65.1875 7.882812 64.863281 8.207031 C 64.757812 8.3125 64.625 8.457031 64.492188 8.457031 C 64.300781 8.457031 64.199219 8.578125 64.066406 8.652344 C 63.902344 8.488281 63.945312 8.207031 63.679688 8.089844 C 63.105469 9.285156 62.617188 10.496094 61.996094 11.664062 C 61.699219 12.210938 61.464844 12.789062 61.125 13.320312 C 60.902344 13.675781 60.652344 14 60.519531 14.429688 C 60.222656 15.402344 60.28125 15.59375 61.152344 16.128906 C 61.316406 16.246094 61.523438 16.320312 61.699219 16.171875 C 62.085938 15.921875 62.351562 15.535156 62.78125 15.359375 C 63.046875 15.253906 63.328125 15.152344 63.460938 14.84375 C 63.503906 14.738281 63.621094 14.722656 63.726562 14.695312 C 63.945312 14.648438 64.109375 14.546875 64.214844 14.324219 C 64.273438 14.191406 64.359375 14.089844 64.523438 14.042969 C 64.597656 14.027344 64.640625 13.96875 64.6875 13.925781 C 64.964844 13.660156 65.128906 13.277344 65.5 13.082031 C 65.542969 13.054688 65.574219 12.996094 65.601562 12.949219 C 66.089844 12.316406 66.785156 11.871094 67.316406 11.296875 C 67.582031 10.96875 68.097656 10.882812 68.070312 10.363281 C 67.964844 10.261719 67.832031 10.21875 67.789062 10.082031 Z M 67.820312 10.082031 " fill-opacity="1" fill-rule="nonzero"/><path fill="#f6d46b" d="M 21.714844 44.765625 C 21.492188 44.839844 21.285156 44.941406 21.050781 44.765625 C 20.738281 44.527344 20.355469 44.484375 20 44.394531 C 19.910156 44.367188 19.808594 44.382812 19.71875 44.410156 C 18.640625 44.867188 17.589844 45.445312 16.46875 45.742188 C 16.261719 45.785156 16.023438 45.753906 15.863281 45.917969 C 15.683594 46.082031 15.492188 46.15625 15.257812 46.167969 C 15.019531 46.199219 14.859375 46.390625 14.621094 46.449219 C 13.765625 46.628906 14.164062 48.84375 14.796875 48.535156 C 15.035156 48.386719 15.167969 48.121094 15.507812 48.148438 C 15.507812 48.296875 15.433594 48.371094 15.359375 48.414062 C 15.066406 48.578125 15.050781 48.902344 14.929688 49.167969 C 14.679688 50.292969 15.566406 50.101562 16.335938 50.085938 C 16.644531 50.085938 16.957031 50.070312 17.148438 49.761719 C 17.175781 49.714844 17.25 49.699219 17.296875 49.65625 C 17.828125 49.242188 18.507812 49.035156 19.128906 48.800781 C 20.015625 48.59375 20.546875 47.824219 21.359375 47.484375 C 21.433594 47.453125 21.507812 47.394531 21.550781 47.320312 C 21.789062 46.878906 22.527344 47.011719 22.570312 46.40625 C 22.570312 46.347656 22.617188 46.300781 22.675781 46.257812 C 22.777344 46.183594 22.792969 46.066406 22.808594 45.949219 C 22.894531 45.355469 22.394531 44.542969 21.730469 44.765625 Z M 21.714844 44.765625 " fill-opacity="1" fill-rule="nonzero"/><path fill="#ffffff" d="M 38.574219 47.246094 C 38.558594 46.90625 38.707031 46.640625 38.8125 46.375 C 38.53125 45.695312 38.324219 45.03125 38.074219 44.367188 C 37.71875 43.6875 37.347656 42.992188 37.023438 42.296875 C 36.535156 41.425781 36.195312 40.496094 35.664062 39.636719 C 35.53125 39.386719 35.28125 39.355469 35.058594 39.269531 C 34.941406 39.222656 34.746094 39.355469 34.746094 39.488281 C 34.660156 39.917969 34.453125 40.347656 34.480469 40.789062 C 34.539062 41.871094 34.792969 42.933594 35.25 43.910156 C 35.457031 44.335938 35.78125 44.722656 35.972656 45.179688 C 36.253906 45.917969 37.050781 45.753906 37.671875 45.859375 C 37.746094 45.859375 37.820312 45.859375 37.867188 45.960938 C 37.453125 46.140625 36.992188 46.082031 36.492188 46.140625 C 37.050781 46.847656 37.703125 47.234375 38.574219 47.234375 Z M 38.574219 47.246094 " fill-opacity="1" fill-rule="nonzero"/><path fill="#000000" d="M 62.203125 31.453125 C 62.234375 29.765625 61.746094 28.1875 61.464844 26.546875 C 61.464844 26.425781 61.40625 26.308594 61.316406 26.234375 C 61.109375 26.074219 61.050781 25.851562 61.007812 25.613281 C 60.8125 24.964844 60.519531 24.375 60.222656 23.765625 C 59.972656 23.175781 59.527344 22.734375 59.160156 22.214844 C 58.96875 21.875 58.746094 21.550781 58.433594 21.3125 C 57.828125 20.945312 57.59375 20.222656 56.957031 19.910156 C 56.601562 19.71875 56.574219 19.246094 56.144531 19.128906 C 55.96875 19.054688 55.746094 18.996094 55.640625 18.816406 C 55.332031 18.328125 54.828125 18.109375 54.34375 17.886719 C 53.957031 17.707031 53.601562 17.429688 53.144531 17.429688 C 53.117188 17.429688 53.070312 17.414062 53.054688 17.382812 C 52.863281 17.117188 52.628906 16.96875 52.289062 16.96875 C 52.15625 16.925781 52.050781 16.777344 51.902344 16.808594 C 51.769531 16.820312 51.667969 16.777344 51.59375 16.6875 C 51.503906 16.601562 51.402344 16.570312 51.28125 16.554688 C 50.824219 16.496094 50.410156 16.304688 49.96875 16.203125 C 49.613281 16.113281 49.257812 15.980469 48.902344 15.863281 C 48.710938 15.789062 48.503906 15.863281 48.3125 15.773438 C 48.121094 15.683594 47.914062 15.667969 47.691406 15.667969 C 47.058594 15.667969 46.449219 15.460938 45.816406 15.492188 C 45.386719 15.492188 44.957031 15.550781 44.515625 15.523438 C 44.234375 15.523438 43.910156 15.476562 43.644531 15.699219 C 43.597656 15.742188 43.511719 15.773438 43.449219 15.742188 C 43.171875 15.582031 42.890625 15.65625 42.59375 15.699219 C 40.257812 15.964844 37.953125 16.585938 35.871094 17.679688 C 35.144531 17.914062 34.527344 18.359375 33.875 18.757812 C 33.402344 18.996094 32.988281 19.320312 32.605469 19.675781 C 31.820312 20.042969 31.214844 20.695312 30.519531 21.210938 C 30.417969 21.300781 30.300781 21.386719 30.242188 21.519531 C 29.945312 22.023438 29.382812 22.304688 29.042969 22.792969 C 28.320312 23.679688 27.832031 24.699219 27.242188 25.660156 C 26.871094 26.265625 26.574219 26.898438 26.355469 27.566406 C 26.191406 28.15625 25.96875 28.71875 25.835938 29.324219 C 25.808594 29.472656 25.882812 29.632812 25.777344 29.765625 C 25.617188 30.019531 25.71875 30.359375 25.585938 30.625 C 25.421875 30.917969 25.542969 31.246094 25.480469 31.539062 C 25.480469 31.878906 25.4375 32.265625 25.4375 32.617188 C 25.527344 33.210938 25.289062 33.816406 25.585938 34.363281 C 25.601562 34.40625 25.617188 34.449219 25.601562 34.496094 C 25.511719 35.085938 25.601562 35.707031 25.761719 36.269531 C 25.867188 36.503906 25.882812 36.726562 25.851562 36.964844 C 25.835938 37.109375 25.851562 37.214844 25.957031 37.304688 C 26.117188 37.421875 26.148438 37.582031 26.058594 37.746094 C 25.820312 38.203125 25.96875 38.675781 26.058594 39.121094 C 26.222656 39.84375 26.414062 40.554688 26.648438 41.25 C 27.195312 43.09375 28.039062 44.824219 28.777344 46.597656 C 29.015625 47.128906 29.222656 47.691406 29.5625 48.164062 C 29.648438 48.28125 29.707031 48.402344 29.871094 48.429688 C 29.914062 48.269531 29.871094 48.121094 29.796875 47.988281 C 29.429688 47.203125 29.148438 46.375 28.820312 45.578125 C 28.792969 45.519531 28.761719 45.445312 28.894531 45.402344 C 29.058594 45.652344 29.308594 45.859375 29.355469 46.199219 C 29.382812 46.433594 29.488281 46.671875 29.664062 46.847656 C 29.828125 46.980469 29.769531 47.277344 29.960938 47.394531 C 30.285156 47.660156 30.300781 48.148438 30.625 48.414062 C 30.683594 48.742188 30.652344 49.082031 30.992188 49.289062 C 31.066406 49.421875 31.039062 49.582031 31.199219 49.6875 C 31.378906 49.820312 31.246094 50.054688 31.378906 50.203125 C 31.761719 50.71875 31.953125 51.3125 32.160156 51.902344 C 32.441406 52.40625 32.605469 53.011719 32.972656 53.453125 C 33.210938 53.632812 33.210938 53.972656 33.445312 54.132812 C 33.460938 54.148438 33.476562 54.191406 33.476562 54.238281 C 33.652344 54.917969 34.199219 55.480469 34.140625 56.246094 C 34.097656 56.484375 34.480469 56.585938 34.273438 56.824219 C 34.125 56.792969 34.054688 56.675781 33.933594 56.617188 C 33.402344 56.304688 33.285156 57.105469 33.136719 57.445312 C 32.828125 58.597656 34.230469 58.863281 34.953125 59.351562 C 35.085938 59.425781 35.292969 59.378906 35.441406 59.4375 C 36.847656 60.058594 38.382812 60.074219 39.875 60.265625 C 40.777344 60.371094 41.722656 60.132812 42.625 60.222656 C 44.53125 60.324219 46.4375 60.191406 48.328125 59.972656 C 49.007812 59.910156 49.671875 59.703125 50.335938 59.601562 C 51.195312 59.378906 52.183594 59.378906 52.878906 58.789062 C 53.054688 58.625 53.054688 58.40625 53.160156 58.226562 C 53.457031 57.769531 52.921875 57.339844 52.953125 56.882812 C 53.027344 56.574219 52.996094 56.21875 53.25 55.953125 C 53.394531 55.773438 53.277344 55.539062 53.261719 55.332031 C 53.1875 54.753906 53.601562 55.019531 53.660156 54.59375 C 53.75 54.132812 53.988281 53.707031 54.105469 53.261719 C 54.296875 52.539062 54.886719 52.035156 55.035156 51.3125 C 55.226562 51.058594 55.433594 50.792969 55.496094 50.484375 C 55.597656 50.070312 56.101562 49.921875 56.128906 49.464844 C 56.21875 49.40625 56.367188 49.316406 56.394531 49.199219 C 56.527344 48.902344 56.707031 48.636719 56.914062 48.371094 C 57.164062 48.046875 57.296875 47.632812 57.578125 47.320312 C 57.652344 47.234375 57.636719 47.054688 57.726562 46.96875 C 58.125 46.464844 58.140625 45.785156 58.597656 45.3125 C 58.835938 45.03125 59.085938 44.78125 59.113281 44.367188 C 59.113281 43.921875 59.632812 43.703125 59.691406 43.257812 C 59.78125 42.742188 60 42.3125 60.355469 41.929688 C 60.460938 41.824219 60.488281 41.691406 60.503906 41.542969 C 60.503906 41.367188 60.546875 41.191406 60.636719 41.042969 C 60.902344 40.570312 61.035156 40.050781 61.09375 39.519531 C 61.09375 39.429688 61.09375 39.34375 61.152344 39.285156 C 61.464844 38.988281 61.554688 38.558594 61.640625 38.175781 C 62.160156 35.972656 62.394531 33.699219 62.21875 31.4375 Z M 28.628906 44.898438 C 28.511719 44.765625 28.480469 44.675781 28.570312 44.542969 C 28.6875 44.632812 28.703125 44.734375 28.628906 44.898438 Z M 47.042969 58.34375 C 46.65625 58.210938 46.273438 58.375 45.890625 58.34375 C 45.3125 58.316406 44.738281 58.433594 44.160156 58.34375 C 44.085938 58.34375 43.984375 58.34375 43.925781 58.375 C 43.613281 58.566406 43.257812 58.210938 42.964844 58.390625 C 42.742188 58.550781 42.519531 58.507812 42.285156 58.449219 C 42.03125 58.390625 41.8125 58.359375 41.558594 58.449219 C 41.308594 58.523438 41.058594 58.34375 40.777344 58.34375 C 40.863281 57.664062 40.96875 57.058594 41.160156 56.410156 C 41.324219 56.054688 41.101562 55.65625 41.117188 55.300781 C 41.410156 54.519531 41.011719 53.707031 41.160156 52.9375 C 41.191406 52.894531 41.203125 52.820312 41.191406 52.761719 C 41.085938 52.40625 41.160156 52.035156 41.058594 51.679688 C 41.027344 51.605469 41 51.519531 41.011719 51.445312 C 41.085938 51.03125 41.011719 50.601562 40.984375 50.1875 C 40.984375 50.011719 40.9375 49.835938 40.925781 49.671875 C 41.101562 49.035156 40.421875 47.660156 41.308594 47.484375 C 41.765625 47.410156 42.078125 47.144531 42.34375 46.820312 C 42.460938 46.671875 42.652344 46.671875 42.816406 46.539062 C 43.554688 47.824219 44.722656 48.296875 46.109375 48.371094 C 46.082031 48.636719 46.039062 48.875 46.140625 49.09375 C 46.171875 49.167969 46.140625 49.226562 46.097656 49.300781 C 45.992188 49.6875 45.710938 50.160156 45.902344 50.558594 C 45.933594 50.601562 45.949219 50.660156 45.933594 50.691406 C 45.757812 51.03125 45.902344 51.398438 45.84375 51.753906 C 45.84375 51.828125 45.832031 51.902344 45.84375 51.960938 C 45.992188 52.257812 45.683594 52.523438 45.785156 52.820312 C 45.859375 53.027344 45.636719 53.277344 45.785156 53.46875 C 45.917969 53.632812 45.902344 53.78125 45.832031 53.957031 C 45.785156 54.058594 45.769531 54.164062 45.800781 54.265625 C 45.964844 55.285156 45.933594 56.320312 45.992188 57.355469 C 45.992188 58.050781 46.582031 58.078125 47.144531 58.199219 C 47.144531 58.316406 47.101562 58.375 47.027344 58.34375 Z M 44.042969 38.128906 C 44.117188 38.308594 44.160156 38.515625 43.996094 38.691406 C 43.9375 38.75 43.894531 38.839844 43.925781 38.914062 C 43.984375 39.429688 43.953125 39.964844 43.777344 40.449219 C 43.613281 41.042969 43.65625 41.664062 43.257812 42.164062 C 42.917969 41.117188 42.964844 39.445312 43.316406 38.398438 C 43.4375 37.953125 43.40625 37.644531 43.96875 37.464844 C 43.894531 37.71875 43.953125 37.910156 44.042969 38.101562 Z M 60.402344 32.292969 C 60.253906 32.5 60.472656 32.738281 60.339844 32.945312 C 60.3125 32.988281 60.296875 33.046875 60.3125 33.078125 C 60.402344 33.371094 60.3125 33.667969 60.328125 33.964844 C 60.339844 34.777344 60 35.574219 60.03125 36.371094 C 60.0625 36.492188 60.03125 36.578125 59.972656 36.667969 C 59.839844 36.832031 59.792969 37.023438 59.75 37.214844 C 59.675781 37.480469 59.71875 37.777344 59.574219 38.027344 C 59.527344 38.101562 59.558594 38.203125 59.574219 38.308594 C 59.601562 38.441406 59.542969 38.558594 59.5 38.675781 C 59.1875 39.285156 59.128906 39.992188 58.699219 40.554688 C 58.628906 40.671875 58.566406 40.777344 58.582031 40.910156 C 58.582031 41.21875 58.199219 41.410156 58.316406 41.75 C 58.347656 41.808594 58.316406 41.871094 58.257812 41.914062 C 57.917969 42.195312 57.769531 42.578125 57.5625 42.949219 C 57.3125 43.390625 57.03125 43.820312 56.839844 44.308594 C 56.722656 44.46875 56.765625 44.707031 56.601562 44.855469 C 56.292969 45.179688 56.070312 45.546875 55.910156 45.976562 C 55.332031 46.804688 54.859375 47.734375 54.269531 48.546875 C 53.707031 49.242188 53.410156 50.113281 52.894531 50.839844 C 52.804688 50.957031 52.789062 51.105469 52.746094 51.222656 C 52.316406 52.082031 51.992188 52.980469 51.652344 53.867188 C 51.621094 53.957031 51.5625 54.046875 51.59375 54.132812 C 51.695312 54.386719 51.5625 54.578125 51.429688 54.753906 C 51.238281 55.019531 51.148438 55.300781 51.136719 55.640625 C 51.046875 56.277344 50.53125 56.882812 50.824219 57.5625 C 50.675781 57.664062 50.53125 57.726562 50.335938 57.695312 C 49.996094 57.652344 49.65625 57.785156 49.332031 57.871094 C 48.859375 58.003906 48.371094 58.019531 47.871094 58.09375 C 48.015625 57.339844 47.808594 56.617188 47.78125 55.894531 C 47.914062 55.242188 47.691406 54.605469 47.707031 53.957031 C 47.664062 52.773438 47.574219 51.59375 47.808594 50.410156 C 47.882812 50.113281 47.882812 49.804688 47.808594 49.496094 C 47.78125 49.375 47.796875 49.257812 47.855469 49.152344 C 48.164062 48.652344 47.78125 47.929688 48.460938 47.632812 C 48.800781 47.453125 49.066406 47.1875 49.257812 46.847656 C 49.390625 46.613281 49.554688 46.464844 49.835938 46.433594 C 49.96875 46.433594 50.070312 46.363281 50.117188 46.257812 C 50.203125 46.035156 50.394531 45.886719 50.53125 45.695312 C 50.75 45.445312 50.808594 45.0625 51.121094 44.867188 C 51.328125 44.722656 51.460938 44.542969 51.476562 44.292969 C 51.476562 44.203125 51.535156 44.117188 51.609375 44.054688 C 52.242188 43.570312 52.214844 42.800781 52.539062 42.164062 C 52.730469 41.957031 52.804688 41.691406 52.847656 41.425781 C 53.128906 40.863281 53.25 40.242188 53.410156 39.652344 C 53.5 38.21875 53.691406 36.152344 51.800781 35.914062 C 51.28125 35.972656 50.734375 36.164062 50.351562 36.5625 C 50.128906 36.800781 49.761719 36.964844 49.582031 37.230469 C 49.496094 37.746094 49.007812 38.191406 48.859375 38.648438 C 48.917969 38.972656 48.695312 39.164062 48.535156 39.386719 C 48.03125 40.230469 47.882812 41.21875 47.457031 42.089844 C 47.441406 42.136719 47.398438 42.179688 47.410156 42.222656 C 47.457031 42.726562 47.128906 43.125 47.027344 43.597656 C 46.910156 44.117188 46.835938 44.632812 46.761719 45.148438 C 46.671875 45.5625 46.40625 45.992188 46.511719 46.433594 C 45.667969 46.773438 44.839844 45.992188 44.308594 45.402344 C 44.101562 45.179688 43.984375 44.898438 44.191406 44.601562 C 44.292969 44.410156 44.234375 44.1875 44.410156 44.027344 C 44.871094 43.421875 44.988281 42.621094 45.34375 41.941406 C 45.859375 40.289062 46.183594 35.175781 43.316406 35.871094 C 42.625 36.03125 42.121094 36.519531 41.824219 37.15625 C 41.679688 37.390625 41.558594 37.644531 41.546875 37.9375 C 41.25 38.664062 41.21875 39.460938 41.160156 40.242188 C 41.085938 40.863281 41.070312 41.515625 41.339844 42.105469 C 41.367188 42.179688 41.410156 42.28125 41.382812 42.34375 C 41.265625 42.636719 41.382812 42.890625 41.515625 43.15625 C 41.53125 43.199219 41.558594 43.242188 41.558594 43.289062 C 41.546875 43.730469 41.765625 44.128906 41.855469 44.589844 C 41.546875 44.988281 41.160156 45.355469 40.6875 45.609375 C 40.585938 45.546875 40.570312 45.476562 40.554688 45.386719 C 40.332031 43.125 39.417969 40.921875 38.132812 39.0625 C 37.394531 38.128906 36.535156 37.230469 35.441406 36.710938 C 34.066406 36.210938 32.828125 37.570312 32.738281 38.855469 C 32.546875 39.210938 32.589844 39.59375 32.648438 39.976562 C 32.753906 40.242188 32.574219 40.480469 32.605469 40.746094 C 32.796875 41.292969 32.605469 41.929688 32.914062 42.445312 C 33.121094 43.023438 33.445312 43.507812 33.652344 44.101562 C 33.699219 44.292969 33.90625 44.457031 34.054688 44.617188 C 34.804688 45.667969 35.5 46.582031 36.800781 47.011719 C 37.378906 47.367188 38 47.542969 38.632812 47.722656 C 38.945312 47.808594 38.988281 47.882812 38.988281 48.195312 C 38.988281 48.5625 38.957031 48.933594 39.0625 49.316406 C 39.121094 49.761719 39.105469 50.261719 39.105469 50.71875 C 39.105469 50.957031 39.046875 51.195312 39.210938 51.402344 C 39.210938 51.414062 39.226562 51.445312 39.210938 51.472656 C 39.0625 51.84375 39.210938 52.214844 39.210938 52.582031 C 39.195312 52.832031 39.226562 53.101562 39.238281 53.351562 C 39.238281 53.574219 39.3125 53.792969 39.226562 54.015625 C 39.195312 54.089844 39.226562 54.148438 39.238281 54.222656 C 39.296875 54.386719 39.269531 54.546875 39.296875 54.710938 C 39.402344 55.199219 39.269531 55.6875 39.253906 56.171875 C 39.210938 56.808594 39.253906 57.472656 39.09375 58.109375 C 39.03125 58.390625 39.003906 58.40625 38.707031 58.34375 C 37.820312 58.167969 36.949219 57.960938 36.0625 57.753906 C 35.886719 57.726562 35.828125 57.578125 35.988281 57.472656 C 36.152344 57.296875 36.179688 57.105469 36.121094 56.882812 C 35.886719 56.171875 36.402344 56.171875 36.210938 55.804688 C 36.046875 55.554688 35.988281 55.257812 35.929688 54.976562 C 35.828125 54.207031 35.21875 53.660156 34.984375 52.9375 C 34.820312 52.566406 34.601562 52.242188 34.378906 51.902344 C 34.097656 51.195312 33.726562 50.527344 33.460938 49.820312 C 33.386719 49.582031 33.152344 49.421875 33.046875 49.214844 C 32.78125 48.503906 32.382812 47.839844 32.027344 47.175781 C 31.925781 46.554688 31.527344 46.09375 31.199219 45.609375 C 31.097656 45.460938 30.992188 45.3125 30.949219 45.148438 C 30.859375 44.734375 30.507812 44.425781 30.460938 43.996094 C 30.460938 43.9375 30.402344 43.863281 30.375 43.804688 C 29.753906 43.007812 29.738281 41.941406 29.175781 41.117188 C 29.042969 40.9375 28.96875 40.746094 28.953125 40.523438 C 28.953125 40.125 28.703125 39.816406 28.554688 39.476562 C 28.171875 38.515625 28.066406 37.511719 27.742188 36.535156 C 27.890625 35.632812 27.285156 34.761719 27.507812 33.890625 C 27.550781 33.800781 27.582031 33.699219 27.535156 33.625 C 27.386719 33.359375 27.476562 33.089844 27.476562 32.824219 C 27.460938 32.265625 27.449219 31.703125 27.65625 31.171875 C 27.582031 30.609375 27.757812 30.046875 27.890625 29.5 C 28.039062 29.011719 28.304688 28.554688 28.304688 28.023438 C 28.304688 27.90625 28.363281 27.800781 28.453125 27.710938 C 28.746094 27.433594 28.882812 27.078125 28.910156 26.679688 C 29.25 26.472656 29.089844 26.117188 29.175781 25.820312 C 29.339844 25.761719 29.488281 25.671875 29.5 25.464844 C 29.5 25.453125 29.5 25.40625 29.53125 25.40625 C 29.945312 25.246094 29.988281 24.773438 30.300781 24.492188 C 30.59375 24.226562 30.800781 23.871094 31.066406 23.558594 C 31.097656 23.53125 31.113281 23.5 31.113281 23.472656 C 31.097656 23.074219 31.453125 23.042969 31.6875 22.894531 C 32.058594 22.792969 32.117188 22.304688 32.546875 22.273438 C 32.558594 22.273438 32.589844 22.261719 32.605469 22.246094 C 32.828125 21.890625 33.253906 21.757812 33.507812 21.449219 C 33.847656 20.78125 34.71875 21.035156 35.085938 20.308594 C 35.78125 20.222656 36.285156 19.601562 36.964844 19.421875 C 37.140625 19.363281 37.257812 19.246094 37.421875 19.15625 C 37.71875 19.007812 38.085938 19.039062 38.351562 18.832031 C 39.105469 18.253906 40.113281 18.386719 40.910156 17.929688 C 41.042969 17.855469 41.175781 17.855469 41.324219 17.902344 C 41.441406 17.945312 41.558594 17.945312 41.648438 17.855469 C 41.765625 17.722656 41.914062 17.722656 42.078125 17.753906 C 42.933594 17.78125 43.777344 17.296875 44.648438 17.515625 C 44.707031 17.515625 44.78125 17.53125 44.824219 17.515625 C 45.164062 17.324219 45.519531 17.457031 45.859375 17.488281 C 46.347656 17.621094 46.835938 17.515625 47.324219 17.589844 C 47.601562 17.648438 47.898438 17.695312 48.195312 17.695312 C 48.710938 18.019531 49.332031 17.960938 49.878906 18.136719 C 50.722656 18.386719 51.550781 18.714844 52.316406 19.097656 C 52.746094 19.054688 53.027344 19.363281 53.367188 19.542969 C 54.503906 20.148438 55.539062 20.902344 56.441406 21.832031 C 56.957031 22.347656 57.28125 23 57.8125 23.472656 C 57.886719 23.53125 57.960938 23.632812 58.007812 23.722656 C 58.316406 24.507812 59.027344 25.066406 59.1875 25.910156 C 59.292969 26.21875 59.542969 26.472656 59.542969 26.8125 C 59.542969 27.121094 59.839844 27.3125 59.867188 27.609375 C 59.839844 28.511719 60.339844 29.339844 60.238281 30.238281 C 60.238281 30.34375 60.195312 30.460938 60.238281 30.550781 C 60.371094 30.785156 60.328125 31.039062 60.339844 31.273438 C 60.339844 31.523438 60.339844 31.761719 60.414062 32.011719 C 60.445312 32.085938 60.445312 32.175781 60.402344 32.25 Z M 51.742188 38.632812 C 51.695312 38.882812 51.5625 39.179688 51.578125 39.460938 C 51.578125 39.59375 51.535156 39.710938 51.460938 39.816406 C 51.328125 40.023438 51.222656 40.242188 51.269531 40.507812 C 51.296875 40.65625 51.222656 40.789062 51.136719 40.894531 C 50.882812 41.175781 51.046875 41.574219 50.78125 41.871094 C 50.144531 42.976562 49.644531 44.128906 48.683594 45.015625 C 48.636719 44.707031 48.710938 44.457031 48.800781 44.203125 C 49.109375 43.183594 49.304688 42.148438 49.730469 41.175781 C 49.984375 40.464844 50.203125 39.710938 50.734375 39.136719 C 50.78125 39.089844 50.824219 39.015625 50.824219 38.941406 C 50.839844 38.632812 51.03125 38.425781 51.238281 38.234375 C 51.371094 38.117188 51.414062 37.910156 51.609375 37.777344 C 51.683594 38.085938 51.5625 38.367188 51.726562 38.617188 Z M 38.796875 45.621094 C 37.792969 45.535156 37.039062 45 36.300781 44.351562 C 35.574219 43.835938 35.160156 43.007812 34.746094 42.253906 C 34.628906 41.941406 34.613281 41.589844 34.421875 41.292969 C 34.289062 41.085938 34.246094 40.863281 34.273438 40.613281 C 34.347656 40.109375 34.320312 39.578125 34.480469 39.078125 C 34.792969 38.058594 35.351562 37.097656 36.253906 38.308594 C 36.800781 38.855469 37.15625 39.519531 37.527344 40.199219 C 37.628906 40.375 37.761719 40.539062 37.777344 40.789062 C 37.878906 41.261719 38.25 41.707031 38.277344 42.222656 C 38.398438 42.960938 38.617188 43.6875 38.632812 44.425781 C 38.632812 44.542969 38.679688 44.691406 38.753906 44.796875 C 38.929688 45.0625 38.886719 45.328125 38.78125 45.621094 Z M 38.796875 45.621094 " fill-opacity="1" fill-rule="nonzero"/><path fill="#000000" d="M 52.316406 60.414062 C 51.710938 60.371094 51.148438 60.488281 50.617188 60.796875 C 50.46875 60.886719 50.335938 60.960938 50.160156 60.976562 C 49.746094 61.035156 49.347656 61.078125 48.933594 61.066406 C 48.164062 61.003906 47.425781 61.226562 46.65625 61.226562 C 46.183594 61.136719 45.726562 61.375 45.253906 61.332031 C 44.441406 61.269531 43.644531 61.34375 42.832031 61.417969 C 42.179688 61.449219 41.515625 61.300781 40.863281 61.242188 C 40.40625 61.167969 39.933594 61.199219 39.519531 60.902344 C 39.417969 60.828125 39.296875 60.828125 39.179688 60.8125 C 38.5 60.785156 37.925781 60.414062 37.246094 60.386719 C 37.066406 60.371094 36.890625 60.355469 36.726562 60.25 C 35.753906 59.71875 34.511719 59.023438 33.507812 59.882812 C 33.625 60.578125 34.421875 60.8125 34.835938 61.332031 C 35.160156 61.671875 35.605469 61.804688 36.003906 62.023438 C 36.121094 62.085938 36.269531 62.144531 36.417969 62.113281 C 36.59375 62.070312 36.742188 62.15625 36.890625 62.230469 C 37.4375 62.601562 38.074219 62.542969 38.632812 62.808594 C 38.855469 62.941406 39.046875 63.015625 39.285156 62.808594 C 39.667969 63.175781 40.230469 63.117188 40.671875 63.382812 C 40.523438 63.515625 40.390625 63.488281 40.257812 63.472656 C 39.433594 63.414062 38.617188 63.355469 37.792969 63.265625 C 36.492188 63.265625 35.132812 62.75 33.90625 63.445312 C 32.871094 63.929688 34.925781 65.558594 35.382812 65.910156 C 35.546875 66.03125 35.753906 66.03125 35.886719 66.148438 C 36.105469 66.339844 36.433594 66.355469 36.652344 66.546875 C 36.816406 66.695312 37.023438 66.429688 37.1875 66.5625 C 37.554688 66.828125 38.011719 66.871094 38.425781 67.050781 C 38.753906 67.195312 39.105469 67.210938 39.433594 67.34375 C 39.832031 67.433594 40.289062 67.269531 40.660156 67.566406 C 40.777344 67.65625 40.910156 67.65625 41.058594 67.640625 C 41.457031 67.609375 41.855469 67.550781 42.226562 67.757812 C 42.3125 67.804688 42.417969 67.816406 42.492188 67.757812 C 42.726562 67.609375 42.949219 67.625 43.199219 67.714844 C 43.273438 67.742188 43.363281 67.730469 43.4375 67.699219 C 43.511719 67.667969 43.570312 67.65625 43.644531 67.699219 C 43.820312 67.816406 44.027344 67.789062 44.21875 67.789062 C 44.542969 67.789062 44.882812 67.789062 45.210938 67.789062 C 45.285156 67.789062 45.355469 67.789062 45.355469 67.921875 C 45.210938 67.980469 45.015625 67.949219 44.898438 68.054688 C 44.457031 68.453125 44.351562 67.683594 43.820312 68.203125 C 43.597656 68.15625 43.378906 67.996094 43.199219 68.070312 C 42.933594 68.1875 42.652344 68.1875 42.386719 68.261719 C 42.226562 68.304688 42.0625 68.320312 41.914062 68.230469 C 41.78125 68.144531 41.648438 68.15625 41.515625 68.246094 C 41.425781 68.320312 41.339844 68.320312 41.21875 68.320312 C 40.746094 68.351562 40.273438 68.246094 39.816406 68.15625 C 39.433594 68.097656 39.019531 68.15625 38.648438 67.980469 C 38.617188 67.964844 38.558594 67.980469 38.515625 67.980469 C 38.074219 68.039062 37.660156 67.90625 37.246094 67.789062 C 37.039062 67.730469 36.847656 67.582031 36.609375 67.65625 C 36.519531 67.683594 36.433594 67.609375 36.34375 67.566406 C 35.972656 67.402344 35.351562 67.003906 35.011719 67.359375 C 34.867188 67.625 34.421875 67.921875 34.527344 68.246094 C 34.671875 68.617188 34.878906 68.894531 35.265625 69.042969 C 35.515625 69.132812 35.664062 69.382812 35.960938 69.472656 C 36.507812 69.636719 37.050781 69.828125 37.597656 69.960938 C 38.101562 70.078125 38.632812 70.035156 39.121094 70.195312 C 39.386719 70.285156 39.652344 70.300781 39.917969 70.226562 C 40.066406 70.195312 40.199219 70.226562 40.273438 70.402344 C 40.039062 70.507812 39.964844 70.730469 39.890625 70.9375 C 39.519531 71.910156 40.007812 72.796875 40.863281 73.210938 C 41.574219 73.492188 42.371094 73.507812 43.125 73.507812 C 43.378906 73.507812 43.628906 73.566406 43.863281 73.449219 C 44.25 73.152344 45.3125 73.09375 45.402344 72.621094 C 45.699219 71.984375 46.304688 71.46875 45.917969 70.683594 C 45.816406 70.449219 45.726562 70.402344 45.476562 70.523438 C 45.089844 70.699219 44.839844 71.128906 44.398438 71.15625 C 44.234375 71.15625 44.117188 71.214844 43.96875 71.304688 C 43.644531 71.496094 43.332031 71.777344 42.90625 71.628906 C 42.84375 71.617188 42.757812 71.628906 42.699219 71.660156 C 42.445312 71.734375 42.03125 71.808594 41.886719 71.527344 C 41.617188 71.023438 41.234375 70.640625 40.835938 70.226562 C 41.410156 70.167969 41.988281 70.328125 42.578125 70.152344 C 42.699219 70.121094 42.816406 70.109375 42.933594 70.136719 C 43.273438 70.195312 43.613281 70.210938 43.9375 70.078125 C 43.984375 70.0625 44.042969 70.0625 44.070312 70.078125 C 44.277344 70.183594 44.472656 70.078125 44.664062 70.035156 C 44.765625 70.019531 44.871094 69.960938 44.972656 69.960938 C 45.636719 70.003906 46.273438 69.78125 46.9375 69.78125 C 47.574219 69.589844 48.210938 69.339844 48.859375 69.234375 C 49.628906 69.191406 50.308594 68.71875 51.03125 68.46875 C 51.402344 68.277344 52.464844 67.714844 51.949219 67.242188 C 51.828125 67.152344 51.695312 67.09375 51.550781 67.125 C 51.015625 67.257812 50.46875 67.152344 49.878906 67.167969 C 49.996094 66.945312 50.191406 66.929688 50.351562 66.886719 C 51.179688 66.753906 51.84375 66.324219 52.035156 65.46875 C 52.300781 64.492188 50.101562 65.453125 49.671875 65.421875 C 48.757812 65.527344 47.871094 65.660156 46.953125 65.675781 C 46.628906 65.675781 46.304688 65.585938 45.976562 65.675781 C 45.5625 65.792969 45.136719 65.71875 44.722656 65.675781 C 44.070312 65.675781 43.421875 65.777344 42.757812 65.734375 C 42.046875 65.691406 41.367188 65.511719 40.660156 65.527344 C 40.257812 65.421875 39.875 65.277344 39.492188 65.171875 C 38.914062 65.011719 38.324219 64.90625 37.746094 64.789062 C 37.597656 64.757812 37.496094 64.683594 37.453125 64.539062 C 37.539062 64.476562 37.628906 64.492188 37.703125 64.523438 C 38.160156 64.671875 38.617188 64.804688 39.09375 64.90625 C 39.710938 64.980469 40.304688 65.21875 40.925781 65.230469 C 41.796875 65.144531 42.652344 65.601562 43.496094 65.15625 C 43.851562 65.453125 44.21875 65.039062 44.617188 65.082031 C 45.0625 65.070312 45.519531 65.054688 45.890625 64.730469 C 46.171875 64.949219 46.316406 64.699219 46.496094 64.550781 C 46.6875 64.640625 46.863281 64.671875 47.011719 64.476562 C 47.128906 64.332031 47.367188 64.492188 47.46875 64.359375 C 47.648438 64.125 47.898438 64.078125 48.164062 64.0625 C 48.695312 63.902344 49.230469 63.589844 49.628906 63.175781 C 49.894531 62.984375 50.25 62.941406 50.410156 62.617188 C 50.46875 62.527344 50.558594 62.46875 50.664062 62.4375 C 51.003906 62.320312 51.253906 62.070312 51.476562 61.789062 C 51.742188 61.433594 52.109375 61.152344 52.421875 60.84375 C 52.628906 60.679688 52.539062 60.371094 52.257812 60.398438 Z M 46.066406 67.789062 C 46.125 67.730469 46.183594 67.742188 46.257812 67.789062 C 46.230469 67.9375 46.023438 67.890625 46.066406 67.789062 Z M 46.066406 67.789062 " fill-opacity="1" fill-rule="nonzero"/></svg>