<svg width="46" height="27" viewBox="0 0 46 27" fill="none" xmlns="http://www.w3.org/2000/svg">
<mask id="mask0_25_1128" style="mask-type:luminance" maskUnits="userSpaceOnUse" x="0" y="0" width="46" height="27">
<path d="M0 0H45.3333V26.6667H0V0Z" fill="white"/>
</mask>
<g mask="url(#mask0_25_1128)">
<mask id="mask1_25_1128" style="mask-type:luminance" maskUnits="userSpaceOnUse" x="-5" y="-15" width="53" height="53">
<path d="M24.5833 -14.6667L47.9792 14.3542L18.9635 37.75L-4.4375 8.73437L24.5833 -14.6667Z" fill="white"/>
</mask>
<g mask="url(#mask1_25_1128)">
<mask id="mask2_25_1128" style="mask-type:luminance" maskUnits="userSpaceOnUse" x="-5" y="-15" width="53" height="53">
<path d="M24.5833 -14.6667L47.9792 14.3542L18.9635 37.75L-4.4375 8.73437L24.5833 -14.6667Z" fill="white"/>
</mask>
<g mask="url(#mask2_25_1128)">
<path d="M8.27083 19.0573C8.38541 19.0521 8.5 19.0469 8.61458 19.0365C8.4427 18.9062 8.27604 18.7656 8.11458 18.6302C8.02083 18.5573 7.93229 18.4792 7.84375 18.4115C7.38541 18.0417 6.92708 17.7552 6.41146 17.4792C6.9375 17.8854 7.47916 18.2917 8.03125 18.6667C8.16666 18.7604 8.25 18.8958 8.27083 19.0573ZM10.1302 18.849C10.5469 18.7865 10.9479 18.7344 11.3333 18.7187C13.1094 18.6302 15.0833 18.5573 17.099 18.5833C16.7135 18.0104 16.2656 17.4844 15.7604 17.0104C15.5312 17 15.3021 16.9844 15.0729 16.9687C15.2448 17.224 15.3958 17.4687 15.526 17.6667C15.5781 17.7552 15.6042 17.849 15.6042 17.9479C15.599 18.1771 15.4375 18.3906 15.2135 18.4635C15.0052 18.5365 14.7812 18.4687 14.651 18.2969C14.5573 18.1719 14.4583 18.0469 14.3594 17.9167C14.0885 17.5573 13.8073 17.1875 13.5104 16.849C13.0521 16.8073 12.5937 16.7604 12.1406 16.7083C12.5469 17.1042 13.0573 17.6458 13.0469 18.1927C13.0469 18.2448 13.0417 18.2969 13.0312 18.349C12.9948 18.5156 12.8177 18.6458 12.651 18.625C12.1771 18.5625 11.8281 18.151 11.5208 17.7865C11.401 17.6458 11.2917 17.5156 11.1927 17.4323C10.8958 17.1667 10.5937 16.9375 10.276 16.7292C10.2396 16.8646 10.1354 16.974 9.99479 17.026C9.82812 17.0833 9.64583 17.0312 9.53646 16.8958C9.375 16.6927 9.23437 16.4948 9.11979 16.2917C7.6875 16.0781 6.38541 15.9583 5.14062 15.9167C4.9427 15.9115 4.73958 15.9167 4.53646 15.9271C4.8125 16.1042 5.05729 16.3333 5.28125 16.5417C5.28125 16.5365 5.28125 16.526 5.28125 16.5208C5.28646 16.375 5.35416 16.224 5.47916 16.1198C5.59896 16.0156 5.75 15.9635 5.89583 15.9792C6.72396 16.0781 7.4427 16.5625 8.03646 17.026L8.30208 17.2292C8.94792 17.7292 9.61458 18.2396 10.1302 18.849ZM18.0573 18.599C18.6094 18.6146 19.1667 18.6406 19.7187 18.6719C19.5729 18.5417 19.4271 18.4062 19.2812 18.2708C18.8594 17.8802 18.4271 17.4792 17.9687 17.1302C17.776 17.1198 17.5833 17.1094 17.3906 17.099C17.6354 17.401 17.8594 17.7135 18.0573 18.0208C18.1146 18.1146 18.1458 18.224 18.1458 18.3229C18.1406 18.4271 18.1094 18.5208 18.0573 18.599ZM21.6927 18.8229C21.349 18.5521 21 18.276 20.6354 18.0312C20.724 18.1406 20.7656 18.2604 20.7604 18.3906C20.7604 18.5208 20.7135 18.6406 20.6302 18.7396C20.6302 18.7396 21.3646 18.7969 21.6927 18.8229ZM23.2031 18.9323C23.4792 18.9479 23.7604 18.9635 24.0365 18.9792C23.651 18.6771 23.2396 18.4115 22.8021 18.1771C22.75 18.151 22.6979 18.1198 22.6406 18.0937C22.7604 18.1979 22.8854 18.3021 23.0052 18.4062C23.1458 18.526 23.2135 18.6719 23.2135 18.8385C23.2083 18.8698 23.2083 18.901 23.2031 18.9323ZM26 19.0521C25.8281 18.9167 25.6406 18.7969 25.4427 18.6823C25.4844 18.7187 25.526 18.7604 25.5677 18.8021C25.6354 18.875 25.6875 18.9583 25.7083 19.0469C25.8073 19.0469 25.9062 19.0521 26 19.0521ZM28.1198 17.4948C28.3542 17.7344 28.5833 17.9635 28.8333 18.1719C28.8229 17.9271 28.8125 17.6875 28.7969 17.4479C28.6302 17.474 28.4115 17.4896 28.1198 17.4948ZM31.1875 24.3906C31.2552 24.3594 31.3229 24.3281 31.3958 24.2969C31.0885 23.6979 30.9687 22.9583 30.9167 22.3073C30.8437 22.349 30.776 22.3906 30.7031 22.4271C30.7969 22.9635 30.9271 23.5312 31.0937 24.1146C31.1198 24.2031 31.151 24.2969 31.1875 24.3906ZM33.4167 23.1042C33.5781 22.9896 33.7396 22.8698 33.8958 22.7448C33.8646 22.526 33.8333 22.3177 33.7865 22.1146C33.7344 21.8802 33.6771 21.6458 33.6146 21.4115C33.5521 21.1562 33.4896 20.9062 33.4323 20.651C33.2604 20.7812 33.0885 20.901 32.9219 21.0208C32.9219 21.026 32.9219 21.0312 32.9219 21.0312C32.974 21.6823 33.1667 22.3333 33.3229 22.8333C33.349 22.9167 33.3802 23 33.4115 23.0833C33.4115 23.0885 33.4167 23.099 33.4167 23.1042ZM35.125 21.7083C35.1198 21.6875 35.1094 21.6667 35.1042 21.6458C35.0729 21.5417 35.0469 21.4323 35.0104 21.3281C34.8646 20.8802 34.6927 20.3594 34.4635 19.849C34.4427 19.8646 34.4167 19.8854 34.3958 19.9062C34.4167 19.9427 34.4323 19.9792 34.4479 20.0208C34.5052 20.2031 34.5781 20.4062 34.651 20.6146C34.7812 20.9792 34.9219 21.3802 35.0365 21.7865C35.0677 21.7604 35.0937 21.7344 35.125 21.7083ZM36.2031 20.7187C36.1146 20.5365 36.0417 20.349 35.9687 20.1771L35.901 20.0156C35.7708 19.6979 35.6302 19.3437 35.5156 18.9635C35.4792 18.9948 35.4427 19.026 35.4062 19.0573C35.7083 19.6458 35.9427 20.2083 36.1302 20.7708C36.1354 20.7708 36.1354 20.776 36.1354 20.7812L36.2031 20.7187ZM36.4323 18.1406C36.5312 18.3542 36.625 18.5677 36.7135 18.7812C36.6354 18.526 36.5677 18.2917 36.5104 18.0677C36.4844 18.0937 36.4583 18.1146 36.4323 18.1406ZM38.2135 18.9531C38.0208 18.6667 37.8958 18.3333 37.7812 18.026C37.75 17.9427 37.7187 17.8594 37.6875 17.7812C37.625 17.6198 37.5573 17.4427 37.4948 17.2552C37.5937 17.6979 37.7552 18.125 37.9219 18.5729C37.9844 18.7292 38.0417 18.8854 38.099 19.0469C38.1354 19.0156 38.1719 18.9844 38.2135 18.9531ZM40.2604 17.401C40.1094 17.1823 40 16.9323 39.901 16.7031C39.8437 16.5833 39.7917 16.4583 39.7344 16.3542C39.5573 16.026 39.3802 15.6823 39.2187 15.3229C39.1927 15.349 39.1667 15.375 39.1458 15.401C39.2865 15.9635 39.4896 16.5208 39.75 17.0625C39.8021 17.1719 39.8698 17.2865 39.9375 17.4062C39.9687 17.4635 40 17.5156 40.0312 17.5729C40.1094 17.5156 40.1875 17.4583 40.2604 17.401ZM40.0365 14.3802C40.0469 14.401 40.0573 14.4219 40.0677 14.4427C40.1875 14.75 40.3385 15.0365 40.4948 15.3229C40.3698 14.9948 40.276 14.6979 40.2031 14.4062C40.1875 14.3594 40.1823 14.3073 40.1875 14.2552C40.1875 14.2344 40.1875 14.2187 40.1875 14.1979C40.1406 14.2604 40.0885 14.3229 40.0365 14.3802ZM40.5625 13.7396C40.6094 13.724 40.651 13.7135 40.6979 13.7083C40.7448 13.7031 40.7865 13.7031 40.8229 13.7083C40.7969 13.6406 40.7708 13.5729 40.75 13.5052C40.6875 13.5833 40.625 13.6615 40.5625 13.7396ZM30.3906 21.0677C32.3021 19.9635 34.1927 18.4948 36.1615 16.5833C38.3385 14.4687 40.0208 12.4792 41.2917 10.5C41.3281 10.4479 41.375 10.3802 41.4271 10.3021C41.5833 10.0833 41.9115 9.61979 41.9167 9.39062C41.724 9.05729 41.3802 8.79166 41.0469 8.53125C40.9531 8.45833 40.8594 8.38541 40.776 8.3125C39.6823 7.42187 38.4375 6.55729 36.8542 5.60416C35.5469 4.8177 34.1615 4.11458 32.8229 3.43229C31.8646 2.9427 30.8802 2.4427 29.9219 1.91145C29.9479 2.47395 29.9687 3.05729 29.9531 3.63541C29.9479 4.1302 29.9167 4.58333 29.8646 5.01041C29.9323 5.09374 29.9687 5.20312 29.9687 5.3177C29.9635 5.54166 29.8073 5.71875 29.5885 5.75L29.526 5.76041C29.4531 5.79166 29.3646 5.80208 29.2812 5.79166C24.6875 6.40625 19.8646 6.13541 15.6094 5.89583C13.4115 5.77083 11.0833 5.71874 8.28646 5.71874C6.22916 5.72395 4.36458 5.70833 2.49479 5.5C2.46875 5.52604 2.44791 5.54687 2.42187 5.5677L2.41666 5.57291C2.44791 6.02604 2.46354 6.48437 2.47396 6.93229C2.48958 7.51562 2.5052 8.11979 2.5625 8.70833C2.59896 9.01562 2.63541 9.32291 2.67187 9.6302C2.75 10.3229 2.83333 11.0365 2.875 11.75C2.91666 12.4375 2.96875 13.2552 3.0625 14.0833C3.0677 14.1667 3.07812 14.276 3.08333 14.401C3.1875 14.4583 3.27083 14.5521 3.32291 14.6615C3.64583 14.6615 3.98437 14.6302 4.3125 14.6042C4.70833 14.5729 5.11458 14.5365 5.50521 14.5469C6.88021 14.5781 8.21875 14.7708 9.33854 14.9583C9.93229 15.0521 10.5625 15.1458 11.2552 15.2344C11.25 15.1562 11.2448 15.0781 11.2448 15C11.25 14.9531 11.25 14.9062 11.2552 14.8646C11.2656 14.6875 11.349 14.5365 11.4792 14.4323C11.6146 14.3281 11.7865 14.2917 11.9687 14.3229C12.3333 14.3906 12.6927 14.5365 13.0469 14.7656C13.0781 14.6458 13.1354 14.5417 13.224 14.4687C13.3385 14.3646 13.4844 14.3229 13.6406 14.3385C14.3594 14.4167 15.0052 14.8125 15.599 15.2969C16.1354 14.7865 16.9792 14.9323 18.1198 15.7292C18.1719 15.7656 18.224 15.8021 18.276 15.8385C18.7969 15.8698 19.3229 15.9062 19.8437 15.9375C21.7708 16.0677 23.7656 16.1979 25.6927 16.1615C26.1719 16.1562 26.6562 16.1927 27.125 16.2292C27.3021 16.2396 27.4792 16.2552 27.651 16.2656C28.099 16.2917 28.4271 16.3177 28.6719 16.349C28.6615 16.2656 28.6458 16.1875 28.6302 16.1042C28.6198 16.0521 28.6146 16 28.6146 15.9479C28.6198 15.6042 28.8958 15.3177 29.2552 15.2865C29.599 15.2552 29.8854 15.4687 29.9531 15.8073C30.1406 16.7135 30.1615 17.6354 30.1875 18.5312C30.2083 19.4062 30.2292 20.2448 30.3906 21.0677ZM42.6146 14.7292C42.5833 14.651 42.5521 14.5729 42.5208 14.4948C42.4323 14.2708 42.349 14.0573 42.25 13.8698C42.0312 13.4375 41.7812 12.9896 41.5052 12.5104C41.4948 12.526 41.4844 12.5365 41.474 12.5521C41.4948 12.5885 41.5156 12.6198 41.5312 12.6615C41.7083 13.125 41.9427 13.5781 42.1719 14.0208L42.401 14.474C42.4635 14.5885 42.5208 14.7031 42.5781 14.8177C42.5885 14.7865 42.6042 14.7552 42.6146 14.7292ZM42.1562 11.5677C42.3646 11.8906 42.5781 12.2187 42.7865 12.5521C42.75 12.1562 42.7135 11.7448 42.651 11.3542C42.651 11.3542 42.5937 11.0104 42.5781 10.901C42.4479 11.1198 42.3021 11.3385 42.1562 11.5677ZM44.1146 13.5052C44.1094 13.8021 44.0677 14.0625 43.9948 14.3073C43.9792 14.3542 43.9583 14.401 43.9271 14.4375C43.9323 14.474 43.9323 14.5052 43.9323 14.5365C43.9271 14.625 43.9219 14.7135 43.901 14.8073C43.9583 15.0052 43.9844 15.1927 43.9792 15.3698C43.9792 15.401 43.974 15.4323 43.974 15.4635C43.9583 15.6458 43.8281 15.8073 43.651 15.8646C43.5781 15.8906 43.5052 15.8958 43.4323 15.8802C43.2448 16.1667 43 16.4687 42.6979 16.7969C42.5469 16.9583 42.3906 17.1146 42.2344 17.2708C42.2031 17.3177 42.1615 17.3542 42.1146 17.3854C41.5781 17.901 41.0104 18.375 40.3333 18.9167C40.2917 19 40.2344 19.0729 40.1615 19.125C40.1042 19.1667 40.0365 19.1927 39.9635 19.2083L39.401 19.6562C39.1042 19.8906 38.7969 20.1458 38.4427 20.4635C38.4375 20.6146 38.4167 20.7552 38.3698 20.8906C38.3073 21.0833 38.1458 21.2187 37.9479 21.2396C37.849 21.2552 37.7604 21.2396 37.6771 21.2031C37.6719 21.3802 37.5625 21.5469 37.3958 21.6302C37.3021 21.6771 37.2031 21.6979 37.1042 21.6823C37.1042 21.6823 36.7135 22.0521 36.5156 22.2292C36.5208 22.2656 36.5208 22.3021 36.5156 22.3333C36.5156 22.3958 36.5104 22.4583 36.5052 22.5156C36.4792 22.724 36.3281 22.901 36.125 22.9583C36 23 35.8698 22.9792 35.7604 22.9167C35.5885 23.0729 35.4115 23.224 35.2344 23.375C35.2187 23.5677 35.1823 23.7448 35.125 23.9062C35.0573 24.1042 34.8594 24.2448 34.651 24.2552C34.5104 24.2604 34.3906 24.2135 34.2969 24.125C33.3646 24.8229 32.4896 25.3281 31.5833 25.7031C31.5885 25.7604 31.5937 25.8125 31.5937 25.8698C31.5885 26.0781 31.4687 26.25 31.2865 26.3281C31.099 26.4115 30.8802 26.375 30.7292 26.2344C30.6042 26.1198 30.4948 25.9792 30.3958 25.8073C30.2448 25.6771 30.1562 25.4792 30.1615 25.2604C30.0573 24.9479 29.9896 24.6198 29.9271 24.3333L29.8854 24.1458C29.7812 23.6719 29.7031 23.1771 29.6354 22.651C29.4896 22.5677 29.375 22.4271 29.3177 22.2604C29.0573 21.4948 28.9531 20.7344 28.9062 20.0573C26.5521 20.5 24.1562 20.3177 21.8333 20.1406C21.0625 20.0833 20.2656 20.0208 19.4844 19.9844C15.9948 19.8229 12.7396 19.9115 9.80208 20.2448C9.67708 20.2604 9.55208 20.276 9.42187 20.2917C8.44271 20.4115 7.33333 20.5521 6.38021 20.2083C5.65625 19.9479 5.15104 19.4375 4.69791 18.9375C4.02604 18.1979 3.42187 17.4479 2.91146 16.7187C2.90104 16.7031 2.89062 16.6927 2.88021 16.6771C2.8125 16.6771 2.74479 16.6667 2.67708 16.6458C2.27604 16.5208 2.10937 16.151 2.03125 15.8906C1.72916 15.8073 1.53646 15.5573 1.54166 15.2448C1.54687 15.0104 1.66146 14.8021 1.83333 14.6771C1.75 14.026 1.68229 13.3229 1.63021 12.4948C1.55729 11.4219 1.44791 10.3542 1.35416 9.4375C1.33333 9.2552 1.3125 9.0677 1.29166 8.875C1.20312 8.05729 1.10416 7.20833 1.125 6.36979C1.1302 5.95833 1.16666 5.58854 1.22396 5.23958C1.21354 5.22916 1.20312 5.22396 1.19271 5.21354C1.05208 5.09375 0.968746 4.91666 0.973955 4.72395C0.979163 4.52604 1.06771 4.33333 1.21354 4.20312C1.34896 4.08333 1.51562 4.03125 1.6875 4.04687C4.40104 4.34896 7.17708 4.39062 9.86458 4.43229C11.7656 4.45833 13.7292 4.48958 15.6562 4.60937C19.1823 4.82812 22.7552 4.82812 26.2083 4.83333C27.0677 4.83333 27.9271 4.83333 28.7865 4.83854L28.7812 4.72395C28.7344 3.43229 28.6875 2.10416 28.5833 0.796871C28.5833 0.786455 28.5833 0.749996 28.5833 0.73958C28.5885 0.531247 28.7031 0.338537 28.8906 0.234371C29.099 0.11458 29.3437 0.10937 29.5417 0.223954C30.7031 0.874996 31.901 1.5 33.0625 2.09895C35.0104 3.10937 37.0208 4.15104 38.9062 5.375L39.0625 5.47395C40.2656 6.2552 41.6302 7.14062 42.6562 8.22395C42.7552 8.32812 42.8385 8.43229 42.9115 8.54166C42.9323 8.54166 42.9583 8.53645 42.9844 8.53645C43.2292 8.53125 43.4219 8.70312 43.4583 8.94791C43.5885 9.83854 43.7292 10.7187 43.9062 11.7656L43.9531 12.0573C44.0365 12.526 44.125 13.0156 44.1146 13.5052Z" fill="#545454"/>
</g>
</g>
</g>
</svg>
