<svg width="78" height="78" viewBox="0 0 78 78" fill="none" xmlns="http://www.w3.org/2000/svg">
<path d="M1.5 38.5674C1.5 39.7913 1.55729 41.0101 1.67708 42.2236C1.79687 43.4372 1.97396 44.6455 2.21354 45.8434C2.45313 47.0413 2.75 48.2236 3.10417 49.3903C3.45833 50.5622 3.86979 51.708 4.33333 52.8382C4.80208 53.9632 5.32292 55.0674 5.90104 56.1455C6.47396 57.2184 7.10417 58.2653 7.78125 59.2809C8.45833 60.2966 9.1875 61.2757 9.95833 62.2184C10.7344 63.1663 11.5521 64.0674 12.4167 64.932C13.2813 65.7966 14.1823 66.6143 15.1302 67.3903C16.0729 68.1611 17.0521 68.8903 18.0677 69.5674C19.0833 70.2445 20.1302 70.8747 21.2031 71.4476C22.2813 72.0257 23.3854 72.5466 24.5104 73.0153C25.6406 73.4788 26.7917 73.8903 27.9583 74.2445C29.125 74.5986 30.3073 74.8955 31.5052 75.1351C32.7031 75.3747 33.9115 75.5518 35.125 75.6716C36.3438 75.7913 37.5573 75.8538 38.7813 75.8538C40 75.8538 41.2188 75.7913 42.4375 75.6716C43.651 75.5518 44.8542 75.3747 46.0521 75.1351C47.25 74.8955 48.4323 74.5986 49.6042 74.2445C50.7708 73.8903 51.9219 73.4788 53.0469 73.0153C54.1771 72.5466 55.2813 72.0257 56.3542 71.4476C57.4323 70.8747 58.4792 70.2445 59.4948 69.5674C60.5104 68.8903 61.4896 68.1611 62.4323 67.3903C63.375 66.6143 64.2813 65.7966 65.1458 64.932C66.0052 64.0674 66.8281 63.1663 67.599 62.2184C68.375 61.2757 69.1042 60.2966 69.7813 59.2809C70.4583 58.2653 71.0833 57.2184 71.6615 56.1455C72.2396 55.0674 72.7604 53.9632 73.224 52.8382C73.6927 51.708 74.1042 50.5622 74.4583 49.3903C74.8125 48.2236 75.1094 47.0413 75.349 45.8434C75.5833 44.6455 75.7656 43.4372 75.8854 42.2236C76.0052 41.0101 76.0625 39.7913 76.0625 38.5674C76.0625 37.3486 76.0052 36.1299 75.8854 34.9163C75.7656 33.6976 75.5833 32.4945 75.349 31.2966C75.1094 30.0986 74.8125 28.9163 74.4583 27.7445C74.1042 26.5778 73.6927 25.4268 73.224 24.3018C72.7604 23.1716 72.2396 22.0726 71.6615 20.9945C71.0833 19.9163 70.4583 18.8695 69.7813 17.8538C69.1042 16.8382 68.375 15.859 67.599 14.9163C66.8281 13.9736 66.0052 13.0674 65.1458 12.2028C64.2813 11.3434 63.375 10.5205 62.4323 9.74967C61.4896 8.97363 60.5104 8.24447 59.4948 7.56738C58.4792 6.8903 57.4323 6.2653 56.3542 5.68717C55.2813 5.11426 54.1771 4.58822 53.0469 4.12467C51.9219 3.65592 50.7708 3.24447 49.6042 2.8903C48.4323 2.53613 47.25 2.23926 46.0521 1.99967C44.8542 1.7653 43.651 1.58301 42.4375 1.46322C41.2188 1.34342 40 1.28613 38.7813 1.28613C37.5573 1.28613 36.3438 1.34342 35.125 1.46322C33.9115 1.58301 32.7031 1.7653 31.5052 1.99967C30.3073 2.23926 29.125 2.53613 27.9583 2.8903C26.7917 3.24447 25.6406 3.65592 24.5104 4.12467C23.3854 4.58822 22.2813 5.11426 21.2031 5.68717C20.1302 6.2653 19.0833 6.8903 18.0677 7.56738C17.0521 8.24447 16.0729 8.97363 15.1302 9.74967C14.1823 10.5205 13.2813 11.3434 12.4167 12.2028C11.5521 13.0674 10.7344 13.9736 9.95833 14.9163C9.1875 15.859 8.45833 16.8382 7.78125 17.8538C7.10417 18.8695 6.47396 19.9163 5.90104 20.9945C5.32292 22.0726 4.80208 23.1716 4.33333 24.3018C3.86979 25.4268 3.45833 26.5778 3.10417 27.7445C2.75 28.9163 2.45313 30.0986 2.21354 31.2966C1.97396 32.4945 1.79687 33.6976 1.67708 34.9163C1.55729 36.1299 1.5 37.3486 1.5 38.5674Z" fill="#FFF7D8"/>
<path d="M1.5 38.5674C1.5 39.7913 1.55729 41.0101 1.67708 42.2236C1.79687 43.4372 1.97396 44.6455 2.21354 45.8434C2.45313 47.0413 2.75 48.2236 3.10417 49.3903C3.45833 50.5622 3.86979 51.708 4.33333 52.8382C4.80208 53.9632 5.32292 55.0674 5.90104 56.1455C6.47396 57.2184 7.10417 58.2653 7.78125 59.2809C8.45833 60.2966 9.1875 61.2757 9.95833 62.2184C10.7344 63.1663 11.5521 64.0674 12.4167 64.932C13.2813 65.7966 14.1823 66.6143 15.1302 67.3903C16.0729 68.1611 17.0521 68.8903 18.0677 69.5674C19.0833 70.2445 20.1302 70.8747 21.2031 71.4476C22.2813 72.0257 23.3854 72.5466 24.5104 73.0153C25.6406 73.4788 26.7917 73.8903 27.9583 74.2445C29.125 74.5986 30.3073 74.8955 31.5052 75.1351C32.7031 75.3747 33.9115 75.5518 35.125 75.6716C36.3438 75.7913 37.5573 75.8538 38.7813 75.8538C39.6406 75.8538 40.5052 75.8278 41.3542 75.7497C40.1875 75.6663 39.0313 75.5361 37.875 75.3434C36.724 75.1559 35.5833 74.9163 34.4583 74.6195C33.3281 74.3226 32.2135 73.9736 31.1198 73.5726C30.0208 73.1716 28.9479 72.7236 27.8906 72.2236C26.8385 71.7184 25.8073 71.1716 24.8073 70.5726C23.8073 69.9736 22.8333 69.3278 21.8906 68.6403C20.9479 67.9528 20.0417 67.2184 19.1667 66.4424C18.2969 65.6716 17.4583 64.8538 16.6615 64.0049C15.8646 63.1507 15.1146 62.2601 14.401 61.3382C13.6875 60.4111 13.0156 59.458 12.3958 58.4684C11.7708 57.4841 11.1979 56.4684 10.6667 55.4268C10.1406 54.3903 9.66146 53.3226 9.23437 52.2393C8.80729 51.1507 8.42708 50.0466 8.10417 48.9268C7.78125 47.807 7.51042 46.6716 7.29167 45.5257C7.07292 44.3799 6.91146 43.2236 6.80208 42.0622C6.6875 40.9007 6.63542 39.7341 6.63542 38.5674C6.63542 37.4007 6.6875 36.234 6.80208 35.0726C6.91146 33.9111 7.07292 32.7601 7.29167 31.6091C7.51042 30.4632 7.78125 29.333 8.10417 28.208C8.42708 27.0882 8.80729 25.9841 9.23437 24.9007C9.66146 23.8122 10.1406 22.7497 10.6667 21.708C11.1979 20.6663 11.7708 19.6559 12.3958 18.6663C13.0156 17.682 13.6875 16.7236 14.401 15.8018C15.1146 14.8747 15.8646 13.9893 16.6615 13.1351C17.4583 12.2809 18.2969 11.4684 19.1667 10.6924C20.0417 9.91634 20.9479 9.18717 21.8906 8.49447C22.8333 7.80697 23.8073 7.16113 24.8073 6.56738C25.8073 5.96842 26.8385 5.41634 27.8906 4.91634C28.9479 4.41634 30.0208 3.96322 31.1198 3.56217C32.2135 3.16113 33.3281 2.81217 34.4583 2.52051C35.5833 2.22363 36.724 1.97884 37.875 1.79134C39.0313 1.60384 40.1875 1.46842 41.3542 1.3903C40.5052 1.31217 39.6406 1.28613 38.7813 1.28613C37.5573 1.28613 36.3438 1.34342 35.125 1.46322C33.9115 1.58301 32.7031 1.7653 31.5052 1.99967C30.3073 2.23926 29.125 2.53613 27.9583 2.8903C26.7917 3.24447 25.6406 3.65592 24.5104 4.12467C23.3854 4.58822 22.2813 5.11426 21.2031 5.68717C20.1302 6.2653 19.0833 6.8903 18.0677 7.56738C17.0521 8.24447 16.0729 8.97363 15.1302 9.74967C14.1823 10.5205 13.2813 11.3434 12.4167 12.2028C11.5521 13.0674 10.7344 13.9736 9.95833 14.9163C9.1875 15.859 8.45833 16.8382 7.78125 17.8538C7.10417 18.8695 6.47396 19.9163 5.90104 20.9945C5.32292 22.0726 4.80208 23.1716 4.33333 24.3018C3.86979 25.4268 3.45833 26.5778 3.10417 27.7445C2.75 28.9163 2.45313 30.0986 2.21354 31.2966C1.97396 32.4945 1.79687 33.6976 1.67708 34.9163C1.55729 36.1299 1.5 37.3486 1.5 38.5674Z" fill="#EECDC6"/>
<path d="M64.5572 24.0054C64.8749 23.8491 65.1979 23.8283 65.5312 23.9377C65.8645 24.047 66.1145 24.2554 66.2812 24.5679C67.2656 26.495 68.0364 28.5002 68.5937 30.5939V30.5991C69.2864 33.2137 69.6354 35.87 69.6354 38.5679C69.6354 38.922 69.5104 39.2293 69.2604 39.4793C69.0104 39.7293 68.7031 39.8543 68.3489 39.8543C67.9947 39.8543 67.6927 39.7293 67.4427 39.4793C67.1874 39.2293 67.0624 38.922 67.0624 38.5679C67.0677 36.0939 66.7499 33.6564 66.1093 31.2606C65.6041 29.3439 64.8958 27.5002 63.9895 25.7345C63.8333 25.4168 63.8072 25.0887 63.9218 24.7554C64.0312 24.4168 64.2447 24.1668 64.5572 24.0054Z" fill="white"/>
<path d="M38.7812 7.71387C41.4843 7.71387 44.1406 8.05762 46.75 8.75033C47.0937 8.84408 47.3541 9.04199 47.5312 9.34929C47.7135 9.65658 47.7552 9.9847 47.6614 10.3285C47.5729 10.6722 47.3698 10.9326 47.0625 11.1097C46.7552 11.2868 46.4323 11.3285 46.0885 11.2399C43.6927 10.5993 41.2604 10.2816 38.7812 10.2868C38.427 10.2868 38.125 10.1618 37.8698 9.90658C37.6198 9.65658 37.4948 9.35449 37.4948 9.00033C37.4948 8.64616 37.6198 8.34408 37.8698 8.08887C38.125 7.83887 38.427 7.71387 38.7812 7.71387Z" fill="white"/>
<path d="M50.349 11.5726C50.349 11.9268 50.4792 12.2288 50.7292 12.4788C50.9792 12.7288 51.2813 12.8538 51.6355 12.8538C51.9896 12.8538 52.2969 12.7288 52.5469 12.4788C52.7969 12.2288 52.9219 11.9268 52.9219 11.5726C52.9219 11.2132 52.7969 10.9111 52.5469 10.6611C52.2969 10.4111 51.9896 10.2861 51.6355 10.2861C51.2813 10.2861 50.9792 10.4111 50.7292 10.6611C50.4792 10.9111 50.349 11.2132 50.349 11.5726Z" fill="white"/>
<path d="M38.7813 16.7139L18.2084 38.568L38.7813 60.4222V50.141H56.7813C57.1198 50.141 57.448 50.0732 57.7605 49.943C58.0782 49.8128 58.3542 49.6253 58.5938 49.3857C58.8386 49.141 59.0209 48.8649 59.1511 48.5524C59.2813 48.2347 59.349 47.9066 59.349 47.568V29.568C59.349 29.2295 59.2813 28.9014 59.1511 28.5889C59.0209 28.2712 58.8386 27.9951 58.5938 27.7555C58.3542 27.5107 58.0782 27.3285 57.7605 27.1982C57.448 27.0628 57.1198 27.0003 56.7813 27.0003H38.7813V16.7139Z" fill="#F5DEA8"/>
<mask id="mask0_80_33" style="mask-type:luminance" maskUnits="userSpaceOnUse" x="0" y="0" width="78" height="78">
<path d="M0.213501 0H77.3489V77.3333H0.213501V0Z" fill="white"/>
</mask>
<g mask="url(#mask0_80_33)">
<path d="M38.7812 0C40.0416 0 41.302 0.0625 42.5625 0.1875C43.8177 0.307292 45.0677 0.494792 46.3073 0.739584C47.5416 0.989584 48.7656 1.29167 49.9791 1.66146C51.1875 2.02604 52.375 2.45313 53.5416 2.9375C54.7083 3.41667 55.8489 3.95833 56.9635 4.55208C58.0781 5.15104 59.1562 5.79687 60.2083 6.5C61.2604 7.20313 62.2708 7.95313 63.25 8.75521C64.2239 9.55729 65.1614 10.401 66.052 11.2969C66.9479 12.1875 67.7916 13.125 68.5937 14.099C69.3958 15.0781 70.1458 16.0885 70.8489 17.1406C71.552 18.1927 72.1979 19.276 72.7968 20.3854C73.3906 21.5 73.9323 22.6406 74.4114 23.8073C74.8958 24.974 75.3229 26.1667 75.6875 27.375C76.0573 28.5833 76.3593 29.8073 76.6093 31.0469C76.8541 32.2813 77.0416 33.5313 77.1614 34.7865C77.2864 36.0469 77.3489 37.3073 77.3489 38.5677C77.3489 39.8333 77.2864 41.0938 77.1614 42.349C77.0416 43.6042 76.8541 44.8542 76.6093 46.0938C76.3593 47.3333 76.0573 48.5573 75.6875 49.7656C75.3229 50.974 74.8958 52.1615 74.4114 53.3281C73.9323 54.4948 73.3906 55.6354 72.7968 56.75C72.1979 57.8646 71.552 58.9479 70.8489 59.9948C70.1458 61.0469 69.3958 62.0625 68.5937 63.0365C67.7916 64.0104 66.9479 64.9479 66.052 65.8385C65.1614 66.7344 64.2239 67.5833 63.25 68.3854C62.2708 69.1823 61.2604 69.9375 60.2083 70.6354C59.1562 71.3385 58.0781 71.9896 56.9635 72.5833C55.8489 73.1771 54.7083 73.7188 53.5416 74.2031C52.375 74.6875 51.1875 75.1094 49.9791 75.4792C48.7656 75.8438 47.5416 76.151 46.3073 76.3958C45.0677 76.6406 43.8177 76.8281 42.5625 76.9531C41.302 77.0781 40.0416 77.1354 38.7812 77.1354C37.5156 77.1354 36.2552 77.0781 35 76.9531C33.7448 76.8281 32.4948 76.6406 31.2552 76.3958C30.0156 76.151 28.7916 75.8438 27.5833 75.4792C26.375 75.1094 25.1875 74.6875 24.0208 74.2031C22.8541 73.7188 21.7135 73.1771 20.5989 72.5833C19.4843 71.9896 18.401 71.3385 17.3541 70.6354C16.302 69.9375 15.2916 69.1823 14.3125 68.3854C13.3385 67.5833 12.401 66.7344 11.5104 65.8385C10.6145 64.9479 9.76559 64.0104 8.96871 63.0365C8.16663 62.0625 7.41142 61.0469 6.7135 59.9948C6.01038 58.9479 5.35933 57.8646 4.76559 56.75C4.17183 55.6354 3.63017 54.4948 3.14579 53.3281C2.66663 52.1615 2.23954 50.974 1.87496 49.7656C1.50517 48.5573 1.19788 47.3333 0.953085 46.0938C0.708293 44.8542 0.520793 43.6042 0.395793 42.349C0.276001 41.0938 0.213501 39.8333 0.213501 38.5677C0.213501 37.3073 0.276001 36.0469 0.401001 34.7917C0.526001 33.5313 0.713501 32.2865 0.958293 31.0469C1.20829 29.8073 1.51559 28.5833 1.88017 27.3802C2.24996 26.1719 2.67704 24.9844 3.16142 23.8177C3.64579 22.651 4.18225 21.5104 4.78121 20.3958C5.37496 19.2813 6.02079 18.2031 6.72392 17.151C7.42704 16.1042 8.17704 15.0885 8.97913 14.1146C9.78121 13.1354 10.6302 12.2031 11.5208 11.3073C12.4166 10.4167 13.3489 9.56771 14.3229 8.76563C15.302 7.96875 16.3125 7.21354 17.3645 6.51563C18.4114 5.8125 19.4948 5.16146 20.6093 4.56771C21.7239 3.96875 22.8593 3.43229 24.026 2.94792C25.1927 2.46354 26.3802 2.03646 27.5885 1.67187C28.7968 1.30208 30.0208 0.994792 31.2604 0.75C32.5 0.5 33.7448 0.3125 35 0.1875C36.2604 0.0625 37.5156 0 38.7812 0ZM38.7812 74.5677C39.9583 74.5677 41.1354 74.5104 42.3073 74.3906C43.4843 74.276 44.6458 74.1042 45.802 73.875C46.9583 73.6458 48.1041 73.3594 49.2291 73.0156C50.3593 72.6719 51.4687 72.276 52.5573 71.8281C53.6458 71.375 54.7083 70.8698 55.75 70.3177C56.7916 69.7604 57.802 69.1563 58.7812 68.5C59.7604 67.8438 60.7083 67.1406 61.6198 66.3958C62.526 65.6458 63.401 64.8542 64.2343 64.0208C65.0677 63.1875 65.8593 62.3177 66.6093 61.4063C67.3541 60.4948 68.0573 59.5469 68.7135 58.5677C69.3645 57.5885 69.9739 56.5781 70.526 55.5365C71.0833 54.5 71.5885 53.4323 72.0364 52.3438C72.4895 51.2552 72.8854 50.1458 73.2291 49.0208C73.5729 47.8906 73.8541 46.75 74.0885 45.5938C74.3177 44.4375 74.4895 43.2708 74.6041 42.099C74.7187 40.9219 74.776 39.75 74.776 38.5677C74.776 37.3906 74.7187 36.2135 74.6041 35.0417C74.4895 33.8646 74.3177 32.7031 74.0885 31.5469C73.8541 30.3906 73.5729 29.25 73.2291 28.1198C72.8854 26.9896 72.4895 25.8802 72.0364 24.7917C71.5885 23.7031 71.0833 22.6406 70.526 21.599C69.9739 20.5625 69.3645 19.5521 68.7135 18.5677C68.0573 17.5885 67.3541 16.6458 66.6093 15.7344C65.8593 14.8229 65.0677 13.9479 64.2343 13.1146C63.401 12.2813 62.526 11.4896 61.6198 10.7448C60.7083 9.99479 59.7604 9.29167 58.7812 8.63542C57.802 7.98437 56.7916 7.375 55.75 6.82292C54.7083 6.26563 53.6458 5.76042 52.5573 5.3125C51.4687 4.85937 50.3593 4.46354 49.2291 4.11979C48.1041 3.78125 46.9583 3.49479 45.802 3.26042C44.6458 3.03125 43.4843 2.85937 42.3073 2.74479C41.1354 2.63021 39.9583 2.57292 38.7812 2.57292C37.6041 2.57292 36.427 2.63021 35.25 2.74479C34.0781 2.85937 32.9166 3.03125 31.7604 3.26042C30.6041 3.49479 29.4583 3.78125 28.3333 4.11979C27.2031 4.46354 26.0937 4.85937 25.0052 5.3125C23.9166 5.76042 22.8489 6.26563 21.8125 6.82292C20.7708 7.375 19.7604 7.98437 18.7812 8.63542C17.802 9.29167 16.8541 9.99479 15.9427 10.7448C15.0312 11.4896 14.1614 12.2813 13.3281 13.1146C12.4948 13.9479 11.7031 14.8229 10.9531 15.7344C10.2083 16.6458 9.50517 17.5885 8.84892 18.5677C8.19267 19.5521 7.5885 20.5625 7.03121 21.599C6.47913 22.6406 5.97392 23.7031 5.52079 24.7917C5.07288 25.8802 4.67704 26.9896 4.33329 28.1198C3.98954 29.25 3.70309 30.3906 3.47392 31.5469C3.24475 32.7031 3.07288 33.8646 2.95829 35.0417C2.8385 36.2135 2.78121 37.3906 2.78121 38.5677C2.78642 39.7448 2.84371 40.9219 2.95829 42.0938C3.07809 43.2708 3.24996 44.4323 3.47913 45.5885C3.7135 46.7448 3.99996 47.8854 4.34371 49.0156C4.68746 50.1406 5.08329 51.25 5.53642 52.3385C5.98433 53.4271 6.48954 54.4896 7.04683 55.5313C7.60413 56.5677 8.20829 57.5781 8.86454 58.5573C9.51559 59.5365 10.2187 60.4844 10.9687 61.3958C11.7135 62.3073 12.5052 63.1771 13.3385 64.0104C14.1718 64.8438 15.0416 65.6354 15.9531 66.3802C16.8645 67.1302 17.8125 67.8333 18.7916 68.4896C19.7708 69.1406 20.7812 69.75 21.8177 70.3021C22.8593 70.8594 23.9218 71.3646 25.0104 71.8177C26.0989 72.2656 27.2083 72.6667 28.3333 73.0052C29.4635 73.349 30.6041 73.6354 31.7604 73.8698C32.9166 74.099 34.0833 74.2708 35.2552 74.3906C36.427 74.5052 37.6041 74.5625 38.7812 74.5677Z" fill="#A4A68B"/>
</g>
<path d="M37.8438 15.8335C38.0261 15.6408 38.2448 15.5158 38.5 15.4585C38.7605 15.4012 39.0105 15.4221 39.2552 15.5158C39.5 15.6148 39.698 15.771 39.8438 15.9898C39.9948 16.2085 40.0677 16.4481 40.0677 16.7137V25.7137H56.7813C57.2917 25.7137 57.7813 25.8127 58.2553 26.0054C58.7292 26.2033 59.1459 26.4794 59.5053 26.8439C59.8698 27.2033 60.1459 27.62 60.3438 28.0939C60.5365 28.5679 60.6355 29.0575 60.6355 29.5679V47.5679C60.6355 48.0783 60.5365 48.5731 60.3438 49.0419C60.1459 49.5158 59.8698 49.9325 59.5053 50.2971C59.1459 50.6564 58.7292 50.9377 58.2553 51.1304C57.7813 51.3283 57.2917 51.4273 56.7813 51.4273H40.0677V60.4221C40.0677 60.6877 39.9948 60.9273 39.8438 61.146C39.698 61.3648 39.5 61.521 39.2552 61.62C39.0105 61.7189 38.7605 61.7398 38.5 61.6825C38.2448 61.6252 38.0261 61.5002 37.8438 61.3075L17.2761 39.4533C17.0417 39.2033 16.9271 38.9117 16.9271 38.5679C16.9271 38.2294 17.0417 37.9325 17.2761 37.6877L37.8438 15.8335ZM37.4948 57.1825V50.1408C37.4948 49.7867 37.6198 49.4794 37.8698 49.2294C38.125 48.9794 38.4271 48.8544 38.7813 48.8544H56.7813C57.1355 48.8544 57.4375 48.7294 57.6875 48.4794C57.9375 48.2242 58.0625 47.9221 58.0625 47.5679V29.5679C58.0625 29.2137 57.9375 28.9117 57.6875 28.6617C57.4375 28.4117 57.1355 28.2814 56.7813 28.2814H38.7813C38.4271 28.2814 38.125 28.1564 37.8698 27.9064C37.6198 27.6564 37.4948 27.3544 37.4948 27.0002V19.9533L19.974 38.5679L37.4948 57.1825Z" fill="#A4A68B"/>
</svg>
