<svg width="152" height="138" viewBox="0 0 152 138" fill="none" xmlns="http://www.w3.org/2000/svg">
<mask id="mask0_15_141" style="mask-type:luminance" maskUnits="userSpaceOnUse" x="0" y="0" width="152" height="138">
<path d="M152 0H0V137.333H152V0Z" fill="white"/>
</mask>
<g mask="url(#mask0_15_141)">
<path d="M135.068 6.05208H17.4115C11.4948 6.05208 6.65625 10.8906 6.65625 16.8021V88.0625C6.65625 93.9792 11.4948 98.8177 17.4115 98.8177H33.1823V130.281L71.2917 98.8177H135.073C140.984 98.8177 145.823 93.9792 145.823 88.0625V16.8021C145.823 10.8906 140.984 6.05208 135.068 6.05208Z" fill="#EECDC6"/>
<mask id="mask1_15_141" style="mask-type:luminance" maskUnits="userSpaceOnUse" x="0" y="0" width="152" height="137">
<path d="M0.604156 0H151.984V136.438H0.604156V0Z" fill="white"/>
</mask>
<g mask="url(#mask1_15_141)">
<path d="M33.1823 136.328C32.3073 136.328 31.4271 136.141 30.6042 135.755C28.4844 134.755 27.1354 132.625 27.1354 130.281V104.87H17.4114C8.14582 104.87 0.604156 97.3281 0.604156 88.0625V16.8021C0.604156 7.53646 8.14582 0 17.4114 0H135.073C144.339 0 151.875 7.53646 151.875 16.8021V88.0625C151.875 97.3281 144.339 104.87 135.073 104.87H73.4635L37.0364 134.948C35.9323 135.859 34.5625 136.328 33.1823 136.328ZM17.4114 12.099C14.8177 12.099 12.7031 14.2083 12.7031 16.8021V88.0625C12.7031 90.6563 14.8177 92.7708 17.4114 92.7708H33.1823C36.526 92.7708 39.2344 95.4792 39.2344 98.8177V117.443L67.4375 94.1563C68.526 93.2604 69.8854 92.7708 71.2917 92.7708H135.068C137.667 92.7708 139.776 90.6563 139.776 88.0625V16.8021C139.776 14.2083 137.667 12.099 135.068 12.099H17.4114Z" fill="#550155"/>
</g>
<path d="M29.2656 67.599C28.2656 67.599 27.7656 67.099 27.7656 66.099V44.4323C27.7656 43.4323 28.2656 42.9323 29.2656 42.9323H38.5313C40.6354 42.9323 42.4323 43.5625 43.8698 44.7969C44.401 45.2969 45.0365 45.8646 45.5 46.7344C45.9687 47.599 46.3021 48.7344 46.3021 50.2344V50.2656C46.3021 51.2969 45.9687 52.2656 45.5365 53.0313C45.099 53.8333 44.5 54.401 44 54.5677C44.4375 54.6667 45.3021 55.099 46.1042 56C46.901 56.901 47.5677 58.1667 47.7031 59.8021C47.7344 60.7344 47.6354 61.901 47.1667 63.0677C46.7031 64.2344 45.901 65.3698 44.8021 66.2031C43.7031 67.0365 42.2031 67.599 40.3021 67.599H29.2656ZM33.7656 48.5313V52.6667H38.1979C38.6979 52.6667 39.2656 52.5 39.6979 52.1667C40.099 51.8333 40.4323 51.3646 40.4323 50.6979C40.4323 49.599 39.8646 48.5313 38.5313 48.5313H33.7656ZM33.7656 57.7656V61.901H39.2344C40.4323 61.901 41.401 61.2656 41.401 59.8333C41.401 58.401 40.5 57.7656 39.0313 57.7656H33.7656Z" fill="#550155"/>
<path d="M58.5052 61.3021H67.3385C68.3385 61.3021 68.8385 61.8021 68.8385 62.8021V66.099C68.8385 67.099 68.3385 67.599 67.3385 67.599H53.7031C52.7031 67.599 52.2031 67.099 52.2031 66.099V44.4323C52.2031 43.4323 52.7031 42.9323 53.7031 42.9323H57.0052C58.0052 42.9323 58.5052 43.4323 58.5052 44.4323V61.3021Z" fill="white"/>
<path d="M84.2083 68.2031C80.6094 68.2031 77.4062 66.7344 75.0416 64.401C72.6719 62.0677 71.2396 58.8333 71.2396 55.2656C71.2396 51.6667 72.6719 48.4635 75.0416 46.099C77.4062 43.7292 80.6094 42.2969 84.2083 42.2969C87.776 42.2969 91.0104 43.7292 93.375 46.099C95.7448 48.4635 97.1771 51.6667 97.1771 55.2656C97.1771 58.8333 95.7448 62.0677 93.375 64.401C91.0104 66.7344 87.776 68.2031 84.2083 68.2031ZM84.2083 48.599C82.375 48.599 80.7083 49.3646 79.5104 50.5677C78.3073 51.7656 77.5416 53.4323 77.5416 55.2656C77.5416 57.099 78.3073 58.7656 79.5104 59.9688C80.7083 61.1667 82.375 61.901 84.2083 61.901C86.0416 61.901 87.7083 61.1667 88.9114 59.9688C90.1094 58.7656 90.8437 57.099 90.8437 55.2656C90.8437 53.4323 90.1094 51.7656 88.9114 50.5677C87.7083 49.3646 86.0416 48.599 84.2083 48.599Z" fill="#550155"/>
<path d="M113.615 68.1667C110.047 68.1667 106.812 66.7031 104.479 64.3698C102.146 62.0313 100.677 58.8333 100.677 55.2656C100.677 51.6979 102.146 48.4323 104.479 46.099C106.812 43.7656 110.047 42.3333 113.615 42.3333C117.083 42.3333 120.281 43.6302 122.682 46.0313C123.38 46.7969 123.281 47.5313 122.516 48.1667L119.88 50.2344C119.115 50.8646 118.547 50.7656 117.781 50.1302C116.583 49.1302 115.182 48.6302 113.615 48.6302C111.781 48.6302 110.115 49.3646 108.911 50.5677C107.714 51.7656 106.979 53.4323 106.979 55.2656C106.979 57.099 107.714 58.7656 108.911 60.0313C110.115 61.3021 111.781 62.1354 113.615 62.1354C115.047 62.1354 116.115 61.8333 116.917 61.4323C117.682 61.0677 118.151 60.599 118.417 60.3021V58.7031H114.312C113.312 58.7031 112.812 58.1979 112.812 57.1979V55.1354C112.812 54.1354 113.312 53.6354 114.312 53.6354H123.214C124.219 53.6354 124.714 54.1354 124.714 55.1354V61.1667C124.714 61.8646 124.583 62.4011 124.318 62.8333C122.182 66.0677 118.682 68.1667 113.615 68.1667Z" fill="white"/>
</g>
</svg>
