<svg width="89" height="100" viewBox="0 0 89 100" fill="none" xmlns="http://www.w3.org/2000/svg">
<mask id="mask0_66_316" style="mask-type:luminance" maskUnits="userSpaceOnUse" x="31" y="78" width="28" height="22">
<path d="M31.6667 78.333H58.3334V99.0622H31.6667V78.333Z" fill="white"/>
</mask>
<g mask="url(#mask0_66_316)">
<path d="M58.3021 81.5153C58.125 80.8486 57.8907 79.8278 57.125 79.6143C56.7917 79.5726 56.4375 79.5726 56.1042 79.6143C55.4948 79.6924 54.9063 79.9059 54.2605 79.807C53.8125 79.6924 53.4792 80.2184 53.0052 80.1038C52.5157 80.0257 52.0261 80.2028 51.5157 80.083C51.2969 80.0413 51.0469 80.2184 50.8282 80.182C50.5521 80.083 50.3177 80.182 50.0625 80.3174C49.9636 80.359 49.849 80.4372 49.75 80.4163C49.375 80.3174 49.0834 80.4736 48.75 80.5726C48.5938 80.6143 48.4375 80.6507 48.2761 80.5934C47.9427 80.4945 47.5938 80.5726 47.2605 80.6143C46.6511 80.7497 46.0052 80.6143 45.4167 80.8695C45.2605 80.9059 45.1198 81.0465 44.9844 81.0257C44.0625 80.9632 43.198 81.2028 42.2969 81.3174C41.2552 81.3174 40.1771 81.2393 39.1771 80.9268C38.8646 80.7705 38.5313 80.6924 38.198 80.6507C37.2136 80.6299 36.5886 79.6299 35.5677 79.8486C35.2917 79.9268 34.9792 79.984 34.6875 79.9059C34.2709 79.8486 33.1771 79.708 32.9375 80.0413C32.7605 80.4163 32.4688 80.7497 32.4115 81.182C32.349 81.5934 32.3907 81.984 32.823 82.2184C32.9011 82.2601 32.9584 82.3174 32.9792 82.3955C33.0365 82.6351 33.2136 82.7497 33.3907 82.8695C33.5886 82.9476 33.6667 83.2028 33.4115 83.2601C32.9219 83.4163 32.724 83.8695 32.4688 84.2601C31.448 85.458 32.5052 86.7705 33.4688 87.6143C33.349 88.1038 33.5261 88.557 33.8021 88.9684C33.9011 89.1247 33.9011 89.2809 33.9011 89.458C33.9011 89.9684 33.7448 90.5361 34.3334 90.8695C34.823 92.0101 39.4323 92.3434 40.7448 92.458C41.9636 92.4007 39.5105 94.557 40.4115 96.4007C40.5521 97.3226 41.1407 97.1663 41.5521 97.7965C41.5521 97.833 41.6302 97.8747 41.6667 97.8747C42.2761 97.932 42.3959 98.6768 42.9636 98.7965C44.6719 99.0882 47.2396 98.7965 48.1615 97.1299C48.3386 96.8174 48.1615 96.4424 48.0261 96.1455C47.6302 95.557 48.3959 95.5205 48.4375 94.9736C48.4375 94.8538 48.474 94.7549 48.5521 94.6768C48.9063 94.3434 48.5157 93.2236 48.1823 92.9684C48.1407 92.932 48.1198 92.8747 48.1823 92.7913C48.2188 92.7913 48.2605 92.7549 48.2969 92.7549C49.0052 92.932 49.7292 92.7549 50.4375 92.8903C51.1823 92.7549 51.9271 92.7132 52.6927 92.6195C53.6355 92.458 54.6146 92.4215 55.4948 91.9528C56.5782 91.458 57.1667 90.0882 56.5938 89.0101C56.5157 88.8695 56.4584 88.7132 56.5157 88.557C56.8698 87.6143 57.0469 87.3226 56.5157 86.4007C56.4011 86.1247 56.2448 85.9111 55.9115 85.8903C55.7917 85.8903 55.7136 85.8122 55.6719 85.6924C56.5157 84.9476 57.849 85.3382 57.1823 83.8122C57.0886 83.5726 56.8698 83.3955 56.9271 83.1247C57.2448 82.8695 57.5573 82.6143 57.9688 82.557C58.3438 82.4163 58.323 81.8486 58.3021 81.5153Z" fill="#D4C2EF"/>
</g>
<path d="M67.6979 45.1302C67.7396 45.0521 67.7188 44.9323 67.6771 44.8542C67.4636 44.4792 67.6771 44.1094 67.599 43.7136C67.6198 43.2084 67.3073 42.7136 67.5209 42.2032C67.5417 42.1459 67.5209 42.0469 67.4844 41.9688C67.3229 41.6563 67.3438 41.2657 67.0886 40.9896C67.0104 40.8907 67.0521 40.7761 67.0521 40.6771C66.9531 39.8542 66.8177 39.0261 66.3646 38.3229C66.1094 37.9479 66.2448 37.5 65.974 37.1459C65.6771 36.6354 65.5 36.0834 65.1875 35.5782C64.8906 35.1459 64.599 34.6927 64.4219 34.2032C64.3021 33.8907 64.2084 33.5365 63.9896 33.2813C63.5209 32.6354 62.9531 32.0834 62.4219 31.474C62.0104 30.75 61.2813 30.375 60.7344 29.7865C60.4792 29.4948 60.2448 29.1823 59.8334 29.0834C59.6563 29.0261 59.5 28.8854 59.4792 28.6927C59.4375 28.3959 59.2448 28.2969 58.9896 28.3177C58.7917 28.3177 58.599 28.2761 58.4792 28.1407C57.8125 27.6302 56.9896 27.1979 56.2448 26.9063C54.3021 26.099 52.3802 25.2969 50.2969 24.9636C49.2396 24.7657 48.1615 24.8646 47.1198 24.6094C46.9271 24.5521 46.6719 24.5104 46.474 24.6094C46.0834 24.8438 45.7292 24.6094 45.3386 24.6302C44.7656 24.7657 44.1771 24.7292 43.5886 24.7292C42.9427 24.8646 42.2969 25.099 41.6302 25.1615C41.1771 25.099 40.7448 25.1979 40.3542 25.4323C40.0417 25.6094 39.724 25.6875 39.375 25.5521C38.8802 25.4323 38.5313 24.8854 38 25.0052C37.099 25.1771 36.1771 25.1979 35.2917 25.4948C34.4479 25.5521 33.9011 26.3542 33.0156 26.3542C32.3334 26.6719 31.6823 27.0834 30.9792 27.3959C29.6042 27.9427 28.5625 29.0417 27.3698 29.8698C26.8021 30.4948 26.1146 30.9844 25.5261 31.5729C25.1511 32.1407 24.6823 32.5938 24.25 33.1042C23.8177 33.75 23.6042 34.5365 23.0521 35.1042C22.9948 35.1615 22.974 35.2813 22.9375 35.3594C22.5261 36.2604 22.3281 37.2448 21.9375 38.125C21.7969 38.4375 21.6406 38.7709 21.6198 39.1042C21.6198 39.6354 21.3073 40.0469 21.25 40.5365C21.25 41.2032 20.8386 41.7917 20.974 42.4792C20.6771 43.2084 20.9167 43.9532 20.7969 44.6979C20.6771 45.2865 20.7188 45.8959 20.8386 46.4636C21.0521 47.6771 21.1511 48.9167 21.4636 50.1302C21.5625 50.599 21.5052 51.1094 21.7604 51.5417C22.0521 52.0521 22.1875 52.6042 22.2865 53.1927C22.349 53.5625 22.4063 53.9375 22.6615 54.2292C22.7761 54.3698 22.8177 54.5625 22.8386 54.7604C23.0521 55.8177 23.6042 56.7604 23.875 57.8177C23.9167 57.9948 23.974 58.1511 24.0729 58.2917C24.3854 58.625 24.4479 59.0938 24.7031 59.4271C24.9948 59.7604 25.1511 60.1563 25.3281 60.5677C25.6615 61.4688 26.2292 62.2709 26.5469 63.1771C26.7031 63.7813 26.974 64.3334 27.349 64.8438C27.4479 65.1927 27.6615 65.4688 28.0365 65.6094C27.9792 65.9219 28.1146 66.1563 28.3125 66.3334C28.7813 66.7865 29.0365 67.4115 29.5469 67.8438C29.7604 68.0573 30.0938 68.2344 30.0365 68.6302C30.0365 68.6667 30.0573 68.724 30.0938 68.7448C30.5469 69.1979 30.6459 69.8854 31.1563 70.3125C31.2136 70.375 31.1927 70.4532 31.2136 70.5313C31.2917 71.0625 31.6667 71.474 31.7604 71.9844C32.1354 72.2761 32.1719 72.7657 32.4115 73.1407C32.6459 73.5104 32.7448 73.9636 32.8802 74.3959C33.0156 74.7865 33.0781 75.1771 33.0156 75.5729C32.9011 76.3542 32.9219 78.5313 34.2136 77.8073C34.5677 77.7084 34.9219 77.2604 35.2761 77.5521C36.1563 78.1823 37.2552 78.375 38.2969 78.6146C39.1198 78.8282 39.9219 78.7709 40.7656 78.6146C40.7448 78.4375 40.6459 78.3386 40.5677 78.2604C39.8229 77.4167 40.2344 76.2761 40.2969 75.2969C40.474 73.8854 40.5313 72.474 40.5313 71.0417C40.5313 69.9011 40.375 68.8229 40.3334 67.7084C40.2552 67.0782 40 66.5104 40.1406 65.8594C40.1771 65.625 40.099 65.4115 39.8438 65.3334C36.6459 64.5261 36.2552 64.0157 34.8438 61.0573C34.724 60.7813 34.6875 60.4896 34.5104 60.2344C33.5104 58.9584 32.9011 57.4271 32.625 55.8386C32.5052 54.9532 32.5677 54.0729 32.4896 53.1927C32.3698 52.6407 32.6667 52.1302 32.6667 51.5834C33.2136 50.5834 34.5261 50.1302 35.625 50.2865C36.0573 50.3646 36.5313 50.3282 36.8438 50.7604C36.9427 50.8959 37.1198 50.9532 37.2552 51.0521C37.9584 51.5052 38.3906 52.25 38.7865 52.974C39.099 53.6823 39.5521 54.3698 39.7865 55.0938C39.7865 55.5834 40.2188 55.8594 40.3542 56.2917C40.4115 56.4636 40.5677 56.625 40.5677 56.8386C40.5677 56.974 40.6302 57.1146 40.6875 57.25C40.7865 57.5625 41.0625 57.8177 41.099 58.1354C41.1563 59.2344 41.6094 60.2344 41.7448 61.3125C41.8229 61.8021 41.9636 62.3125 41.7865 62.8438C41.7084 63.0573 41.7448 63.3125 41.9011 63.5104C42.7292 63.4688 43.5104 63.2344 44.2969 63.0782C44.2969 62.8594 44.2188 62.7604 44.1615 62.625C43.8646 61.7604 44.7865 60.8802 45.5313 61.7032C46.2761 62.7448 47.3386 63.5104 48.474 64.0573C48.8281 63.625 48.6927 63.1927 48.7709 62.724C48.9063 62.3698 48.9063 62.0157 48.9271 61.6667C48.9636 60.6042 49.2396 59.6042 49.4375 58.5834C49.5156 58.1511 49.7709 57.7813 49.9063 57.3698C49.9844 57.1354 49.9063 56.8959 50.0417 56.7032C50.2188 56.4479 50.3177 56.1511 50.375 55.8386C50.474 55.4636 50.8281 55.2292 50.8698 54.8386C51.9063 52.974 53.4792 50.3073 55.4375 49.3438C55.6563 49.25 55.8906 49.0886 56.1042 49.4063C56.5781 49.4844 57.1042 49.5625 57.5573 49.7188C58.4375 49.9948 58.3229 51.2084 58.4375 51.974C58.5365 52.4636 58.3438 52.8386 58.2604 53.2865C58.125 54.4479 57.4792 55.4636 57.1823 56.5625C56.7917 58.2136 55.7709 59.6042 54.6354 60.8021C54.0052 61.3334 53.4167 62.2552 52.5156 62.1927C52.1406 62.1563 52.0625 61.8021 51.9688 61.5052C51.8698 61.2344 51.7136 60.9167 51.9844 60.6823C52.5729 60.1354 52.9688 59.4063 53.5729 58.8802C53.8125 58.6615 53.8698 58.3282 54.1042 58.1146C54.4948 57.7604 54.8125 57.3073 55.0052 56.8386C55.2604 56.2292 55.8281 55.7396 55.7709 54.9948C56.224 53.974 56.5938 53.0157 56.6719 51.8542C56.0261 52.0729 55.849 52.7396 55.3021 52.9532C54.9063 52.6823 54.9271 52.1875 54.6927 51.7969C53.4167 53.6615 52.474 55.6407 51.8854 57.8021C51.7917 58.3282 51.7292 58.8594 51.6511 59.3698C51.6146 59.6823 51.4167 59.9584 51.4375 60.2709C51.4948 60.9011 51.2604 61.4688 51.125 62.0573C51.0469 63.1927 50.7709 64.3334 50.9271 65.5104C50.8073 66.5313 50.8854 67.5677 50.8854 68.5886C50.8854 71.4323 50.4948 74.2188 50.8854 77.0625C51.3959 76.8646 52.0469 77.1407 52.4167 76.5313C52.7292 76.5938 53.0052 76.375 53.3177 76.4532C53.5365 76.5157 53.7292 76.4532 53.8906 76.3177C54.1615 76.0834 54.4948 76.1198 54.8125 76.0209C55.125 75.9427 55.3386 75.5938 55.75 75.5938C55.6563 76.099 55.849 76.6719 55.5573 77.1407C55.4584 77.2761 55.4375 77.4532 55.4584 77.5938C55.5781 78.0417 55.9896 79.3959 56.5938 78.9636C57.1823 78.4532 57.5938 77.8073 57.6354 77.0417C57.6719 76.3386 57.8334 75.6302 57.7344 74.9063C57.7344 74.6719 57.8906 74.4167 57.8334 74.1615C58.1459 72.474 58.6771 70.7448 58.9896 69.0417C59.1042 68.3542 59.224 67.6667 59.4219 67C59.6146 66.3334 59.6563 65.5677 60.1875 65.0365C60.3021 64.625 60.5365 64.2709 60.7917 63.9584C61.5573 62.8594 61.7344 61.4479 62.4792 60.349C62.6563 59.8229 62.9531 59.349 63.224 58.8594C63.3438 58.6615 63.3438 58.4063 63.5209 58.2917C63.8125 58.1146 63.9115 57.8177 64.0521 57.5469C64.2448 56.9167 64.7761 56.4479 64.8125 55.7604C64.8125 55.4271 64.974 55.0938 65.1667 54.8177C65.5 54.349 65.4636 53.6823 65.8542 53.2292C66.2084 52.7969 66.4011 52.3073 66.7188 51.8542C66.974 51.5417 66.9115 51.1511 66.9896 50.7969C67.3073 50.3854 67.2292 49.875 67.3438 49.4219C67.4427 48.8542 67.5209 48.2448 67.4636 47.6771C67.4636 47.4427 67.6979 47.2292 67.7188 46.9532C67.7188 46.6407 67.6563 46.3073 67.8542 46.0104C67.9115 45.7761 67.6771 45.5 67.8177 45.2448L67.6979 45.1302ZM26.7604 35.224C26.4479 35.8282 26.1302 36.4375 25.8386 37.0677C25.6615 37.4219 25.5834 37.8334 25.5625 38.1823C25.4636 38.8698 25.1511 39.4584 24.8386 40.0469C24.349 40.6771 24.9948 41.3802 24.6823 42.0469C24.3854 42.6198 24.8594 43.1875 24.6406 43.7344C24.6198 44.3646 24.5261 45.0104 24.3854 45.6198C24.3698 45.7344 24.349 45.875 24.3854 45.9896C24.6823 46.9532 24.1719 47.9532 24.4479 48.9323C24.5052 49.1875 24.5625 49.4844 24.4271 49.7552C24.3073 50.0521 24.5417 50.3282 24.6823 50.599C24.25 51.2084 24.7813 51.974 24.5261 52.6407C24.4479 52.8594 24.6406 53.0938 24.5417 53.3282C24.4479 53.2865 24.4063 53.2084 24.3854 53.1511C24.2865 52.5052 23.8594 51.9375 23.7188 51.3073C23.3073 49.1667 23.4271 47.0313 23.3281 44.875C23.3073 44.5573 23.5052 44.224 23.4844 43.9115C23.4479 43.3438 23.6615 42.7761 23.5417 42.1875C23.5261 42.0677 23.5625 41.9688 23.6198 41.8698C23.8386 41.5365 23.875 41.1667 23.7969 40.7917C23.6198 40.2657 24.1927 39.9896 24.1719 39.4792C24.2865 38.849 24.1511 38.0886 24.6198 37.5573C25.1146 37.0886 25.1146 36.3594 25.5261 35.849C25.8177 35.5782 25.9584 35.0834 26.3073 34.8698C27.0156 34.5938 26.8802 33.6146 27.7031 33.4375C27.3698 34.0261 27.0365 34.5938 26.7396 35.1823L26.7604 35.224ZM29.1354 31.8854C29.1719 31.7292 29.2709 31.6719 29.4688 31.7292C29.3698 31.8698 29.2917 31.9063 29.1354 31.8854ZM48.1979 53.5052C48.0261 53.7969 48.0625 54.0938 48.0625 54.4063C48.0625 54.9532 47.849 55.4479 47.6094 55.9167C47.1406 56.9167 46.6511 58.6042 45.2604 58.4063C45.1406 58.3125 45.1406 58.1927 45.1615 58.0938C45.1979 57.9167 45.1979 57.7396 45.2761 57.5834C45.7084 56.6042 45.9427 55.5834 46.2396 54.5625C46.4167 53.9375 46.1615 53.2865 46.2188 52.6615C46.2396 52.4271 46.2188 52.4271 46.0625 52.1719C45.4531 52.3646 44.6302 52.0157 44.9219 51.2865C44.9219 51.2292 44.9636 51.1719 44.9636 51.1094C44.8854 50.0521 45.5313 49.4219 46.2761 48.8542C47.4167 48.5209 47.849 50.7604 47.9427 51.5625C48.0052 52.1875 48.2604 52.875 48.1823 53.5052H48.1979Z" fill="white"/>
<path d="M49.2032 75.7497C49.1407 75.2184 49.1823 74.6715 49.0417 74.1403C48.7292 72.807 48.8855 71.432 48.6302 70.0778C48.6719 69.1768 48.4167 68.2549 48.5157 67.3538C48.573 66.6663 48.474 65.9997 48.4167 65.2757C46.9063 65.3538 45.6719 64.7809 44.6094 63.6455C44.0209 64.5674 43.1407 64.9997 42.2396 65.3538C42.4323 67.4528 42.5105 69.4528 42.1771 71.5101C41.7865 73.8434 42.1563 76.3382 41.1771 78.5153C41.5677 78.6924 41.9427 78.8486 42.3177 78.5153C42.8438 78.3955 43.4323 78.359 43.9844 78.4372C44.1407 78.4736 44.3177 78.4945 44.4323 78.4163C44.6719 78.2393 44.9636 78.2601 45.2188 78.182C45.6094 78.0622 46.0209 78.0622 46.3959 77.8851C46.8073 77.6924 47.3177 77.708 47.7084 77.4372C48.2605 77.4528 48.8073 77.2601 49.3594 77.3382C49.5157 76.7653 49.1615 76.3538 49.1615 75.7861L49.2032 75.7497Z" fill="white"/>
<mask id="mask1_66_316" style="mask-type:luminance" maskUnits="userSpaceOnUse" x="0" y="31" width="15" height="10">
<path d="M0.161499 31.667H14.3334V41.0003H0.161499V31.667Z" fill="white"/>
</mask>
<g mask="url(#mask1_66_316)">
<path d="M7.89065 38.9481C8.47919 39.1043 9.12502 39.0679 9.71356 39.3231C10.5209 39.5366 11.4011 39.4793 12.1875 39.8335C12.599 39.9324 13.7344 40.3022 13.8334 39.6929C13.8906 39.4376 13.9896 39.1824 13.9688 38.9116C13.9688 38.6929 13.9688 38.4793 14.1459 38.3022C14.4792 37.5939 13.4011 36.5783 12.8125 36.3595C11.4427 35.7501 10.224 34.9481 9.02606 34.047C8.10419 33.5366 7.20315 33.0262 6.32294 32.4585C5.89065 32.2189 4.18231 31.1251 4.31773 32.2189C4.31773 32.4585 4.45835 32.672 4.41669 32.9481C3.65106 32.8908 2.90627 32.4949 2.33856 33.1616C2.20315 33.1616 2.08335 33.0626 1.9271 33.1251C1.65106 33.4585 1.80731 33.9689 1.72919 34.3595C1.43752 36.2814 3.89065 35.0679 4.18231 35.8699C4.02606 35.9689 3.89065 35.9116 3.79169 35.8699C2.72919 35.5939 1.57294 35.7501 0.750021 36.5001C0.552104 36.6929 0.16148 37.1043 0.437521 37.3804C0.927104 37.8335 1.49481 38.1824 2.16148 38.2241C2.53648 38.2449 2.9271 38.2241 3.28127 38.3231C4.81252 38.6929 6.41669 38.3231 7.89065 38.9324V38.9481Z" fill="#F6D46B"/>
</g>
<path d="M19.4844 20.1768C19.5833 20.1977 19.7552 20.1768 19.7761 20.2758C19.8386 20.63 20.2083 20.7081 20.3281 20.9998C20.6771 21.7081 21.7604 20.9633 22.1511 21.6508C22.3646 21.9425 23.2083 22.9425 23.5625 22.8435C23.7969 22.7862 24.0156 22.7862 24.25 22.8435C24.7188 22.9633 24.6406 22.4737 24.8958 22.2393C25.1146 22.0414 24.7396 21.1196 24.5625 20.9216C24.5052 20.1768 23.9948 19.63 23.7969 18.9425C23.6406 18.4112 23.4636 17.8643 23.1719 17.3539C22.6042 16.3539 22.3073 15.2133 21.7761 14.1925C21.0938 13.156 20.7761 11.0154 19.1511 11.2498C18.7552 11.3487 18.4844 11.0571 18.1511 10.9164C17.0886 10.4268 17.3438 12.3123 16.8542 12.7602C16.3229 12.156 15.0313 11.9373 14.8333 12.9216C14.7969 13.6664 14.2656 14.7446 15.1667 15.1768C15.8125 15.4112 15.4011 15.7237 15.7344 16.0362C16.0521 16.255 16.2083 16.6248 16.5208 16.8435C16.6771 16.9581 16.7552 17.0987 16.8177 17.2914C16.9323 17.8435 17.3438 18.1352 17.7969 18.4112C18.2865 19.0414 18.6771 19.9425 19.4844 20.1977V20.1768Z" fill="#F6D46B"/>
<mask id="mask2_66_316" style="mask-type:luminance" maskUnits="userSpaceOnUse" x="42" y="0" width="9" height="16">
<path d="M42.3334 0.791992H50.3334V15.667H42.3334V0.791992Z" fill="white"/>
</mask>
<g mask="url(#mask2_66_316)">
<path d="M43.1615 3.97396C43.1771 4.01562 43.1979 4.07292 43.1615 4.11458C43 4.50521 43.2396 4.83854 43.2969 5.20833C43.3177 5.38542 43.4115 5.52604 43.4532 5.70312C43.9063 7.76042 44.5729 9.76041 45.0834 11.7812C45.0834 12.4271 45.6094 12.7812 45.75 13.349C45.75 13.724 45.9427 14.0365 46.099 14.3542C46.2761 14.7448 47.1407 15.1354 47.375 14.7031C47.375 14.3698 47.6302 14.1354 47.7084 13.8437C48.4375 11.1563 48.9636 8.42708 49.5157 5.70312C49.6927 4.78125 49.75 3.83854 49.7865 2.91667C49.7865 2.69792 49.7709 2.48437 49.6302 2.30729C49.4948 2.25 49.375 2.38542 49.2188 2.27083C49.1615 1.52083 48.2969 1.38542 47.9844 0.796875C47.1198 1.25 46.5938 0.953125 45.9844 1.9375C45.5729 1.73958 45.2396 1.48437 44.7865 1.48437C44.6094 1.85417 44.1615 1.99479 44 2.42708C43.5521 2.20833 42.9427 2.03125 43.0417 2.71875C43.0782 3.13021 42.9427 3.5625 43.1615 3.95312V3.97396Z" fill="#F6D46B"/>
</g>
<mask id="mask3_66_316" style="mask-type:luminance" maskUnits="userSpaceOnUse" x="75" y="33" width="14" height="10">
<path d="M75.6667 33H88.5053V42.3333H75.6667V33Z" fill="white"/>
</mask>
<g mask="url(#mask3_66_316)">
<path d="M87.823 38.7137C87.5886 38.4012 87.6094 37.9689 87.3699 37.6564C87.3334 37.6147 87.3699 37.5001 87.4115 37.4376C87.6251 36.6928 87.0365 36.4012 86.5469 36.0053C86.6876 35.8126 86.9219 35.7918 87.0209 35.6147C87.4532 34.8907 86.8021 33.8907 85.9428 34.1616C85.5886 34.2605 85.2344 34.3803 84.8438 34.3022C84.724 34.2814 84.5469 34.3022 84.4897 34.3595C83.8594 34.7918 83.1355 35.047 82.4688 35.3595C82.0365 35.5366 81.6667 35.9116 81.1563 35.9116C80.6615 36.2814 80.073 36.4585 79.5053 36.672C78.7813 36.9689 78.0365 37.2449 77.349 37.6147C76.8386 37.8699 76.8386 37.8907 76.8959 38.4585C76.0365 38.9324 77.448 41.3803 78.3699 41.1251C78.8386 41.2241 79.2917 41.323 79.7397 41.146C79.8386 41.1095 79.9584 41.0314 80.0574 41.0887C80.349 41.2241 80.5678 41.0887 80.7813 40.8699C81.448 41.422 82.1563 40.6772 82.8803 40.948C82.9376 40.948 83.0157 40.948 83.0574 40.9324C83.5261 40.6355 84.0574 40.9897 84.5678 40.8335C85.4897 40.6147 86.4324 40.7345 87.3542 40.6147C87.5313 40.6147 87.6667 40.5574 87.7449 40.4012C88.0782 39.7553 88.2761 39.3803 87.8022 38.7553L87.823 38.7137Z" fill="#F6D46B"/>
</g>
<path d="M84.1146 63.1927C83.8802 63.0365 83.526 63.1146 83.3698 62.8802C83.4115 62.7448 83.5886 62.7448 83.6667 62.5677C83.3333 62.2917 83.0156 62.0365 82.5677 62.0157C80.7031 61.9792 79.1719 60.9011 77.4688 60.2917C77.1719 60.1719 76.8958 60.0157 76.5833 60.0157C76.4636 60.0157 76.3698 59.9584 76.2917 59.8802C75.9948 59.5261 75.625 59.5469 75.2292 59.7032C74.5833 59.9948 73.3281 60.724 73.9948 61.5261C74.3073 61.8594 74.4271 62.3334 74.8177 62.5886C75.1927 62.9011 75.6615 63.1355 75.9167 63.5886C76.1511 63.7657 76.4688 63.823 76.5625 64.1563C76.6042 64.2552 76.7031 64.3334 76.8021 64.3907C77.2292 64.5886 77.4271 64.9792 77.7031 65.2917C78.349 66 79.1354 66.5886 79.6823 67.3698C79.7396 67.4896 79.8229 67.5886 79.9375 67.6459C80.6615 68.0573 81.349 69.6302 82.2917 68.8438C82.8438 68.1563 83.9792 68.6875 84.0781 68.0782C84.1563 67.6875 84.3125 67.3125 84.5677 66.9792C84.8229 66.6459 84.7813 66.1771 85.0365 65.823C85.0781 65.6459 84.9375 65.4115 85 65.2344C85.3906 64.9584 85.4688 64.8594 85.3125 64.5886C85.0208 64.0573 84.6875 63.5469 84.1146 63.2552V63.1927Z" fill="#F6D46B"/>
<path d="M78.5625 13.979C78.4271 13.5675 78.0729 13.3123 77.724 13.1353C76.9375 12.7238 76.7813 11.7603 75.974 11.3488C75.4636 11.0155 75.0729 11.0571 74.6406 11.4894C74.5052 11.6248 74.3281 11.8228 74.1511 11.8228C73.8958 11.8228 73.7604 11.979 73.5833 12.078C73.3646 11.8592 73.4271 11.4894 73.0729 11.3332C72.3073 12.9217 71.6615 14.5259 70.8386 16.078C70.4427 16.8019 70.1302 17.5675 69.6771 18.2759C69.3854 18.7446 69.0521 19.1769 68.875 19.7446C68.4844 21.0415 68.5625 21.2967 69.7188 21.9998C69.9323 22.1561 70.2083 22.255 70.4427 22.0623C70.9531 21.729 71.3073 21.2186 71.875 20.979C72.2292 20.8436 72.6042 20.7082 72.7761 20.2967C72.8386 20.1561 72.9948 20.1405 73.1302 20.0988C73.4271 20.0415 73.6406 19.9009 73.7813 19.6092C73.8594 19.4321 73.974 19.2967 74.1927 19.2342C74.2865 19.2186 74.349 19.1353 74.4063 19.078C74.7813 18.7238 74.9948 18.2134 75.4844 17.9582C75.5417 17.9217 75.5833 17.8436 75.625 17.7863C76.2708 16.9425 77.1927 16.354 77.8958 15.5884C78.25 15.1561 78.9375 15.0363 78.9011 14.354C78.7604 14.2134 78.5833 14.1561 78.5261 13.979H78.5625Z" fill="#F6D46B"/>
<path d="M17.3646 60.0152C17.0729 60.1142 16.7969 60.2496 16.4844 60.0152C16.0677 59.7027 15.5625 59.6454 15.0886 59.5256C14.974 59.484 14.8333 59.5048 14.7188 59.5465C13.2865 60.1559 11.8906 60.9163 10.4011 61.3121C10.125 61.3694 9.81252 61.3329 9.59897 61.5465C9.35939 61.76 9.10418 61.859 8.79168 61.8798C8.47918 61.9163 8.26043 62.1715 7.94793 62.2548C6.81252 62.4892 7.33856 65.4319 8.18231 65.0204C8.50002 64.8225 8.6771 64.4683 9.12502 64.51C9.12502 64.7027 9.02606 64.8017 8.93231 64.859C8.53647 65.0777 8.51564 65.51 8.35939 65.859C8.02606 67.3538 9.20314 67.0986 10.224 67.0777C10.6354 67.0777 11.0469 67.0569 11.3021 66.6454C11.3438 66.5881 11.4427 66.5673 11.5 66.51C12.2031 65.9579 13.1094 65.6871 13.9323 65.3694C15.1094 65.0986 15.8125 64.0777 16.8958 63.6246C16.9896 63.5881 17.0886 63.51 17.1511 63.4111C17.4636 62.8225 18.4427 62.9996 18.5 62.1923C18.5 62.1142 18.5625 62.0569 18.6406 61.9996C18.7761 61.9006 18.7969 61.7444 18.8177 61.5829C18.9323 60.8017 18.2656 59.7236 17.3854 60.0152H17.3646Z" fill="#F6D46B"/>
<path d="M39.7448 63.3127C39.7239 62.8596 39.9218 62.5054 40.0573 62.1565C39.6875 61.2502 39.4114 60.37 39.0781 59.4846C38.6093 58.5836 38.1198 57.6617 37.6875 56.7398C37.0364 55.5836 36.5885 54.3492 35.8802 53.2086C35.7031 52.8752 35.3698 52.8388 35.0781 52.719C34.9218 52.6617 34.6666 52.8388 34.6666 53.0159C34.5468 53.5836 34.2708 54.1513 34.3125 54.7398C34.3906 56.1721 34.7239 57.5836 35.3333 58.8804C35.6093 59.4482 36.0364 59.9586 36.2916 60.5679C36.6666 61.5471 37.7239 61.3336 38.5468 61.469C38.6458 61.469 38.7448 61.469 38.8021 61.6044C38.2552 61.8388 37.6458 61.7606 36.9791 61.8388C37.7239 62.7815 38.5885 63.2919 39.7448 63.2919V63.3127Z" fill="white"/>
<path d="M71.1094 42.3441C71.1511 40.1098 70.5052 38.0108 70.1302 35.8285C70.1302 35.6723 70.0521 35.516 69.9323 35.4171C69.6615 35.2035 69.5834 34.9066 69.5209 34.5941C69.2657 33.7296 68.875 32.9483 68.4844 32.141C68.1511 31.3598 67.5625 30.7712 67.0677 30.0837C66.8177 29.6306 66.5209 29.2035 66.1094 28.8858C65.3073 28.3962 64.9896 27.4379 64.1459 27.0212C63.6771 26.766 63.6355 26.141 63.0677 25.9848C62.8334 25.8858 62.5417 25.8077 62.4011 25.5733C61.9896 24.9223 61.323 24.6306 60.6771 24.3337C60.1667 24.0993 59.6927 23.7296 59.0886 23.7296C59.0469 23.7296 58.9896 23.7087 58.9688 23.6671C58.7136 23.3181 58.4011 23.1202 57.948 23.1202C57.7709 23.0629 57.6355 22.865 57.4375 22.9066C57.2605 22.9223 57.125 22.865 57.0261 22.7452C56.9115 22.6306 56.7709 22.5889 56.6146 22.5733C56.0052 22.49 55.4584 22.24 54.8698 22.0993C54.4011 21.9848 53.9271 21.8077 53.4584 21.6514C53.2032 21.5525 52.9271 21.6514 52.6719 21.5316C52.4167 21.4118 52.1407 21.3962 51.849 21.3962C51.0052 21.3962 50.2032 21.1202 49.3594 21.1566C48.7865 21.1566 48.2188 21.2348 47.6303 21.1983C47.2605 21.1983 46.8282 21.141 46.474 21.4327C46.4167 21.49 46.2969 21.5316 46.2188 21.49C45.8438 21.2764 45.474 21.3754 45.0834 21.4327C41.9844 21.7868 38.9219 22.6098 36.1563 24.0629C35.1927 24.3754 34.3698 24.9639 33.5105 25.4952C32.8803 25.8077 32.3334 26.24 31.823 26.7087C30.7813 27.1983 29.9792 28.0629 29.0573 28.7504C28.9167 28.865 28.7605 28.9848 28.6823 29.1618C28.2917 29.8285 27.5469 30.2035 27.0938 30.8493C26.1303 32.0264 25.4844 33.3806 24.7032 34.6566C24.2084 35.4587 23.8178 36.3025 23.5261 37.1827C23.3073 37.9691 23.0157 38.7139 22.8386 39.5212C22.7969 39.7139 22.8959 39.9327 22.7605 40.1046C22.5417 40.4431 22.6823 40.891 22.5053 41.2452C22.2865 41.6358 22.4428 42.0681 22.3646 42.4587C22.3646 42.9118 22.3073 43.4223 22.3073 43.891C22.4271 44.6775 22.1094 45.4796 22.5053 46.2087C22.5261 46.266 22.5417 46.3233 22.5261 46.3858C22.4063 47.1671 22.5261 47.9952 22.7396 48.74C22.875 49.0525 22.8959 49.3441 22.8594 49.6618C22.8386 49.8546 22.8594 49.9952 22.9948 50.1098C23.2084 50.266 23.25 50.4848 23.1303 50.6983C22.8178 51.3077 23.0157 51.9379 23.1303 52.5212C23.349 53.4848 23.6042 54.4275 23.9167 55.3493C24.6407 57.8025 25.7605 60.0941 26.7396 62.4483C27.0521 63.1566 27.3282 63.9014 27.7813 64.5264C27.8959 64.6879 27.974 64.8441 28.1928 64.8806C28.25 64.6671 28.1928 64.4691 28.0938 64.2921C27.6042 63.2556 27.2292 62.1566 26.8021 61.0941C26.7605 61.016 26.7188 60.9171 26.8959 60.8598C27.1146 61.1931 27.448 61.4691 27.5053 61.9171C27.5469 62.2348 27.6823 62.5473 27.9167 62.7816C28.1355 62.9587 28.0573 63.3493 28.3125 63.5108C28.7396 63.8598 28.7605 64.5108 29.1928 64.8598C29.2709 65.2921 29.2344 65.7452 29.6823 66.0212C29.7813 66.1983 29.7396 66.4118 29.9584 66.5473C30.1928 66.7243 30.0157 67.0368 30.1928 67.2348C30.7032 67.9223 30.9584 68.7087 31.2344 69.49C31.6042 70.1566 31.823 70.9639 32.3125 71.5525C32.625 71.7868 32.625 72.24 32.9375 72.4535C32.9584 72.4743 32.9792 72.5316 32.9792 72.5889C33.2136 73.4952 33.9375 74.24 33.8594 75.2556C33.8021 75.5733 34.3125 75.7087 34.0365 76.0212C33.8438 75.9848 33.7448 75.8285 33.5886 75.7504C32.8803 75.3389 32.724 76.3962 32.5261 76.8493C32.1146 78.3754 33.9792 78.7295 34.9375 79.3754C35.1146 79.4743 35.3907 79.417 35.5886 79.4952C37.4532 80.3181 39.4896 80.3389 41.474 80.5941C42.6667 80.7296 43.9219 80.417 45.1198 80.5368C47.6511 80.6723 50.1823 80.4952 52.6927 80.2035C53.5938 80.1254 54.4792 79.8493 55.3594 79.7087C56.5 79.417 57.8125 79.4171 58.7344 78.6306C58.9688 78.4171 58.9688 78.1202 59.1042 77.8858C59.5 77.2764 58.7917 76.7087 58.8334 76.0993C58.9323 75.6879 58.8907 75.2191 59.224 74.865C59.4219 74.6306 59.2657 74.3181 59.2448 74.0421C59.1459 73.2764 59.6927 73.6306 59.7709 73.0629C59.8907 72.4535 60.2032 71.8858 60.3594 71.2973C60.6146 70.3337 61.4011 69.6671 61.599 68.7087C61.8542 68.3754 62.125 68.0212 62.2032 67.6098C62.3438 67.0577 63.0105 66.865 63.0469 66.2556C63.1667 66.1775 63.3646 66.0577 63.4011 65.9014C63.5782 65.5108 63.8125 65.1566 64.0886 64.8025C64.4219 64.3702 64.599 63.8233 64.974 63.4118C65.0677 63.2921 65.0521 63.0577 65.1667 62.9379C65.698 62.2712 65.7188 61.3702 66.323 60.7452C66.6407 60.3702 66.974 60.0368 67.0105 59.4848C67.0105 58.9014 67.698 58.6046 67.7761 58.016C67.8959 57.3285 68.1875 56.7608 68.6615 56.2504C68.7969 56.115 68.8334 55.9379 68.8542 55.74C68.8542 55.5056 68.9167 55.2712 69.0313 55.0733C69.3855 54.4483 69.5625 53.7608 69.6407 53.0525C69.6407 52.9379 69.6407 52.8181 69.7188 52.74C70.1302 52.3493 70.25 51.7764 70.3646 51.266C71.0521 48.3441 71.3646 45.3233 71.1302 42.3233L71.1094 42.3441ZM26.5469 60.1931C26.3855 60.016 26.349 59.9014 26.4688 59.7243C26.625 59.8389 26.6407 59.9796 26.5469 60.1931ZM50.9844 78.042C50.474 77.865 49.9636 78.0837 49.4532 78.042C48.6927 78.0056 47.9271 78.1618 47.1615 78.042C47.0625 78.042 46.9271 78.042 46.849 78.0837C46.4323 78.3389 45.9636 77.865 45.573 78.1045C45.2761 78.3181 44.9844 78.2608 44.6719 78.1827C44.3334 78.1045 44.0417 78.0629 43.7084 78.1827C43.375 78.2764 43.0417 78.042 42.6667 78.042C42.7865 77.141 42.9219 76.3389 43.1771 75.4743C43.3959 75.0056 43.099 74.4743 43.1198 74.0004C43.5105 72.9639 42.9844 71.8858 43.1771 70.865C43.2188 70.8077 43.2396 70.7087 43.2188 70.6306C43.0782 70.1566 43.1771 69.667 43.0417 69.1983C43 69.0993 42.9636 68.9796 42.9844 68.8806C43.0782 68.3337 42.9844 67.766 42.9428 67.2139C42.9428 66.9796 42.8855 66.7452 42.8646 66.5316C43.099 65.6879 42.198 63.8598 43.375 63.6254C43.9844 63.5264 44.3959 63.1775 44.75 62.7452C44.9063 62.5473 45.1615 62.5473 45.375 62.3702C46.3542 64.0785 47.9063 64.7035 49.75 64.8025C49.7084 65.1566 49.6511 65.4691 49.7865 65.766C49.8282 65.8598 49.7865 65.9431 49.7292 66.0368C49.5938 66.5473 49.2188 67.1775 49.474 67.7087C49.5157 67.766 49.5365 67.8441 49.5157 67.8806C49.2813 68.3337 49.474 68.8233 49.3959 69.2973C49.3959 69.391 49.375 69.49 49.3959 69.5681C49.5938 69.9639 49.1823 70.3129 49.3177 70.7087C49.4167 70.9796 49.1198 71.3129 49.3177 71.5681C49.4948 71.7868 49.474 71.9848 49.375 72.2191C49.3177 72.3546 49.2969 72.49 49.3386 72.6306C49.5521 73.9848 49.5157 75.3545 49.5938 76.7295C49.5938 77.6514 50.375 77.6879 51.125 77.8493C51.125 78.0056 51.0625 78.0837 50.9636 78.042H50.9844ZM47.0053 51.2087C47.1042 51.4431 47.1615 51.7191 46.9428 51.9535C46.8646 52.0316 46.8073 52.1514 46.849 52.2504C46.9271 52.9379 46.8855 53.641 46.6511 54.2868C46.4323 55.0733 46.4948 55.8962 45.9636 56.5629C45.5105 55.1723 45.573 52.9535 46.0417 51.5629C46.198 50.9743 46.1615 50.5629 46.9063 50.3285C46.8073 50.6618 46.8855 50.9171 47.0053 51.1723V51.2087ZM68.7188 43.4639C68.5209 43.7348 68.8177 44.0525 68.6407 44.3233C68.599 44.3858 68.5782 44.4639 68.599 44.5004C68.7188 44.891 68.599 45.2868 68.6198 45.6775C68.6407 46.7556 68.1875 47.8181 68.2292 48.8754C68.2657 49.0316 68.2292 49.1514 68.1511 49.266C67.974 49.4848 67.9115 49.74 67.8542 49.9952C67.7552 50.3441 67.8177 50.74 67.6198 51.0733C67.5625 51.1723 67.599 51.3077 67.6198 51.4431C67.6563 51.6202 67.5782 51.7764 67.5209 51.9379C67.1094 52.74 67.0313 53.6827 66.4636 54.4275C66.3646 54.5837 66.2865 54.7191 66.3073 54.8962C66.3073 55.3077 65.7969 55.5629 65.9532 56.016C65.9896 56.0941 65.9532 56.1723 65.875 56.2296C65.4219 56.6046 65.224 57.115 64.9532 57.6046C64.6198 58.1931 64.2448 58.7608 63.9896 59.4066C63.8334 59.6254 63.8907 59.9379 63.6771 60.1358C63.2657 60.5681 62.9688 61.0577 62.7552 61.6254C61.9896 62.7243 61.3646 63.9587 60.5782 65.0368C59.8334 65.9587 59.4375 67.1202 58.7552 68.0785C58.6355 68.2348 58.6146 68.4327 58.5573 68.5889C57.9896 69.7243 57.5573 70.9223 57.1042 72.0993C57.0677 72.2191 56.9896 72.3337 57.0261 72.4535C57.1667 72.7868 56.9896 73.0421 56.8125 73.2764C56.5573 73.6306 56.4375 74.0004 56.4167 74.4535C56.3021 75.2973 55.6146 76.0993 56.0052 77.0056C55.8125 77.141 55.6146 77.2191 55.3594 77.1827C54.9063 77.1202 54.4584 77.2973 54.0261 77.417C53.3959 77.5941 52.75 77.6098 52.0834 77.7087C52.2813 76.7087 52.0053 75.7504 51.9688 74.7868C52.1407 73.9223 51.849 73.0785 51.8698 72.2191C51.8073 70.6462 51.6927 69.0785 52.0052 67.5108C52.1042 67.1202 52.1042 66.7035 52.0052 66.2921C51.9688 66.1358 51.9844 65.9796 52.0625 65.8441C52.474 65.1775 51.9688 64.2139 52.8698 63.8233C53.3177 63.5889 53.6719 63.2348 53.9271 62.7816C54.1042 62.4691 54.3177 62.2712 54.6927 62.2348C54.8698 62.2348 55.0052 62.1358 55.0677 62.0004C55.1823 61.7035 55.4375 61.5056 55.6146 61.2504C55.9115 60.9171 55.9896 60.4118 56.4011 60.1566C56.6719 59.9587 56.849 59.7243 56.8698 59.391C56.8698 59.2712 56.948 59.1514 57.0469 59.0733C57.8907 58.4275 57.849 57.4066 58.2813 56.5629C58.5365 56.2921 58.6355 55.9379 58.6927 55.5837C59.0677 54.8389 59.224 54.016 59.4375 53.2296C59.5573 51.3285 59.8125 48.5785 57.3021 48.266C56.6146 48.3441 55.8907 48.5993 55.3802 49.1306C55.0834 49.4431 54.5938 49.6618 54.3594 50.0108C54.2396 50.6983 53.5938 51.2868 53.3959 51.8962C53.4792 52.3285 53.1823 52.5837 52.9688 52.8754C52.3021 53.9952 52.1042 55.3077 51.5365 56.4639C51.5157 56.5264 51.4584 56.5837 51.474 56.641C51.5365 57.3077 51.1042 57.8389 50.9636 58.4691C50.8073 59.1514 50.7136 59.8389 50.6146 60.5264C50.4948 61.0785 50.1407 61.6462 50.2813 62.2348C49.1615 62.6827 48.0625 61.6462 47.3542 60.8598C47.0834 60.5681 46.9271 60.1931 47.198 59.8025C47.3386 59.5473 47.2605 59.2504 47.4948 59.0368C48.1042 58.2296 48.2605 57.1723 48.7292 56.2712C49.4167 54.0733 49.849 47.2868 46.0417 48.2087C45.1198 48.4223 44.4532 49.0733 44.0625 49.9171C43.8646 50.2296 43.7084 50.5629 43.6875 50.9535C43.2969 51.9171 43.2553 52.9743 43.1771 54.016C43.0782 54.8389 43.0625 55.7035 43.4115 56.4848C43.4532 56.5837 43.5105 56.7191 43.474 56.8025C43.3177 57.1931 43.474 57.5264 43.6511 57.8806C43.6667 57.9379 43.7084 57.9952 43.7084 58.0577C43.6875 58.6462 43.9844 59.1723 44.099 59.7816C43.6875 60.3129 43.1771 60.8025 42.5521 61.1358C42.4115 61.0577 42.3959 60.9587 42.375 60.8389C42.0782 57.8389 40.8646 54.9171 39.1563 52.4431C38.1771 51.2087 37.0365 50.0108 35.5886 49.3285C33.7657 48.6618 32.1146 50.4639 32 52.1723C31.7448 52.641 31.8021 53.1514 31.8803 53.6618C32.0157 54.016 31.7813 54.3285 31.823 54.6827C32.0782 55.4066 31.823 56.2504 32.2344 56.9379C32.5053 57.7035 32.9375 58.3493 33.2136 59.1358C33.2709 59.391 33.5469 59.6046 33.7448 59.8233C34.7448 61.2139 35.6667 62.4275 37.3907 63.0004C38.1563 63.4691 38.9792 63.7035 39.823 63.9379C40.2344 64.0577 40.2969 64.1566 40.2969 64.5681C40.2969 65.0577 40.2552 65.5473 40.3907 66.0577C40.474 66.6462 40.4532 67.3129 40.4532 67.9223C40.4532 68.2348 40.375 68.5473 40.5886 68.8233C40.5886 68.8441 40.6094 68.8806 40.5886 68.9223C40.3907 69.4118 40.5886 69.9014 40.5886 70.391C40.5678 70.7295 40.6094 71.0785 40.6303 71.4118C40.6303 71.7087 40.7292 72.0004 40.6094 72.2973C40.5678 72.3962 40.6094 72.4743 40.6303 72.5733C40.7084 72.7868 40.6667 73.0004 40.7084 73.2191C40.8438 73.865 40.6667 74.5108 40.6459 75.1618C40.5886 76.0056 40.6459 76.8858 40.4323 77.7295C40.3542 78.1045 40.3125 78.1202 39.9219 78.042C38.7448 77.8077 37.5886 77.5316 36.4115 77.2608C36.1771 77.2191 36.099 77.0212 36.3125 76.8858C36.5313 76.6514 36.5677 76.3962 36.4896 76.0993C36.1771 75.1618 36.8646 75.1618 36.6094 74.6723C36.3907 74.3337 36.3125 73.9431 36.2344 73.5733C36.099 72.5525 35.2917 71.8233 34.9792 70.865C34.7657 70.3754 34.4688 69.9431 34.1771 69.49C33.8021 68.5473 33.3125 67.6671 32.9584 66.7243C32.8594 66.4118 32.5469 66.1983 32.4115 65.9223C32.0573 64.9796 31.5261 64.0993 31.0573 63.2139C30.9167 62.391 30.3907 61.7816 29.9584 61.1358C29.823 60.9379 29.6823 60.7452 29.625 60.5264C29.5053 59.9796 29.0365 59.5681 28.9792 58.9952C28.9792 58.9171 28.9011 58.8181 28.8594 58.74C28.0365 57.6827 28.0157 56.2712 27.2709 55.1723C27.0938 54.9379 26.9948 54.6827 26.974 54.3858C26.974 53.8598 26.6407 53.4483 26.448 52.9952C25.9375 51.7191 25.7969 50.3858 25.3698 49.0889C25.5625 47.8962 24.7605 46.7348 25.0521 45.5785C25.1146 45.4639 25.1511 45.3233 25.0938 45.2243C24.8959 44.8754 25.0157 44.5212 25.0157 44.1671C24.9948 43.4223 24.974 42.6775 25.25 41.9691C25.1511 41.2243 25.3855 40.4796 25.5625 39.7556C25.7605 39.1046 26.1146 38.5004 26.1146 37.7921C26.1146 37.6358 26.1928 37.5004 26.3073 37.3806C26.7032 37.0056 26.8803 36.5368 26.9167 36.0056C27.3698 35.7348 27.1511 35.2608 27.2709 34.8702C27.4844 34.7921 27.6823 34.6723 27.7032 34.4014C27.7032 34.3806 27.7032 34.3181 27.7396 34.3181C28.2917 34.1046 28.349 33.4796 28.7605 33.1046C29.1511 32.7504 29.4271 32.2816 29.7813 31.8702C29.823 31.8285 29.8386 31.7921 29.8386 31.7504C29.823 31.2191 30.2917 31.1827 30.6042 30.9848C31.0938 30.8493 31.1719 30.2035 31.7448 30.1618C31.7605 30.1618 31.8021 30.141 31.823 30.1254C32.1146 29.6514 32.6823 29.4743 33.0157 29.0629C33.4688 28.1827 34.625 28.516 35.1146 27.5525C36.0365 27.4379 36.7032 26.6098 37.6094 26.3754C37.8438 26.2973 38 26.141 38.2136 26.0212C38.6094 25.8285 39.099 25.865 39.4532 25.5941C40.4532 24.8285 41.7865 25.0056 42.8438 24.3962C43.0209 24.2973 43.198 24.2973 43.3959 24.3546C43.5521 24.4171 43.7084 24.4171 43.8282 24.2973C43.9844 24.1202 44.1771 24.1202 44.3959 24.1618C45.5313 24.1983 46.6511 23.5525 47.8073 23.8441C47.8855 23.8441 47.9844 23.865 48.0417 23.8441C48.4948 23.5889 48.9636 23.766 49.4167 23.8077C50.0625 23.9848 50.7136 23.8441 51.3594 23.9431C51.7292 24.0212 52.125 24.0837 52.5157 24.0837C53.2032 24.5108 54.0261 24.4327 54.75 24.6723C55.8698 25.0056 56.9688 25.4327 57.9896 25.9431C58.5573 25.8858 58.9323 26.2973 59.3802 26.5316C60.8907 27.3389 62.2657 28.3389 63.4636 29.5733C64.1459 30.2608 64.5782 31.1254 65.2865 31.7504C65.3855 31.8285 65.4792 31.9691 65.5417 32.0837C65.9532 33.1254 66.8959 33.8702 67.1094 34.99C67.2448 35.4014 67.5782 35.7348 67.5782 36.1827C67.5782 36.5941 67.974 36.8493 68.0105 37.2452C67.974 38.4379 68.6407 39.5368 68.5 40.7348C68.5 40.8702 68.4427 41.0316 68.5 41.1462C68.6771 41.4587 68.6198 41.7921 68.6407 42.1098C68.6407 42.4431 68.6407 42.7556 68.7396 43.0889C68.7761 43.1879 68.7761 43.3025 68.7188 43.4014V43.4639ZM57.224 51.8754C57.1667 52.2087 56.9896 52.6046 57.0052 52.9743C57.0052 53.1514 56.948 53.3077 56.849 53.4483C56.6719 53.7191 56.5365 54.016 56.5938 54.3702C56.6355 54.5629 56.5365 54.74 56.4167 54.8754C56.0834 55.2504 56.3021 55.7816 55.948 56.1723C55.1042 57.641 54.4375 59.1723 53.1615 60.3493C53.1042 59.9379 53.2032 59.6046 53.3177 59.2712C53.7292 57.9171 53.9844 56.5473 54.5573 55.2504C54.8907 54.3077 55.1823 53.3077 55.8907 52.5421C55.948 52.4848 56.0052 52.3858 56.0052 52.2868C56.0261 51.8754 56.2813 51.5993 56.5573 51.3493C56.7344 51.1879 56.7917 50.9171 57.0469 50.74C57.1459 51.1514 56.9896 51.5212 57.2032 51.8546L57.224 51.8754ZM40.0417 61.1566C38.7084 61.0368 37.7084 60.3285 36.724 59.4691C35.7657 58.7816 35.2136 57.6827 34.6667 56.6827C34.5105 56.2712 34.4896 55.7973 34.2344 55.4066C34.0573 55.1306 34 54.8389 34.0365 54.5056C34.1355 53.8389 34.099 53.1306 34.3125 52.4639C34.724 51.1098 35.4688 49.8389 36.6667 51.4431C37.3907 52.1723 37.8646 53.0525 38.3542 53.9535C38.4896 54.1931 38.6667 54.4066 38.6875 54.74C38.823 55.3702 39.3125 55.9587 39.3542 56.641C39.5105 57.6254 39.8073 58.5837 39.823 59.5681C39.823 59.7243 39.8855 59.9171 39.9792 60.0577C40.2188 60.4066 40.1563 60.7608 40.0209 61.1566H40.0417Z" fill="black"/>
<path d="M57.9896 80.7913C57.1823 80.7288 56.4375 80.885 55.7344 81.2965C55.5365 81.4163 55.3594 81.5152 55.125 81.5361C54.5729 81.6142 54.0469 81.6715 53.4948 81.6507C52.474 81.5725 51.4948 81.8694 50.474 81.8694C49.849 81.7496 49.2396 82.0621 48.6146 82.0048C47.5312 81.9267 46.474 82.0256 45.3958 82.1246C44.5312 82.1611 43.651 81.9684 42.7865 81.885C42.1771 81.7913 41.5521 81.8277 41 81.4371C40.8646 81.3381 40.7083 81.3382 40.5521 81.3173C39.6458 81.2809 38.8802 80.7913 37.9792 80.7496C37.7448 80.7288 37.5104 80.7079 37.2917 80.5725C36 79.8694 34.3542 78.9475 33.0156 80.0829C33.1771 81.0048 34.2344 81.3173 34.7812 82.0048C35.2135 82.4579 35.8021 82.635 36.3333 82.9267C36.4896 83.0048 36.6875 83.0829 36.8802 83.0465C37.1198 82.984 37.3125 83.1038 37.5104 83.2027C38.2344 83.6923 39.0781 83.6142 39.8229 83.9684C40.1198 84.1454 40.375 84.2392 40.6875 83.9684C41.1979 84.4579 41.9427 84.3798 42.5312 84.734C42.3333 84.9059 42.1563 84.8694 41.9844 84.8486C40.8854 84.7704 39.8073 84.6923 38.7083 84.5725C36.9792 84.5725 35.1771 83.8902 33.5469 84.8121C32.1719 85.4579 34.901 87.6142 35.5104 88.0881C35.724 88.2444 36 88.2444 36.1771 88.4006C36.4687 88.6559 36.901 88.6767 37.1979 88.9319C37.4115 89.1246 37.6875 88.7704 37.901 88.9475C38.3906 89.3017 39 89.359 39.5521 89.5986C39.9792 89.7913 40.4531 89.8121 40.8854 89.9892C41.4115 90.1038 42.0208 89.8902 42.5104 90.2809C42.6667 90.4006 42.8437 90.4006 43.0417 90.3798C43.5729 90.3434 44.099 90.2652 44.5885 90.5361C44.7083 90.5986 44.8437 90.6142 44.9427 90.5361C45.2604 90.3434 45.5521 90.359 45.8854 90.4788C45.9844 90.5204 46.099 90.4996 46.1979 90.4579C46.2969 90.4215 46.375 90.4006 46.474 90.4579C46.7083 90.6142 46.9844 90.5777 47.2396 90.5777C47.6719 90.5777 48.1198 90.5777 48.5521 90.5777C48.651 90.5777 48.75 90.5777 48.75 90.7548C48.5521 90.8329 48.2969 90.7913 48.1406 90.9319C47.5521 91.4579 47.4167 90.4423 46.7083 91.1246C46.4167 91.0673 46.1198 90.8538 45.8854 90.9475C45.5313 91.109 45.1615 91.109 44.8073 91.2027C44.5885 91.2652 44.375 91.2809 44.1771 91.1663C44 91.0465 43.8281 91.0673 43.651 91.1871C43.5313 91.2809 43.4115 91.2809 43.2552 91.2809C42.6302 91.3225 42 91.1871 41.3958 91.0673C40.8854 90.9892 40.3333 91.0673 39.8437 90.8329C39.8073 90.8121 39.724 90.8329 39.6667 90.8329C39.0781 90.9111 38.5313 90.734 37.9792 90.5777C37.7083 90.4996 37.4531 90.3017 37.1354 90.4006C37.0208 90.4423 36.901 90.3434 36.7865 90.2809C36.2917 90.0673 35.4687 89.5361 35.0208 90.01C34.8229 90.359 34.2344 90.7548 34.3698 91.1871C34.5677 91.6767 34.8437 92.0465 35.3542 92.2444C35.6875 92.3642 35.8802 92.6975 36.276 92.8121C37 93.0309 37.724 93.2861 38.4531 93.4631C39.1198 93.6194 39.8229 93.5569 40.474 93.7756C40.8229 93.8902 41.1771 93.9111 41.5312 93.8121C41.7292 93.7756 41.901 93.8121 42 94.0465C41.6875 94.1871 41.5885 94.4788 41.4896 94.7548C41 96.0517 41.651 97.2288 42.7865 97.7756C43.7292 98.1506 44.7865 98.1663 45.7865 98.1663C46.1198 98.1663 46.4531 98.2444 46.7708 98.0881C47.276 97.6975 48.6927 97.6194 48.8073 96.9892C49.2031 96.1454 50.0052 95.4631 49.4948 94.4215C49.3594 94.109 49.2396 94.0465 48.9062 94.2079C48.3958 94.4423 48.0625 95.01 47.474 95.0517C47.2604 95.0517 47.1042 95.1298 46.9062 95.2444C46.474 95.4996 46.0625 95.8746 45.4948 95.6767C45.4167 95.6559 45.2969 95.6767 45.2187 95.7184C44.8854 95.8121 44.3333 95.9111 44.1406 95.5413C43.7865 94.8746 43.276 94.3642 42.7448 93.8121C43.5104 93.734 44.276 93.9527 45.0625 93.7131C45.2187 93.6767 45.375 93.6559 45.5312 93.6975C45.9844 93.7756 46.4323 93.7965 46.8646 93.6194C46.9271 93.5986 47.0052 93.5986 47.0417 93.6194C47.3177 93.7548 47.5729 93.6194 47.8281 93.5569C47.9635 93.5413 48.1042 93.4631 48.2396 93.4631C49.1198 93.5204 49.9635 93.2236 50.849 93.2236C51.6927 92.9684 52.5365 92.635 53.3958 92.4996C54.4167 92.4423 55.3229 91.8121 56.2812 91.4788C56.7708 91.2236 58.1823 90.4788 57.5 89.8538C57.3385 89.734 57.1667 89.6559 56.9687 89.6923C56.2604 89.8694 55.5365 89.734 54.75 89.7548C54.9062 89.4579 55.1615 89.4371 55.3802 89.3798C56.4792 89.2027 57.3594 88.635 57.6146 87.4996C57.9687 86.2027 55.0469 87.4788 54.4792 87.4371C53.2604 87.5777 52.0833 87.7548 50.8698 87.7704C50.4375 87.7704 50.0052 87.6559 49.5729 87.7704C49.026 87.9267 48.4531 87.8329 47.9062 87.7704C47.0417 87.7704 46.1823 87.9111 45.2969 87.8486C44.3542 87.7913 43.4531 87.5569 42.5104 87.5777C41.9844 87.4371 41.474 87.2444 40.9635 87.1038C40.1979 86.8902 39.4115 86.7496 38.6458 86.5934C38.4531 86.5569 38.3125 86.4579 38.2552 86.26C38.375 86.1819 38.4896 86.2027 38.5885 86.2444C39.1979 86.4371 39.8073 86.6142 40.4323 86.7496C41.2552 86.8486 42.0417 87.1663 42.8646 87.1819C44.0208 87.0673 45.1615 87.6715 46.276 87.0881C46.75 87.4788 47.2396 86.9267 47.7708 86.9892C48.3594 86.9684 48.9635 86.9475 49.4531 86.5152C49.8281 86.8121 50.026 86.4788 50.2604 86.2809C50.5156 86.4006 50.75 86.4371 50.9479 86.1819C51.1042 85.9892 51.4167 86.2027 51.5521 86.0256C51.7917 85.7131 52.125 85.6559 52.474 85.635C53.1823 85.4163 53.8906 85.0048 54.4167 84.4579C54.7708 84.2027 55.2396 84.1454 55.4583 83.7131C55.5365 83.5934 55.6562 83.5152 55.7917 83.4788C56.2448 83.3173 56.5781 82.984 56.8698 82.6142C57.224 82.1402 57.7135 81.7704 58.125 81.359C58.401 81.1402 58.2812 80.7288 57.9115 80.7704L57.9896 80.7913ZM49.6927 90.5777C49.7708 90.4996 49.849 90.5204 49.9479 90.5777C49.9062 90.7756 49.6302 90.7131 49.6927 90.5777Z" fill="black"/>
</svg>
