<svg width="221" height="221" viewBox="0 0 221 221" fill="none" xmlns="http://www.w3.org/2000/svg">
<mask id="mask0_16_242" style="mask-type:luminance" maskUnits="userSpaceOnUse" x="0" y="-1" width="221" height="222">
<path d="M0 -1H220.682V220.042H0V-1Z" fill="white"/>
</mask>
<g mask="url(#mask0_16_242)">
<mask id="mask1_16_242" style="mask-type:luminance" maskUnits="userSpaceOnUse" x="0" y="-1" width="221" height="221">
<path d="M220.297 109.578C220.297 113.146 220.125 116.708 219.781 120.26C219.432 123.813 218.911 127.339 218.224 130.839C217.531 134.344 216.672 137.802 215.641 141.219C214.615 144.635 213.417 147.995 212.062 151.297C210.703 154.599 209.187 157.823 207.516 160.979C205.844 164.13 204.021 167.198 202.047 170.172C200.078 173.146 197.964 176.016 195.714 178.786C193.458 181.552 191.078 184.208 188.568 186.745C183.521 191.844 178.026 196.406 172.089 200.437C166.151 204.464 159.88 207.875 153.271 210.677C146.651 213.479 139.818 215.604 132.776 217.057C125.719 218.51 118.583 219.266 111.38 219.323C104.172 219.38 97.0312 218.74 89.9479 217.401C84.625 216.391 79.4062 214.99 74.2917 213.203C69.1771 211.417 64.2187 209.266 59.4271 206.74C54.6302 204.219 50.0469 201.354 45.6771 198.151C41.3073 194.943 37.2031 191.432 33.3542 187.62C29.4844 183.802 25.9219 179.714 22.6667 175.365C19.4062 171.016 16.4844 166.448 13.9062 161.661C11.3281 156.88 9.11978 151.927 7.27603 146.818C5.43749 141.703 3.98436 136.479 2.91666 131.151C1.49999 124.026 0.791656 116.833 0.791656 109.573C0.791656 102.313 1.49999 95.1198 2.91666 87.9948C3.44791 85.3385 4.07812 82.7031 4.80207 80.0937C5.52603 77.4792 6.34895 74.901 7.26562 72.349C8.18228 69.8021 9.1927 67.2865 10.2917 64.8125C11.3958 62.3385 12.5885 59.9062 13.875 57.5208C15.1562 55.1302 16.526 52.7969 17.9844 50.5104C19.4375 48.224 20.9792 46 22.5989 43.8281C24.2239 41.6562 25.9219 39.5469 27.7031 37.5052C29.4792 35.4583 31.3281 33.4844 33.2552 31.5729C35.1823 29.6667 37.1719 27.8333 39.2344 26.0729C41.2969 24.3125 43.4167 22.6302 45.6042 21.0312C47.7864 19.4271 50.0312 17.9062 52.3281 16.474C54.625 15.0365 56.974 13.6875 59.375 12.4271C61.7708 11.1615 64.2135 9.99479 66.6979 8.91146C69.1823 7.83333 71.7031 6.84375 74.2604 5.94792C76.8229 5.05729 79.4115 4.26042 82.026 3.55729C84.6458 2.85417 87.2812 2.25 89.9479 1.74479C97.026 0.40625 104.172 -0.234375 111.38 -0.177083C118.583 -0.119793 125.719 0.635415 132.776 2.08333C138.047 3.17708 143.203 4.64583 148.255 6.49479C153.302 8.34375 158.193 10.5521 162.917 13.1198C167.641 15.6875 172.156 18.5885 176.453 21.8177C180.75 25.0521 184.792 28.5781 188.568 32.4063C193.604 37.4948 198.099 43.026 202.057 48.9896C206.016 54.9583 209.359 61.2552 212.089 67.875C214.802 74.4896 216.854 81.3073 218.234 88.3229C219.62 95.3385 220.307 102.427 220.297 109.578ZM220.297 109.578C220.292 102.427 219.594 95.3438 218.203 88.3333C217.682 85.7135 217.062 83.1198 216.349 80.5521C215.635 77.9792 214.828 75.4375 213.922 72.9271C213.021 70.4167 212.026 67.9427 210.943 65.5104C209.854 63.0729 208.682 60.6771 207.417 58.3281C206.151 55.9792 204.802 53.6771 203.37 51.4271C201.937 49.1771 200.422 46.9844 198.823 44.849C197.229 42.7135 195.552 40.6354 193.802 38.625C192.052 36.6094 190.229 34.6667 188.333 32.7865C186.437 30.9115 184.479 29.1042 182.448 27.3698C180.422 25.6406 178.328 23.9844 176.177 22.4063C174.026 20.8281 171.818 19.3333 169.557 17.9219C167.292 16.5052 164.979 15.1771 162.62 13.9375C160.26 12.6927 157.854 11.5417 155.411 10.4792C152.964 9.41667 150.479 8.44271 147.964 7.5625C145.443 6.68229 142.896 5.89583 140.318 5.20833C137.74 4.51562 135.141 3.92187 132.521 3.42187C125.547 2.10417 118.516 1.47396 111.422 1.53125C104.323 1.58854 97.3021 2.33333 90.3542 3.76562C83.4271 5.19792 76.7083 7.29167 70.1927 10.0469C63.6823 12.8021 57.5 16.1667 51.6458 20.1406C47.276 23.1042 43.1458 26.375 39.2552 29.9427C35.3594 33.5104 31.7448 37.3438 28.4114 41.4375C25.0833 45.5365 22.0625 49.8542 19.3646 54.3906C16.6614 58.9271 14.3021 63.6354 12.2864 68.5208C11.4531 70.5521 10.6823 72.6094 9.96874 74.6927C9.26041 76.7708 8.61457 78.875 8.03124 80.9948C7.44791 83.1146 6.93228 85.25 6.47916 87.401C6.02603 89.5521 5.64061 91.7188 5.32291 93.8906C5.0052 96.0677 4.74999 98.25 4.56249 100.443C4.3802 102.635 4.26041 104.828 4.20832 107.026C4.15624 109.224 4.16666 111.422 4.24999 113.62C4.33332 115.818 4.47916 118.01 4.69791 120.198C4.91145 122.385 5.19791 124.568 5.54686 126.74C5.89582 128.906 6.30728 131.068 6.78645 133.214C7.27082 135.359 7.8177 137.49 8.42707 139.599C9.03645 141.714 9.71353 143.802 10.4479 145.875C11.1875 147.948 11.9896 149.995 12.8542 152.016C13.7135 154.036 14.6406 156.031 15.625 158C16.6094 159.964 17.6562 161.896 18.7604 163.802C19.8594 165.703 21.0208 167.568 22.2396 169.401C23.4583 171.229 24.7292 173.021 26.0573 174.776C27.3802 176.531 28.7604 178.24 30.1927 179.911C31.625 181.578 33.1042 183.203 34.6354 184.781C36.1667 186.365 37.7396 187.896 39.3646 189.375C40.9896 190.859 42.6562 192.292 44.3698 193.672C46.0781 195.052 47.8333 196.38 49.625 197.656C51.4167 198.927 53.2448 200.146 55.1094 201.307C56.9792 202.469 58.8802 203.573 60.8125 204.62C62.7448 205.667 64.7135 206.651 66.7031 207.578C68.6979 208.505 70.7187 209.37 72.7656 210.172C74.8125 210.974 76.8854 211.714 78.9792 212.391C81.0677 213.068 83.1823 213.677 85.3073 214.229C87.4375 214.776 89.5833 215.255 91.7448 215.672C93.901 216.089 96.0729 216.443 98.25 216.724C100.432 217.01 102.62 217.224 104.812 217.375C107.005 217.526 109.203 217.609 111.401 217.625C118.505 217.682 125.547 217.052 132.526 215.734C137.766 214.74 142.906 213.365 147.943 211.604C152.979 209.844 157.859 207.724 162.578 205.24C167.302 202.755 171.812 199.937 176.115 196.781C180.417 193.625 184.458 190.172 188.25 186.411C192.057 182.651 195.562 178.63 198.771 174.349C201.979 170.068 204.854 165.568 207.396 160.859C209.932 156.146 212.109 151.276 213.922 146.24C215.734 141.208 217.167 136.068 218.214 130.818C219.599 123.807 220.297 116.724 220.297 109.578Z" fill="white"/>
</mask>
<g mask="url(#mask1_16_242)">
<path d="M0.791656 -0.234375V219.38H220.307V-0.234375H0.791656Z" fill="url(#paint0_linear_16_242)"/>
</g>
</g>
<defs>
<linearGradient id="paint0_linear_16_242" x1="0.791861" y1="109.574" x2="220.305" y2="109.574" gradientUnits="userSpaceOnUse">
<stop stop-color="#A4A68B"/>
<stop offset="0.25" stop-color="#A4A68B"/>
<stop offset="0.375" stop-color="#A4A68B"/>
<stop offset="0.4375" stop-color="#A4A68B"/>
<stop offset="0.46875" stop-color="#A4A68B"/>
<stop offset="0.476562" stop-color="#A4A68B"/>
<stop offset="0.480469" stop-color="#A4A78A"/>
<stop offset="0.484375" stop-color="#A5A789"/>
<stop offset="0.488281" stop-color="#A5A888"/>
<stop offset="0.492188" stop-color="#A5A888"/>
<stop offset="0.496094" stop-color="#A5A987"/>
<stop offset="0.5" stop-color="#A6A986"/>
<stop offset="0.503906" stop-color="#A6A986"/>
<stop offset="0.507812" stop-color="#A6AA85"/>
<stop offset="0.511719" stop-color="#A6AA84"/>
<stop offset="0.515625" stop-color="#A7AB84"/>
<stop offset="0.519531" stop-color="#A7AB83"/>
<stop offset="0.523437" stop-color="#A7AC82"/>
<stop offset="0.527344" stop-color="#A7AC82"/>
<stop offset="0.53125" stop-color="#A8AD81"/>
<stop offset="0.535156" stop-color="#A8AD80"/>
<stop offset="0.539062" stop-color="#A8AD80"/>
<stop offset="0.542969" stop-color="#A8AE7F"/>
<stop offset="0.546875" stop-color="#A9AE7E"/>
<stop offset="0.550781" stop-color="#A9AF7E"/>
<stop offset="0.554687" stop-color="#A9AF7D"/>
<stop offset="0.558594" stop-color="#A9B07C"/>
<stop offset="0.5625" stop-color="#A9B07B"/>
<stop offset="0.566406" stop-color="#AAB17B"/>
<stop offset="0.570312" stop-color="#AAB17A"/>
<stop offset="0.574219" stop-color="#AAB179"/>
<stop offset="0.578125" stop-color="#AAB279"/>
<stop offset="0.582031" stop-color="#ABB278"/>
<stop offset="0.585938" stop-color="#ABB377"/>
<stop offset="0.589844" stop-color="#ABB377"/>
<stop offset="0.59375" stop-color="#ABB476"/>
<stop offset="0.597656" stop-color="#ACB475"/>
<stop offset="0.601562" stop-color="#ACB575"/>
<stop offset="0.605469" stop-color="#ACB574"/>
<stop offset="0.609375" stop-color="#ACB573"/>
<stop offset="0.613281" stop-color="#ADB673"/>
<stop offset="0.617188" stop-color="#ADB672"/>
<stop offset="0.621094" stop-color="#ADB771"/>
<stop offset="0.625" stop-color="#ADB771"/>
<stop offset="0.628906" stop-color="#AEB870"/>
<stop offset="0.632812" stop-color="#AEB86F"/>
<stop offset="0.636719" stop-color="#AEB96F"/>
<stop offset="0.640625" stop-color="#AEB96E"/>
<stop offset="0.644531" stop-color="#AFBA6D"/>
<stop offset="0.648438" stop-color="#AFBA6D"/>
<stop offset="0.652344" stop-color="#AFBA6C"/>
<stop offset="0.65625" stop-color="#AFBB6B"/>
<stop offset="0.660156" stop-color="#B0BB6A"/>
<stop offset="0.664062" stop-color="#B0BC6A"/>
<stop offset="0.667969" stop-color="#B0BC69"/>
<stop offset="0.671875" stop-color="#B0BD68"/>
<stop offset="0.675781" stop-color="#B1BD68"/>
<stop offset="0.679688" stop-color="#B1BE67"/>
<stop offset="0.683594" stop-color="#B1BE66"/>
<stop offset="0.6875" stop-color="#B1BE66"/>
<stop offset="0.691406" stop-color="#B1BF65"/>
<stop offset="0.695312" stop-color="#B2BF64"/>
<stop offset="0.699219" stop-color="#B2C064"/>
<stop offset="0.703125" stop-color="#B2C063"/>
<stop offset="0.707031" stop-color="#B2C162"/>
<stop offset="0.710938" stop-color="#B3C162"/>
<stop offset="0.714844" stop-color="#B3C261"/>
<stop offset="0.71875" stop-color="#B3C260"/>
<stop offset="0.722656" stop-color="#B3C260"/>
<stop offset="0.726562" stop-color="#B4C35F"/>
<stop offset="0.730469" stop-color="#B4C35E"/>
<stop offset="0.734375" stop-color="#B4C45E"/>
<stop offset="0.738281" stop-color="#B4C45D"/>
<stop offset="0.742188" stop-color="#B5C55C"/>
<stop offset="0.746094" stop-color="#B5C55B"/>
<stop offset="0.75" stop-color="#B5C65B"/>
<stop offset="0.753906" stop-color="#B5C65A"/>
<stop offset="0.757813" stop-color="#B6C659"/>
<stop offset="0.761719" stop-color="#B6C759"/>
<stop offset="0.765625" stop-color="#B6C758"/>
<stop offset="0.769531" stop-color="#B6C857"/>
<stop offset="0.773438" stop-color="#B7C857"/>
<stop offset="0.777344" stop-color="#B7C956"/>
<stop offset="0.78125" stop-color="#B7C955"/>
<stop offset="0.785156" stop-color="#B7CA55"/>
<stop offset="0.789063" stop-color="#B8CA54"/>
<stop offset="0.792969" stop-color="#B8CA53"/>
<stop offset="0.796875" stop-color="#B8CB53"/>
<stop offset="0.800781" stop-color="#B8CB52"/>
<stop offset="0.804688" stop-color="#B9CC51"/>
<stop offset="0.808594" stop-color="#B9CC51"/>
<stop offset="0.8125" stop-color="#B9CD50"/>
<stop offset="0.816406" stop-color="#B9CD4F"/>
<stop offset="0.820313" stop-color="#B9CE4F"/>
<stop offset="0.824219" stop-color="#BACE4E"/>
<stop offset="0.828125" stop-color="#BACE4D"/>
<stop offset="0.832031" stop-color="#BACF4D"/>
<stop offset="0.835938" stop-color="#BACF4C"/>
<stop offset="0.839844" stop-color="#BBD04B"/>
<stop offset="0.84375" stop-color="#BBD04A"/>
<stop offset="0.847656" stop-color="#BBD14A"/>
<stop offset="0.851563" stop-color="#BBD149"/>
<stop offset="0.855469" stop-color="#BCD248"/>
<stop offset="0.859375" stop-color="#BCD248"/>
<stop offset="0.863281" stop-color="#BCD247"/>
<stop offset="0.867188" stop-color="#BCD346"/>
<stop offset="0.871094" stop-color="#BDD346"/>
<stop offset="0.875" stop-color="#BDD445"/>
<stop offset="0.878906" stop-color="#BDD444"/>
<stop offset="0.882813" stop-color="#BDD544"/>
<stop offset="0.886719" stop-color="#BED543"/>
<stop offset="0.890625" stop-color="#BED642"/>
<stop offset="0.894531" stop-color="#BED642"/>
<stop offset="0.898438" stop-color="#BED641"/>
<stop offset="0.902344" stop-color="#BFD740"/>
<stop offset="0.90625" stop-color="#BFD740"/>
<stop offset="0.910156" stop-color="#BFD83F"/>
<stop offset="0.914063" stop-color="#BFD83E"/>
<stop offset="0.917969" stop-color="#C0D93E"/>
<stop offset="0.921875" stop-color="#C0D93D"/>
<stop offset="0.925781" stop-color="#C0DA3C"/>
<stop offset="0.929688" stop-color="#C0DA3C"/>
<stop offset="0.933594" stop-color="#C1DA3B"/>
<stop offset="0.9375" stop-color="#C1DB3A"/>
<stop offset="0.941406" stop-color="#C1DB39"/>
<stop offset="0.945312" stop-color="#C1DC39"/>
<stop offset="0.949219" stop-color="#C1DC38"/>
<stop offset="0.953125" stop-color="#C2DD37"/>
<stop offset="0.957031" stop-color="#C2DD37"/>
<stop offset="0.960938" stop-color="#C2DE36"/>
<stop offset="0.964844" stop-color="#C2DE35"/>
<stop offset="0.96875" stop-color="#C3DE35"/>
<stop offset="0.972656" stop-color="#C3DF34"/>
<stop offset="0.976562" stop-color="#C3DF33"/>
<stop offset="0.980469" stop-color="#C3E033"/>
<stop offset="0.984375" stop-color="#C4E032"/>
<stop offset="0.988281" stop-color="#C4E131"/>
<stop offset="0.992188" stop-color="#C4E131"/>
<stop offset="0.996094" stop-color="#C4E230"/>
<stop offset="1" stop-color="#C5E22F"/>
</linearGradient>
</defs>
</svg>
