<?xml version="1.0" standalone="no"?>
<!DOCTYPE svg PUBLIC "-//W3C//DTD SVG 20010904//EN"
 "http://www.w3.org/TR/2001/REC-SVG-20010904/DTD/svg10.dtd">
<svg version="1.0" xmlns="http://www.w3.org/2000/svg"
 width="788.000000pt" height="1280.000000pt" viewBox="0 0 788.000000 1280.000000"
 preserveAspectRatio="xMidYMid meet">
<metadata>
Created by potrace 1.15, written by Peter Selinger 2001-2017
</metadata>
<g transform="translate(0.000000,1280.000000) scale(0.100000,-0.100000)"
fill="#000000" stroke="none">
<path d="M2995 12790 c-178 -28 -352 -102 -480 -204 l-78 -61 -101 3 c-119 4
-173 -7 -281 -58 -98 -47 -197 -121 -292 -218 -298 -306 -396 -726 -292 -1247
38 -188 114 -382 203 -513 l36 -53 -30 -104 c-44 -149 -87 -362 -111 -543 -25
-186 -30 -540 -11 -692 40 -305 122 -542 259 -749 77 -116 371 -410 466 -466
37 -22 109 -75 160 -118 227 -192 478 -334 780 -441 l117 -42 -31 -47 c-22
-33 -35 -45 -43 -38 -6 5 -76 17 -156 26 -112 13 -165 24 -235 50 -259 97
-493 155 -632 155 -37 0 -44 -4 -58 -30 -9 -16 -17 -30 -19 -30 -2 0 -59 13
-127 29 -131 31 -194 41 -434 66 -195 21 -382 56 -534 100 -228 65 -360 139
-461 255 -73 86 -101 134 -155 265 -48 119 -89 177 -159 229 -82 61 -159 43
-184 -42 -19 -61 -15 -208 7 -294 11 -42 37 -111 59 -154 66 -132 74 -191 28
-212 -12 -5 -47 -15 -77 -21 -110 -23 -150 -71 -113 -139 35 -65 109 -97 379
-167 170 -43 263 -78 695 -257 184 -76 399 -161 478 -188 143 -50 422 -123
517 -136 28 -3 57 -13 67 -21 17 -15 235 -63 401 -87 55 -9 102 -17 104 -20 2
-2 -9 -73 -26 -158 -38 -194 -94 -529 -121 -723 -23 -169 -68 -515 -77 -588
-4 -38 -17 -65 -59 -124 -230 -321 -341 -588 -453 -1098 -22 -99 -49 -218 -60
-265 -12 -47 -21 -90 -21 -96 0 -12 296 -88 490 -127 l115 -23 6 -444 c4 -245
14 -548 22 -675 30 -434 49 -1137 32 -1213 -5 -22 -3 -42 5 -57 18 -34 6 -240
-20 -342 -41 -158 -37 -349 10 -457 27 -64 91 -130 152 -156 110 -47 300 -36
400 24 110 65 159 172 204 441 37 225 51 264 148 408 46 69 94 151 106 183 31
80 38 205 16 271 -29 86 -114 153 -233 184 l-53 13 0 162 c0 344 45 775 141
1361 18 105 35 197 39 204 5 8 59 15 156 20 133 8 339 31 413 45 25 5 40 -10
187 -188 429 -517 718 -898 918 -1212 l75 -117 -43 -54 c-110 -134 -111 -271
-4 -408 49 -61 150 -126 280 -178 67 -27 137 -61 157 -75 20 -15 115 -106 211
-204 208 -210 247 -234 371 -235 67 0 83 4 150 37 253 126 310 323 161 566
-47 78 -151 202 -194 231 -39 27 -152 186 -143 201 9 14 -22 60 -39 60 -20 0
-312 455 -568 885 -160 269 -578 1004 -578 1017 0 3 28 22 62 43 71 44 237
176 287 229 l34 35 -113 173 c-63 95 -155 236 -206 313 -107 164 -186 255
-366 422 -131 123 -131 123 -133 171 -1 26 -7 57 -14 70 -11 21 -13 21 -41 7
l-30 -16 0 116 c0 182 37 328 133 522 72 145 196 328 222 326 11 -1 85 -27
164 -58 l143 -57 29 28 c26 25 33 27 57 17 15 -6 86 -37 157 -69 294 -128 546
-193 1060 -269 470 -70 586 -92 752 -141 265 -78 352 -90 410 -54 70 42 61 95
-32 184 -31 30 -55 62 -55 73 0 34 38 71 144 142 133 89 203 168 261 293 34
73 33 112 -5 150 -29 29 -33 30 -103 26 -90 -5 -157 -34 -264 -116 -331 -251
-639 -228 -1358 103 -180 83 -262 113 -537 196 l-148 44 0 31 c0 27 -7 34 -77
71 -104 55 -204 94 -343 133 -63 17 -138 42 -166 56 -60 27 -148 52 -334 94
-74 16 -145 32 -157 35 -27 6 -68 66 -78 111 l-6 31 188 6 c273 8 498 43 740
113 288 83 599 251 786 424 201 187 413 496 528 773 17 42 33 76 35 74 6 -5
-53 -218 -85 -307 -16 -46 -28 -86 -27 -87 2 -2 27 47 56 109 195 416 292 788
307 1183 13 356 -52 683 -207 1040 -100 231 -200 384 -352 541 -43 44 -97 108
-120 141 -82 117 -242 295 -337 375 -313 261 -758 429 -1253 473 l-78 7 -40
76 c-148 275 -525 565 -860 664 -36 10 -96 26 -135 34 -86 18 -349 26 -430 14z"/>
</g>
</svg>
