<svg width="26" height="41" viewBox="0 0 26 41" fill="none" xmlns="http://www.w3.org/2000/svg">
<path d="M1.46353 38.224H3.46353V0.260422H1.46353V38.224Z" fill="#BDBCBC"/>
<path d="M3.72397 0H1.20834V38.4844H3.72397V0ZM3.20834 0.515625V37.9635H1.71876V0.515625H3.20834Z" fill="#231F20"/>
<path d="M1.46353 1.9323L24.9531 11.625L1.46353 19.2813V1.9323Z" fill="#EF2D2A"/>
<mask id="mask0_1_48" style="mask-type:luminance" maskUnits="userSpaceOnUse" x="1" y="1" width="25" height="19">
<path d="M1.0625 1.32812H25.724V19.9948H1.0625V1.32812Z" fill="white"/>
</mask>
<g mask="url(#mask0_1_48)">
<path d="M1.20834 1.54688V19.6354L1.87501 19.4167L24.3646 12.0938L25.7031 11.6563L24.4011 11.1146L1.91147 1.83333L1.20834 1.54688ZM1.71876 2.31771L24.2083 11.599L1.71876 18.9271V2.31771Z" fill="#231F20"/>
</g>
<path d="M1.71875 2.95834V2.31772L1.77083 2.33855C1.75 2.54168 1.72917 2.75001 1.71875 2.95834Z" fill="#B1211E"/>
<path d="M1.71875 18.9271V4.125C2.02604 9.61979 6.64062 14.1094 12.1354 14.1094C15.4323 14.1094 18.4167 12.4844 20.3385 10L24.2083 11.599L1.71875 18.9271Z" fill="#9D1C19"/>
<mask id="mask1_1_48" style="mask-type:luminance" maskUnits="userSpaceOnUse" x="0" y="34" width="6" height="7">
<path d="M0 34.6615H5.0625V40.5573H0V34.6615Z" fill="white"/>
</mask>
<g mask="url(#mask1_1_48)">
<path d="M2.5052 40.3073C1.27603 40.3073 0.276031 39.2917 0.276031 38.0469C0.276031 36.8021 1.27603 35.7865 2.5052 35.7865C3.73436 35.7865 4.73436 36.8021 4.73436 38.0469C4.73436 39.2917 3.73436 40.3073 2.5052 40.3073Z" fill="#EF2D2A"/>
<path d="M2.50521 35.526C1.13542 35.526 0.015625 36.6563 0.015625 38.0469C0.015625 39.4375 1.13542 40.5677 2.50521 40.5677C3.875 40.5677 4.99479 39.4375 4.99479 38.0469C4.99479 36.6563 3.875 35.526 2.50521 35.526ZM2.50521 36.0469C3.59375 36.0469 4.47917 36.9427 4.47917 38.0469C4.47917 39.151 3.59375 40.0469 2.50521 40.0469C1.41667 40.0469 0.53125 39.151 0.53125 38.0469C0.53125 36.9427 1.41667 36.0469 2.50521 36.0469Z" fill="#231F20"/>
</g>
</svg>
