<svg width="54" height="23" viewBox="0 0 54 23" fill="none" xmlns="http://www.w3.org/2000/svg">
<path d="M1.29166 20.9583L4.72916 15C4.91145 15.1354 5.1302 15.2083 5.35416 15.2083H42.0625L41.9167 14.7396H5.35416C5.02604 14.7396 4.76041 14.474 4.76041 14.1406V2.01043C4.76041 1.67709 5.02604 1.41147 5.35416 1.41147H44.8177C45.1562 1.41147 45.4219 1.67709 45.4219 2.01043V11.125L45.8854 11.2656V2.58334L49.2135 6.56772L49.151 12.2813L49.6198 12.4271L49.6823 6.48439C49.6823 6.4323 49.6667 6.38022 49.625 6.33334L45.8698 1.83855C45.7865 1.32293 45.3385 0.942719 44.8177 0.942719H5.35416C4.86979 0.947927 4.4427 1.28126 4.32291 1.76043L0.703121 6.18751C0.67187 6.22397 0.645829 6.27605 0.645829 6.33334V21.1927C0.64062 21.2188 0.64062 21.2552 0.645829 21.2813V21.3073C0.645829 21.3073 0.666663 21.3333 0.677079 21.3542V21.375L0.718746 21.3958H0.807287L44.0208 21.5365L43.8854 21.099L1.28645 20.9636L1.29166 20.9583ZM1.11979 6.41668L4.29166 2.54168V14.1406C4.29687 14.3073 4.33854 14.474 4.40625 14.6198L1.11979 20.3177V6.41668ZM49.0937 18.3958C49.2344 18.25 49.3958 18.1198 49.5677 18.0052L49.5312 21.3438C49.5052 21.3958 49.4479 21.4323 49.3854 21.4427V21.4688C49.3854 21.4688 49.3698 21.5 49.3542 21.5156L49.3073 21.5417H47.3698L47.5937 21.1042H48.8906L48.1979 19.8906L48.4479 19.3854L49.0729 20.4688L49.0937 18.3906V18.3958ZM44.9635 9.0573L44.0417 10.0052H44.0469C44.0469 10.0052 44.0417 10.0052 44.0417 10.0104C43.9687 10.0833 43.8698 10.1198 43.7708 10.1198C43.6667 10.1198 43.5625 10.0781 43.4844 10C43.3333 9.84376 43.3333 9.59376 43.4844 9.44272L44.3958 8.50522C44.5417 8.37501 44.7708 8.3698 44.9115 8.50001C45.0833 8.64064 45.1042 8.89064 44.9635 9.0573ZM42.1562 7.82814C42.375 7.8073 42.5677 7.96355 42.5885 8.1823L42.5469 9.52605C42.5417 9.7448 42.3646 9.91668 42.151 9.91668H42.1406C41.9219 9.90626 41.75 9.72397 41.7552 9.50522L41.7969 8.18751C41.8177 8.00001 41.9687 7.84897 42.151 7.83334L42.1562 7.82814ZM39.1406 14.3594C38.9896 14.2031 38.9896 13.9531 39.1406 13.7969L40.0833 12.875C40.0833 12.875 40.1146 12.849 40.1302 12.8386C40.2969 12.6927 40.5521 12.7083 40.6979 12.8802C40.8333 13.0469 40.8125 13.2969 40.6458 13.4427L39.6979 14.3646C39.625 14.4479 39.526 14.4792 39.4271 14.4792C39.3229 14.4792 39.2135 14.4375 39.1406 14.3594ZM41.0729 10.4219C40.9896 10.5052 40.8646 10.5573 40.7396 10.5573C40.625 10.5573 40.5052 10.5104 40.4167 10.4219L39.4792 9.48439C39.4792 9.48439 39.4635 9.46355 39.4583 9.45834C39.2865 9.28126 39.3021 8.9948 39.4792 8.82814C39.6615 8.64584 39.9583 8.64584 40.1354 8.82814L41.0729 9.76043C41.25 9.94272 41.25 10.2396 41.0729 10.4219ZM40.1875 11.9219L38.8437 11.9583H38.8229C38.599 11.9583 38.4219 11.7813 38.4219 11.5625C38.4219 11.3386 38.599 11.1615 38.8229 11.1615L40.1667 11.1198H40.1823C40.401 11.1198 40.5729 11.2865 40.5729 11.5052C40.5833 11.724 40.4115 11.9063 40.1875 11.9167V11.9219ZM52.3542 13.8854L49.1719 12.9011L48.7552 12.7656L45.8437 11.8594L45.4271 11.7344L43.1615 11.0313C42.9062 10.9427 42.625 10.9427 42.3594 11.0313C41.6979 11.2552 41.3437 11.9688 41.5625 12.6302L42.2917 14.9688L42.4167 15.3854L44.0521 20.6458L44.1719 21.0313L44.4167 21.8229C44.5573 22.2396 44.8958 22.5573 45.3177 22.6511C45.4271 22.6771 45.526 22.6875 45.6302 22.6875C45.9687 22.6875 46.2917 22.5573 46.526 22.3125L47.1615 21.0417L47.3594 20.6511L47.901 19.5729L48.125 19.1198L48.2552 18.8594C48.3698 18.625 48.5208 18.4167 48.7031 18.2344C48.8281 18.1042 48.9687 17.9844 49.125 17.8906C49.2135 17.8281 49.2969 17.7761 49.3802 17.7344L52.7917 16.0365L52.8698 15.9844C53.0156 15.8438 53.1302 15.6615 53.1875 15.4583C53.3906 14.7969 53.0156 14.0886 52.3542 13.8854ZM52.4427 15.5729L49.1302 17.2188L49.1146 17.2292C48.974 17.2969 48.8385 17.3802 48.7083 17.474C48.3229 17.7448 48.0052 18.099 47.7812 18.5156C47.7552 18.5521 47.7396 18.5833 47.724 18.6198L47.5521 18.9636L46.7135 20.6563L46.5208 21.0417L46.0677 21.9531C45.901 22.1042 45.6771 22.1563 45.4583 22.1042C45.2292 22.0469 45.0469 21.875 44.974 21.6511L44.7917 21.0417L44.6667 20.6511L43.0312 15.3906L42.9062 14.974L42.1198 12.4583C42.0417 12.2188 42.1094 11.9531 42.2917 11.7813C42.4167 11.6563 42.5885 11.5833 42.7656 11.5833C42.8385 11.5833 42.9167 11.5938 42.9896 11.6146L45.4271 12.3802L45.8437 12.5104L48.75 13.4271L49.1667 13.5573L52.1406 14.4948C52.2396 14.5208 52.3229 14.5677 52.3958 14.6354C52.6719 14.8854 52.6927 15.3073 52.4427 15.5833V15.5729Z" fill="#020303"/>
</svg>
