<svg width="78" height="78" viewBox="0 0 78 78" fill="none" xmlns="http://www.w3.org/2000/svg">
<path d="M76.3229 38.5674C76.3229 39.7913 76.2656 41.0101 76.1458 42.2236C76.026 43.4372 75.8489 44.6455 75.6093 45.8434C75.3698 47.0413 75.0729 48.2236 74.7187 49.3903C74.3645 50.5622 73.9531 51.708 73.4895 52.8382C73.0208 53.9632 72.5 55.0674 71.9218 56.1455C71.3489 57.2184 70.7187 58.2653 70.0416 59.2809C69.3645 60.2966 68.6354 61.2757 67.8645 62.2184C67.0885 63.1663 66.2708 64.0674 65.4062 64.932C64.5416 65.7966 63.6406 66.6143 62.6927 67.3903C61.75 68.1611 60.7708 68.8903 59.7552 69.5674C58.7395 70.2445 57.6927 70.8747 56.6198 71.4476C55.5416 72.0257 54.4375 72.5466 53.3125 73.0153C52.1823 73.4788 51.0312 73.8903 49.8645 74.2445C48.6979 74.5986 47.5156 74.8955 46.3177 75.1351C45.1198 75.3747 43.9114 75.5518 42.6979 75.6716C41.4791 75.7913 40.2656 75.8538 39.0416 75.8538C37.8229 75.8538 36.6041 75.7913 35.3854 75.6716C34.1718 75.5518 32.9687 75.3747 31.7708 75.1351C30.5729 74.8955 29.3906 74.5986 28.2187 74.2445C27.052 73.8903 25.901 73.4788 24.776 73.0153C23.6458 72.5466 22.5416 72.0257 21.4687 71.4476C20.3906 70.8747 19.3437 70.2445 18.3281 69.5674C17.3125 68.8903 16.3333 68.1611 15.3906 67.3903C14.4479 66.6143 13.5416 65.7966 12.677 64.932C11.8177 64.0674 10.9948 63.1663 10.2239 62.2184C9.44788 61.2757 8.71871 60.2966 8.04163 59.2809C7.36454 58.2653 6.73954 57.2184 6.16142 56.1455C5.58329 55.0674 5.06246 53.9632 4.59892 52.8382C4.13017 51.708 3.71871 50.5622 3.36454 49.3903C3.01037 48.2236 2.7135 47.0413 2.47392 45.8434C2.23954 44.6455 2.05725 43.4372 1.93746 42.2236C1.81767 41.0101 1.76038 39.7913 1.76038 38.5674C1.76038 37.3486 1.81767 36.1299 1.93746 34.9163C2.05725 33.6976 2.23954 32.4945 2.47392 31.2966C2.7135 30.0986 3.01037 28.9163 3.36454 27.7445C3.71871 26.5778 4.13017 25.4268 4.59892 24.3018C5.06246 23.1716 5.58329 22.0726 6.16142 20.9945C6.73954 19.9163 7.36454 18.8695 8.04163 17.8538C8.71871 16.8382 9.44788 15.859 10.2239 14.9163C10.9948 13.9736 11.8177 13.0674 12.677 12.2028C13.5416 11.3434 14.4479 10.5205 15.3906 9.74967C16.3333 8.97363 17.3125 8.24447 18.3281 7.56738C19.3437 6.8903 20.3906 6.2653 21.4687 5.68717C22.5416 5.11426 23.6458 4.58822 24.776 4.12467C25.901 3.65592 27.052 3.24447 28.2187 2.8903C29.3906 2.53613 30.5729 2.23926 31.7708 1.99967C32.9687 1.7653 34.1718 1.58301 35.3854 1.46322C36.6041 1.34342 37.8229 1.28613 39.0416 1.28613C40.2656 1.28613 41.4791 1.34342 42.6979 1.46322C43.9114 1.58301 45.1198 1.7653 46.3177 1.99967C47.5156 2.23926 48.6979 2.53613 49.8645 2.8903C51.0312 3.24447 52.1823 3.65592 53.3125 4.12467C54.4375 4.58822 55.5416 5.11426 56.6198 5.68717C57.6927 6.2653 58.7395 6.8903 59.7552 7.56738C60.7708 8.24447 61.75 8.97363 62.6927 9.74967C63.6406 10.5205 64.5416 11.3434 65.4062 12.2028C66.2708 13.0674 67.0885 13.9736 67.8645 14.9163C68.6354 15.859 69.3645 16.8382 70.0416 17.8538C70.7187 18.8695 71.3489 19.9163 71.9218 20.9945C72.5 22.0726 73.0208 23.1716 73.4895 24.3018C73.9531 25.4268 74.3645 26.5778 74.7187 27.7445C75.0729 28.9163 75.3698 30.0986 75.6093 31.2966C75.8489 32.4945 76.026 33.6976 76.1458 34.9163C76.2656 36.1299 76.3229 37.3486 76.3229 38.5674Z" fill="#FFF7D8"/>
<path d="M76.3229 38.5674C76.3229 39.7913 76.2656 41.0101 76.1458 42.2236C76.026 43.4372 75.849 44.6455 75.6094 45.8434C75.3698 47.0413 75.0729 48.2236 74.7188 49.3903C74.3646 50.5622 73.9531 51.708 73.4896 52.8382C73.0208 53.9632 72.5 55.0674 71.9219 56.1455C71.349 57.2184 70.7188 58.2653 70.0417 59.2809C69.3646 60.2966 68.6354 61.2757 67.8646 62.2184C67.0885 63.1663 66.2708 64.0674 65.4063 64.932C64.5417 65.7966 63.6406 66.6143 62.6927 67.3903C61.75 68.1611 60.7708 68.8903 59.7552 69.5674C58.7396 70.2445 57.6927 70.8747 56.6198 71.4476C55.5417 72.0257 54.4375 72.5466 53.3125 73.0153C52.1823 73.4788 51.0313 73.8903 49.8646 74.2445C48.6979 74.5986 47.5156 74.8955 46.3177 75.1351C45.1198 75.3747 43.9115 75.5518 42.6979 75.6716C41.4792 75.7913 40.2656 75.8538 39.0417 75.8538C38.1823 75.8538 37.3177 75.8278 36.4688 75.7497C37.6354 75.6663 38.7917 75.5361 39.9479 75.3434C41.099 75.1559 42.2396 74.9163 43.3646 74.6195C44.4948 74.3226 45.6094 73.9736 46.7031 73.5726C47.8021 73.1716 48.875 72.7236 49.9323 72.2236C50.9844 71.7184 52.0156 71.1716 53.0156 70.5726C54.0156 69.9736 54.9896 69.3278 55.9323 68.6403C56.875 67.9528 57.7813 67.2184 58.6563 66.4424C59.526 65.6716 60.3646 64.8538 61.1615 64.0049C61.9583 63.1507 62.7083 62.2601 63.4219 61.3382C64.1354 60.4111 64.8073 59.458 65.4271 58.4684C66.0521 57.4841 66.625 56.4684 67.1563 55.4268C67.6823 54.3903 68.1615 53.3226 68.5885 52.2393C69.0156 51.1507 69.3958 50.0466 69.7188 48.9268C70.0417 47.807 70.3125 46.6716 70.5313 45.5257C70.75 44.3799 70.9115 43.2236 71.0208 42.0622C71.1354 40.9007 71.1875 39.7341 71.1875 38.5674C71.1875 37.4007 71.1354 36.234 71.0208 35.0726C70.9115 33.9111 70.75 32.7601 70.5313 31.6091C70.3125 30.4632 70.0417 29.333 69.7188 28.208C69.3958 27.0882 69.0156 25.9841 68.5885 24.9007C68.1615 23.8122 67.6823 22.7497 67.1563 21.708C66.625 20.6663 66.0521 19.6559 65.4271 18.6663C64.8073 17.682 64.1354 16.7236 63.4219 15.8018C62.7083 14.8747 61.9583 13.9893 61.1615 13.1351C60.3646 12.2809 59.526 11.4684 58.6563 10.6924C57.7813 9.91634 56.875 9.18717 55.9323 8.49447C54.9896 7.80697 54.0156 7.16113 53.0156 6.56738C52.0156 5.96842 50.9844 5.41634 49.9323 4.91634C48.875 4.41634 47.8021 3.96322 46.7031 3.56217C45.6094 3.16113 44.4948 2.81217 43.3646 2.52051C42.2396 2.22363 41.099 1.97884 39.9479 1.79134C38.7917 1.60384 37.6354 1.46842 36.4688 1.3903C37.3177 1.31217 38.1823 1.28613 39.0417 1.28613C40.2656 1.28613 41.4792 1.34342 42.6979 1.46322C43.9115 1.58301 45.1198 1.7653 46.3177 1.99967C47.5156 2.23926 48.6979 2.53613 49.8646 2.8903C51.0313 3.24447 52.1823 3.65592 53.3125 4.12467C54.4375 4.58822 55.5417 5.11426 56.6198 5.68717C57.6927 6.2653 58.7396 6.8903 59.7552 7.56738C60.7708 8.24447 61.75 8.97363 62.6927 9.74967C63.6406 10.5205 64.5417 11.3434 65.4063 12.2028C66.2708 13.0674 67.0885 13.9736 67.8646 14.9163C68.6354 15.859 69.3646 16.8382 70.0417 17.8538C70.7188 18.8695 71.349 19.9163 71.9219 20.9945C72.5 22.0726 73.0208 23.1716 73.4896 24.3018C73.9531 25.4268 74.3646 26.5778 74.7188 27.7445C75.0729 28.9163 75.3698 30.0986 75.6094 31.2966C75.849 32.4945 76.026 33.6976 76.1458 34.9163C76.2656 36.1299 76.3229 37.3486 76.3229 38.5674Z" fill="#EECDC6"/>
<path d="M13.2656 24.0054C12.9479 23.8491 12.625 23.8283 12.2917 23.9377C11.9583 24.047 11.7083 24.2554 11.5417 24.5679C10.5573 26.495 9.78646 28.5002 9.22917 30.5939V30.5991C8.53646 33.2137 8.1875 35.87 8.1875 38.5679C8.1875 38.922 8.3125 39.2293 8.5625 39.4793C8.8125 39.7293 9.11979 39.8543 9.47396 39.8543C9.82813 39.8543 10.1302 39.7293 10.3802 39.4793C10.6354 39.2293 10.7604 38.922 10.7604 38.5679C10.7552 36.0939 11.0729 33.6564 11.7135 31.2606C12.2187 29.3439 12.9271 27.5002 13.8333 25.7345C13.9896 25.4168 14.0156 25.0887 13.901 24.7554C13.7917 24.4168 13.5781 24.1668 13.2656 24.0054Z" fill="white"/>
<path d="M39.0417 7.71387C36.3386 7.71387 33.6823 8.05762 31.073 8.75033C30.7292 8.84408 30.4688 9.04199 30.2917 9.34929C30.1094 9.65658 30.0678 9.9847 30.1615 10.3285C30.25 10.6722 30.4532 10.9326 30.7605 11.1097C31.0678 11.2868 31.3907 11.3285 31.7344 11.2399C34.1303 10.5993 36.5625 10.2816 39.0417 10.2868C39.3959 10.2868 39.698 10.1618 39.9532 9.90658C40.2032 9.65658 40.3282 9.35449 40.3282 9.00033C40.3282 8.64616 40.2032 8.34408 39.9532 8.08887C39.698 7.83887 39.3959 7.71387 39.0417 7.71387Z" fill="white"/>
<path d="M27.4739 11.5726C27.4739 11.9268 27.3437 12.2288 27.0937 12.4788C26.8437 12.7288 26.5416 12.8538 26.1875 12.8538C25.8333 12.8538 25.526 12.7288 25.276 12.4788C25.026 12.2288 24.901 11.9268 24.901 11.5726C24.901 11.2132 25.026 10.9111 25.276 10.6611C25.526 10.4111 25.8333 10.2861 26.1875 10.2861C26.5416 10.2861 26.8437 10.4111 27.0937 10.6611C27.3437 10.9111 27.4739 11.2132 27.4739 11.5726Z" fill="white"/>
<path d="M39.0417 16.7139L59.6146 38.568L39.0417 60.4222V50.141H21.0417C20.7032 50.141 20.375 50.0732 20.0625 49.943C19.7448 49.8128 19.4688 49.6253 19.2292 49.3857C18.9844 49.141 18.8021 48.8649 18.6719 48.5524C18.5417 48.2347 18.474 47.9066 18.474 47.568V29.568C18.474 29.2295 18.5417 28.9014 18.6719 28.5889C18.8021 28.2712 18.9844 27.9951 19.2292 27.7555C19.4688 27.5107 19.7448 27.3285 20.0625 27.1982C20.375 27.0628 20.7032 27.0003 21.0417 27.0003H39.0417V16.7139Z" fill="#F5DEA8"/>
<mask id="mask0_80_32" style="mask-type:luminance" maskUnits="userSpaceOnUse" x="0" y="0" width="78" height="78">
<path d="M0.473999 0H77.7969V77.3333H0.473999V0Z" fill="white"/>
</mask>
<g mask="url(#mask0_80_32)">
<path d="M39.0417 0C37.7813 0 36.5209 0.0625 35.2605 0.1875C34.0053 0.307292 32.7552 0.494792 31.5157 0.739584C30.2813 0.989584 29.0573 1.29167 27.849 1.66146C26.6355 2.02604 25.448 2.45313 24.2813 2.9375C23.1146 3.41667 21.974 3.95833 20.8594 4.55208C19.7448 5.15104 18.6667 5.79687 17.6146 6.5C16.5625 7.20313 15.5521 7.95313 14.573 8.75521C13.599 9.55729 12.6615 10.401 11.7709 11.2969C10.875 12.1875 10.0313 13.125 9.22921 14.099C8.42712 15.0781 7.67712 16.0885 6.974 17.1406C6.27087 18.1927 5.62504 19.276 5.02608 20.3854C4.43233 21.5 3.89067 22.6406 3.4115 23.8073C2.92712 24.974 2.50004 26.1667 2.13546 27.375C1.76567 28.5833 1.46358 29.8073 1.21358 31.0469C0.96879 32.2813 0.781291 33.5313 0.661499 34.7865C0.536499 36.0469 0.473999 37.3073 0.473999 38.5677C0.473999 39.8333 0.536499 41.0938 0.661499 42.349C0.781291 43.6042 0.96879 44.8542 1.21358 46.0938C1.46358 47.3333 1.76567 48.5573 2.13546 49.7656C2.50004 50.974 2.92712 52.1615 3.4115 53.3281C3.89067 54.4948 4.43233 55.6354 5.02608 56.75C5.62504 57.8646 6.27087 58.9479 6.974 59.9948C7.67712 61.0469 8.42712 62.0625 9.22921 63.0365C10.0313 64.0104 10.875 64.9479 11.7709 65.8385C12.6615 66.7344 13.599 67.5833 14.573 68.3854C15.5521 69.1823 16.5625 69.9375 17.6146 70.6354C18.6667 71.3385 19.7448 71.9896 20.8594 72.5833C21.974 73.1771 23.1146 73.7188 24.2813 74.2031C25.448 74.6875 26.6355 75.1094 27.849 75.4792C29.0573 75.8438 30.2813 76.151 31.5157 76.3958C32.7552 76.6406 34.0053 76.8281 35.2605 76.9531C36.5209 77.0781 37.7813 77.1354 39.0417 77.1354C40.3073 77.1354 41.5677 77.0781 42.823 76.9531C44.0782 76.8281 45.3282 76.6406 46.5678 76.3958C47.8073 76.151 49.0313 75.8438 50.2396 75.4792C51.448 75.1094 52.6355 74.6875 53.8021 74.2031C54.9688 73.7188 56.1094 73.1771 57.224 72.5833C58.3386 71.9896 59.4219 71.3385 60.4688 70.6354C61.5209 69.9375 62.5313 69.1823 63.5105 68.3854C64.4844 67.5833 65.4219 66.7344 66.3125 65.8385C67.2084 64.9479 68.0573 64.0104 68.8542 63.0365C69.6563 62.0625 70.4115 61.0469 71.1094 59.9948C71.8125 58.9479 72.4636 57.8646 73.0573 56.75C73.6511 55.6354 74.1928 54.4948 74.6771 53.3281C75.1563 52.1615 75.5834 50.974 75.948 49.7656C76.3178 48.5573 76.625 47.3333 76.8698 46.0938C77.1146 44.8542 77.3021 43.6042 77.4271 42.349C77.5469 41.0938 77.6094 39.8333 77.6094 38.5677C77.6094 37.3073 77.5469 36.0469 77.4219 34.7917C77.2969 33.5313 77.1094 32.2865 76.8646 31.0469C76.6146 29.8073 76.3073 28.5833 75.9428 27.3802C75.573 26.1719 75.1459 24.9844 74.6615 23.8177C74.1771 22.651 73.6407 21.5104 73.0417 20.3958C72.448 19.2813 71.8021 18.2031 71.099 17.151C70.3959 16.1042 69.6459 15.0885 68.8438 14.1146C68.0417 13.1354 67.1928 12.2031 66.3021 11.3073C65.4063 10.4167 64.474 9.56771 63.5 8.76563C62.5209 7.96875 61.5105 7.21354 60.4584 6.51563C59.4115 5.8125 58.3282 5.16146 57.2136 4.56771C56.099 3.96875 54.9636 3.43229 53.7969 2.94792C52.6303 2.46354 51.4428 2.03646 50.2344 1.67187C49.0261 1.30208 47.8021 0.994792 46.5625 0.75C45.323 0.5 44.0782 0.3125 42.823 0.1875C41.5625 0.0625 40.3073 0 39.0417 0ZM39.0417 74.5677C37.8646 74.5677 36.6875 74.5104 35.5157 74.3906C34.3386 74.276 33.1771 74.1042 32.0209 73.875C30.8646 73.6458 29.7188 73.3594 28.5938 73.0156C27.4636 72.6719 26.3542 72.276 25.2657 71.8281C24.1771 71.375 23.1146 70.8698 22.073 70.3177C21.0313 69.7604 20.0209 69.1563 19.0417 68.5C18.0625 67.8438 17.1146 67.1406 16.2032 66.3958C15.2969 65.6458 14.4219 64.8542 13.5886 64.0208C12.7552 63.1875 11.9636 62.3177 11.2136 61.4063C10.4688 60.4948 9.76567 59.5469 9.10942 58.5677C8.45837 57.5885 7.849 56.5781 7.29692 55.5365C6.73963 54.5 6.23442 53.4323 5.7865 52.3438C5.33337 51.2552 4.93754 50.1458 4.59379 49.0208C4.25004 47.8906 3.96879 46.75 3.73442 45.5938C3.50525 44.4375 3.33337 43.2708 3.21879 42.099C3.10421 40.9219 3.04692 39.75 3.04692 38.5677C3.04692 37.3906 3.10421 36.2135 3.21879 35.0417C3.33337 33.8646 3.50525 32.7031 3.73442 31.5469C3.96879 30.3906 4.25004 29.25 4.59379 28.1198C4.93754 26.9896 5.33337 25.8802 5.7865 24.7917C6.23442 23.7031 6.73963 22.6406 7.29692 21.599C7.849 20.5625 8.45837 19.5521 9.10942 18.5677C9.76567 17.5885 10.4688 16.6458 11.2136 15.7344C11.9636 14.8229 12.7552 13.9479 13.5886 13.1146C14.4219 12.2813 15.2969 11.4896 16.2032 10.7448C17.1146 9.99479 18.0625 9.29167 19.0417 8.63542C20.0209 7.98437 21.0313 7.375 22.073 6.82292C23.1146 6.26563 24.1771 5.76042 25.2657 5.3125C26.3542 4.85937 27.4636 4.46354 28.5938 4.11979C29.7188 3.78125 30.8646 3.49479 32.0209 3.26042C33.1771 3.03125 34.3386 2.85937 35.5157 2.74479C36.6875 2.63021 37.8646 2.57292 39.0417 2.57292C40.2188 2.57292 41.3959 2.63021 42.573 2.74479C43.7448 2.85937 44.9063 3.03125 46.0625 3.26042C47.224 3.49479 48.3646 3.78125 49.4896 4.11979C50.6198 4.46354 51.7292 4.85937 52.8178 5.3125C53.9063 5.76042 54.974 6.26563 56.0105 6.82292C57.0521 7.375 58.0625 7.98437 59.0417 8.63542C60.0209 9.29167 60.9688 9.99479 61.8803 10.7448C62.7917 11.4896 63.6615 12.2813 64.4948 13.1146C65.3282 13.9479 66.1198 14.8229 66.8698 15.7344C67.6146 16.6458 68.3178 17.5885 68.974 18.5677C69.6303 19.5521 70.2344 20.5625 70.7917 21.599C71.3438 22.6406 71.849 23.7031 72.3021 24.7917C72.75 25.8802 73.1459 26.9896 73.4896 28.1198C73.8334 29.25 74.1198 30.3906 74.349 31.5469C74.5782 32.7031 74.75 33.8646 74.8646 35.0417C74.9844 36.2135 75.0417 37.3906 75.0417 38.5677C75.0365 39.7448 74.9792 40.9219 74.8646 42.0938C74.7448 43.2708 74.573 44.4323 74.3438 45.5885C74.1094 46.7448 73.823 47.8854 73.4792 49.0156C73.1355 50.1406 72.7396 51.25 72.2865 52.3385C71.8386 53.4271 71.3334 54.4896 70.7761 55.5313C70.2188 56.5677 69.6146 57.5781 68.9584 58.5573C68.3073 59.5365 67.6042 60.4844 66.8542 61.3958C66.1094 62.3073 65.3178 63.1771 64.4844 64.0104C63.6511 64.8438 62.7813 65.6354 61.8698 66.3802C60.9584 67.1302 60.0105 67.8333 59.0313 68.4896C58.0521 69.1406 57.0417 69.75 56.0053 70.3021C54.9636 70.8594 53.9011 71.3646 52.8125 71.8177C51.724 72.2656 50.6146 72.6667 49.4896 73.0052C48.3594 73.349 47.2188 73.6354 46.0625 73.8698C44.9063 74.099 43.7448 74.2708 42.5678 74.3906C41.3959 74.5052 40.2188 74.5625 39.0417 74.5677Z" fill="#A4A68B"/>
</g>
<path d="M39.9792 15.8335C39.7969 15.6408 39.5781 15.5158 39.3229 15.4585C39.0625 15.4012 38.8125 15.4221 38.5677 15.5158C38.3229 15.6148 38.125 15.771 37.9792 15.9898C37.8281 16.2085 37.7552 16.4481 37.7552 16.7137V25.7137H21.0417C20.5313 25.7137 20.0417 25.8127 19.5677 26.0054C19.0937 26.2033 18.6771 26.4794 18.3177 26.8439C17.9531 27.2033 17.6771 27.62 17.4792 28.0939C17.2865 28.5679 17.1875 29.0575 17.1875 29.5679V47.5679C17.1875 48.0783 17.2865 48.5731 17.4792 49.0419C17.6771 49.5158 17.9531 49.9325 18.3177 50.2971C18.6771 50.6564 19.0937 50.9377 19.5677 51.1304C20.0417 51.3283 20.5313 51.4273 21.0417 51.4273H37.7552V60.4221C37.7552 60.6877 37.8281 60.9273 37.9792 61.146C38.125 61.3648 38.3229 61.521 38.5677 61.62C38.8125 61.7189 39.0625 61.7398 39.3229 61.6825C39.5781 61.6252 39.7969 61.5002 39.9792 61.3075L60.5469 39.4533C60.7813 39.2033 60.901 38.9117 60.901 38.5679C60.901 38.2294 60.7813 37.9325 60.5469 37.6877L39.9792 15.8335ZM40.3281 57.1825V50.1408C40.3281 49.7867 40.2031 49.4794 39.9531 49.2294C39.6979 48.9794 39.3958 48.8544 39.0417 48.8544H21.0417C20.6875 48.8544 20.3854 48.7294 20.1354 48.4794C19.8854 48.2242 19.7604 47.9221 19.7604 47.5679V29.5679C19.7604 29.2137 19.8854 28.9117 20.1354 28.6617C20.3854 28.4117 20.6875 28.2814 21.0417 28.2814H39.0417C39.3958 28.2814 39.6979 28.1564 39.9531 27.9064C40.2031 27.6564 40.3281 27.3544 40.3281 27.0002V19.9533L57.849 38.5679L40.3281 57.1825Z" fill="#A4A68B"/>
</svg>
