<svg width="169" height="142" viewBox="0 0 169 142" fill="none" xmlns="http://www.w3.org/2000/svg">
<mask id="mask0_73_532" style="mask-type:luminance" maskUnits="userSpaceOnUse" x="2" y="131" width="167" height="11">
<path d="M2.10413 131.094H168.948V141.953H2.10413V131.094Z" fill="white"/>
</mask>
<g mask="url(#mask0_73_532)">
<path d="M168.859 136.619C168.859 139.567 131.578 141.953 85.5833 141.953C39.5938 141.953 2.3125 139.567 2.3125 136.619C2.3125 133.677 39.5938 131.286 85.5833 131.286C131.578 131.286 168.859 133.677 168.859 136.619Z" fill="#C5EAE2"/>
</g>
<mask id="mask1_73_532" style="mask-type:luminance" maskUnits="userSpaceOnUse" x="156" y="120" width="13" height="17">
<path d="M156.328 120.948H168.948V136.802H156.328V120.948Z" fill="white"/>
</mask>
<g mask="url(#mask1_73_532)">
<path d="M159.297 136.573C159.297 136.573 154.156 128.948 157.432 126.027C159.437 124.24 160.422 129.975 160.422 129.975C160.422 129.975 161.557 119.032 165.26 121.339C167.068 122.469 163.265 132.558 163.265 132.558C163.265 132.558 165.969 127.313 168.104 128.751C171.552 131.079 163.338 136.495 163.338 136.495L159.297 136.573Z" fill="#A2DDD0"/>
</g>
<path d="M161.25 136.537L163.906 124.141C163.922 124.073 163.875 124.005 163.807 123.99C163.74 123.979 163.672 124.021 163.656 124.089L160.99 136.537H161.25Z" fill="#E0FBF0"/>
<path d="M162.661 136.511L167.552 130.558C167.599 130.506 167.589 130.422 167.536 130.381C167.479 130.334 167.401 130.344 167.359 130.396L162.328 136.516L162.661 136.511Z" fill="#E0FBF0"/>
<path d="M160.349 136.552L158.339 127.474C158.323 127.406 158.255 127.359 158.188 127.375C158.115 127.391 158.073 127.458 158.089 127.526L160.089 136.557L160.349 136.552Z" fill="#E0FBF0"/>
<mask id="mask2_73_532" style="mask-type:luminance" maskUnits="userSpaceOnUse" x="0" y="122" width="14" height="16">
<path d="M0.140625 122.667H13.3333V137.334H0.140625V122.667Z" fill="white"/>
</mask>
<g mask="url(#mask2_73_532)">
<path d="M9.79167 136.469C9.79167 136.469 15.9531 125.167 11.8646 123.73C9.15626 122.777 8.28126 133.349 8.28126 133.349C8.28126 133.349 8.03646 121.631 4.44792 123.131C1.73959 124.261 5.35938 132.719 5.35938 132.719C5.35938 132.719 1.42709 129.527 0.932298 131.532C0.140631 134.719 4.66667 136.527 4.66667 136.527L9.79167 136.469Z" fill="#A2DDD0"/>
</g>
<path d="M8.52083 136.484L11.5052 127.115C11.5208 127.068 11.4948 127.01 11.4427 126.995C11.3906 126.979 11.3333 127.005 11.3177 127.057L8.3125 136.49L8.52083 136.484Z" fill="#E0FBF0"/>
<path d="M7.74478 136.495L5.60416 126.281C5.59374 126.229 5.54166 126.193 5.48957 126.203C5.43749 126.219 5.40103 126.271 5.41145 126.323L7.54166 136.495H7.74478Z" fill="#E0FBF0"/>
<path d="M6.64584 136.505L2.57813 133C2.53647 132.968 2.47397 132.974 2.44272 133.015C2.40626 133.052 2.41147 133.114 2.45313 133.151L6.34897 136.51L6.64584 136.505Z" fill="#E0FBF0"/>
<path d="M115.01 133.984C115.01 133.984 106.458 117.875 113.406 118.041C116.266 118.109 118.734 130.922 118.734 130.922C118.734 130.922 118.172 119.234 123.891 121.067C126.984 122.062 122.302 130.922 122.302 130.922C122.302 130.922 126.542 125.203 128.922 126.828C132.807 129.474 125.682 134.026 125.682 134.026L115.01 133.984Z" fill="#A2DDD0"/>
<path d="M111.26 133.968C111.26 133.968 109.75 125.437 106.438 125.583C104.068 125.692 106.208 131.463 108.214 133.958C108.214 133.958 111.167 133.968 111.26 133.968Z" fill="#A2DDD0"/>
<path d="M117.089 133.989L113.526 121.364C113.5 121.281 113.411 121.229 113.333 121.255C113.245 121.276 113.198 121.364 113.219 121.453L116.76 133.989H117.089Z" fill="#E0FBF0"/>
<path d="M120.042 134L122.51 123.786C122.531 123.703 122.479 123.614 122.396 123.593C122.307 123.573 122.224 123.625 122.203 123.708L119.713 134H120.042Z" fill="#E0FBF0"/>
<path d="M109.698 133.959L107.417 128.266C107.385 128.183 107.292 128.141 107.208 128.177C107.13 128.209 107.089 128.302 107.12 128.386L109.354 133.959H109.698Z" fill="#E0FBF0"/>
<path d="M122.662 134.015L127.151 128.948C127.208 128.88 127.203 128.781 127.136 128.724C127.073 128.661 126.969 128.672 126.912 128.734L122.24 134.015H122.662Z" fill="#E0FBF0"/>
<path d="M103.583 74.4848C103.583 74.4848 103.823 74.2868 103.922 74.2087C104.135 74.0316 104.349 73.8493 104.578 73.6983C104.812 73.5368 105.068 73.4118 105.349 73.3545C105.609 73.3077 105.864 73.3077 106.114 73.2035C106.469 73.0577 106.745 72.7868 106.922 72.4535C106.969 72.5577 107.047 72.6358 107.177 72.5941C107.276 72.5577 107.323 72.49 107.344 72.3962C107.406 72.4691 107.505 72.4795 107.625 72.3754C107.864 72.1723 107.911 71.766 107.859 71.4795C107.729 70.7348 106.958 70.3962 106.276 70.5733C106.427 70.2816 106.64 70.042 106.823 69.7764C106.922 69.6306 107.146 69.3233 107.052 69.1254C106.849 68.6723 106.068 69.7087 105.963 69.8806C105.765 70.1983 105.588 70.4795 105.359 70.7764C105.088 71.1306 104.922 71.4223 104.583 71.6931C103.88 72.2452 103.109 72.7504 102.333 73.1879C102.323 73.1983 102.958 74.3077 103.583 74.4848Z" fill="#FFA18A"/>
<path d="M95.5937 121.505C95.6614 122.792 95.9219 124.005 95.8646 125.307C95.7552 127.812 95.0312 130.214 94.3125 132.563H92.1875C92.2135 131.208 92.2656 129.854 92.2604 128.5C92.25 127.193 92.0521 125.891 92.125 124.583C92.1614 123.943 92.2292 123.313 92.2031 122.667C92.1771 122.005 92.0729 121.339 91.9792 120.682C91.8333 119.651 91.7239 118.62 91.9114 117.594H96.125L96.1094 117.62C95.8177 118.891 95.526 120.182 95.5937 121.505Z" fill="#FFA18A"/>
<path d="M85.9585 121.505C85.896 122.792 85.6304 124.005 85.6877 125.307C85.797 127.812 86.5262 130.214 87.2397 132.563H89.3647C89.3387 131.208 89.2866 129.854 89.297 128.5C89.3022 127.193 89.5002 125.891 89.4272 124.583C89.3908 123.943 89.3231 123.313 89.3491 122.667C89.3804 122.005 89.4845 121.339 89.5783 120.682C89.7241 119.651 89.8335 118.62 89.646 117.594H85.4272L85.4429 117.62C85.7345 118.891 86.0314 120.182 85.9585 121.505Z" fill="#FFA18A"/>
<path d="M87.9636 75.7393C87.7865 75.5413 87.6146 75.3643 87.4688 75.1351C87.1042 74.5674 86.7344 74.0049 86.2084 73.5674L81.6407 75.1299L81.599 75.208C81.3229 75.8434 81.2709 76.5726 81.2917 77.2549C81.3177 78.0726 81.4844 78.9007 81.8021 79.6507C81.8907 79.859 82.2604 80.6143 82.6198 80.7549C82.6927 81.0101 82.7657 81.2601 82.8386 81.5153C82.9219 81.7965 82.974 82.1299 83.0938 82.4007L87.7188 80.8226C87.625 80.4945 87.5157 80.1715 87.3907 79.8538C87.6719 79.484 87.9167 79.0778 87.9584 78.609C87.9896 78.3174 87.9115 78.0361 87.8386 77.7549C87.7136 77.2653 87.6875 76.8903 87.9844 76.4632C88.0938 76.3018 88.1927 76.1768 88.125 75.9736C88.0886 75.8851 88.0313 75.8122 87.9636 75.7393Z" fill="#FFA18A"/>
<path d="M71.8489 94.651C72.1354 93.5833 72.8906 92.6563 73.5104 91.7656C74.125 90.8698 74.7604 89.9844 75.4375 89.1406C76.8333 87.401 78.4166 85.9531 80.3125 84.7917C80.8958 84.4271 81.4895 84.0521 81.8958 83.4844C82.2187 83.0365 82.427 82.5365 82.8385 82.1615C83.4062 81.6458 84.125 81.3802 84.8645 81.1927C85.7083 80.7969 87.5833 80.4635 87.625 80.4583C89.125 80.3698 89.5729 80.4323 90.9791 79.8698C92.4114 79.2917 94.6041 78.0208 95.7552 77.0365C98.0156 75.1042 100.677 73.7917 103.328 72.5C103.557 73.1823 104.62 74.224 104.62 74.224C102.312 76.0365 100.714 78.5781 98.3593 80.3438C97.0781 81.3021 95.8958 82.1615 95.0052 83.526C94.6927 84.0104 94.4218 84.5208 94.177 85.0365C93.7083 86.901 93.526 88.8281 93.651 90.7552C93.8073 93.1615 94.4791 95.4115 95.4479 97.6094C96.3802 99.7135 97.0885 101.797 97.4739 104.083C97.8698 106.417 98.1145 108.792 98.302 111.156C98.4531 113.161 98.5416 115.177 98.5729 117.193C93.5104 118.531 88.2864 118.703 83.1041 118.25C82.9166 114.63 83.0416 111 83.5052 107.401C83.7604 105.391 84.2031 103.417 84.5 101.411C84.8125 99.2604 84.6666 97.0781 84.0781 94.9844C83.5 92.9167 82.6562 90.9323 81.6041 89.0625C80.6302 90.3073 79.625 91.5365 78.5677 92.7135C78.0104 93.3281 77.4166 93.9271 76.7656 94.4479C79.1406 95.3542 81.5989 96.0052 84.1145 96.3802C84.1145 96.3802 83.5312 97.0104 83.2552 98.9688C83.2552 98.9688 80.5156 98.4844 79.1302 98.3229C77.8958 98.1823 76.651 98.1406 75.4218 97.9688C73.6927 97.7292 71.2552 96.875 71.8489 94.651Z" fill="#FFD471"/>
<path d="M80.2292 77.7396C80.3281 78.4323 80.474 79.1563 80.7344 79.8073C81.0781 80.6719 81.7917 81.1302 82.625 81.3542C82.5781 81.5 82.5313 81.6563 82.4948 81.8073C82.401 82.2292 82.3177 82.6615 82.3229 83.0885C82.3333 83.6927 82.5833 84.3698 83.1823 84.6146C83.776 84.8542 84.4531 84.5573 84.8646 84.1146C85.5781 83.3594 85.599 82.2344 85.0417 81.4427C85.4844 81.2552 85.8542 80.8958 86.1354 80.5052C86.4531 80.0573 86.6563 79.5313 86.7292 78.9896C86.8073 78.3854 86.6302 77.8021 86.6458 77.1979C86.6667 76.5417 87 75.9635 87.1771 75.349C87.2917 74.9583 87.3281 74.5573 87.3073 74.1615C87.3906 73.8438 87.4219 71.9948 85.3177 71.4115C83.026 70.776 81.4687 71.8698 80.6979 72.8333C80.1094 73.5729 79.7031 74.2396 79.7031 75.6198C79.7031 76.5833 80.1406 77.125 80.2292 77.7396Z" fill="#A55852"/>
<path d="M83.2969 98.6927C83.4948 98.724 83.6875 98.8125 83.8385 98.9427C83.9635 99.0573 84.0625 99.2083 84.2188 99.2813C84.4635 99.401 84.6927 99.2031 84.776 98.9792C84.8333 98.8125 84.8281 98.6302 84.849 98.4583C84.8698 98.2552 84.9427 98.0625 84.9531 97.8594C84.9792 97.4896 84.9167 96.9531 84.4583 96.6875L84.4792 96.8177C84.4115 96.901 84.3125 96.8594 84.2188 96.8438C84.0729 96.8177 84.0365 96.7813 83.9063 96.7135L83.901 96.7083C83.724 96.9687 83.5781 97.2917 83.4792 97.5833C83.3802 97.8906 83.2969 98.6927 83.2969 98.6927Z" fill="#FFA18A"/>
<path d="M86.1981 129.114C86.1668 128.89 86.1304 128.666 86.0939 128.442C86.0783 128.354 86.0679 128.317 86.0679 128.317C87.0575 128.51 88.3752 128.437 89.3179 128.369C89.3179 128.369 89.3335 128.692 89.3491 129.114H86.1981Z" fill="#98D4FC"/>
<path d="M89.4218 133.677C89.3958 132.922 89.4896 132.151 89.5208 131.396C89.5573 130.604 89.4687 129.021 89.4635 129.016C88.5052 129.084 87.1614 129.162 86.1562 128.964C86.1562 128.964 86.1614 129.011 86.1771 129.094C86.3125 129.818 86.4166 130.552 86.4896 131.287C86.5208 131.61 86.5468 131.933 86.5625 132.256C86.5833 132.631 86.6458 133.073 86.5729 133.443C86.4739 133.959 86.0781 134.381 86.1198 134.938C86.1458 135.381 86.4635 135.667 86.7604 135.907C87.1198 136.198 87.3958 136.677 87.8125 136.87C88.2083 137.047 88.6562 136.974 89.0312 136.776C89.4791 136.542 89.5364 136.052 89.5937 135.537C89.6614 134.886 89.4427 134.318 89.4218 133.677Z" fill="#12252E"/>
<path d="M95.3387 129.198C95.37 128.974 95.4064 128.744 95.4481 128.521C95.4637 128.437 95.4689 128.396 95.4689 128.396C94.4845 128.588 93.1668 128.515 92.2241 128.448C92.2241 128.453 92.2033 128.776 92.1929 129.198H95.3387Z" fill="#98D4FC"/>
<path d="M91.9634 135.537C92.0155 136.052 92.0728 136.542 92.5207 136.776C92.8957 136.974 93.3488 137.047 93.7394 136.87C94.1561 136.677 94.4321 136.198 94.7967 135.907C95.0884 135.667 95.4061 135.381 95.4374 134.938C95.4738 134.381 95.078 133.959 94.979 133.443C94.9113 133.073 94.9686 132.631 94.9894 132.256C95.0103 131.933 95.0311 131.61 95.0624 131.287C95.1353 130.552 95.2394 129.818 95.3749 129.094C95.3905 129.011 95.4009 128.964 95.4009 128.964C94.3905 129.162 93.0467 129.084 92.0884 129.016C92.0884 129.021 91.9946 130.604 92.0311 131.396C92.0676 132.151 92.1613 132.922 92.1353 133.677C92.1092 134.318 91.8957 134.886 91.9634 135.537Z" fill="#12252E"/>
<path d="M25.2604 57.4899C26.1302 60.8336 23.7447 64.1201 20.302 64.318C17.75 64.4638 15.401 62.7503 14.7552 60.2763C13.8854 56.9378 16.2708 53.6461 19.7135 53.4534C22.2656 53.3076 24.6145 55.0211 25.2604 57.4899ZM11.5677 60.193C11.6302 60.8336 12.2187 61.2815 12.8437 61.1826L13.0364 61.1565C13.4062 61.0992 13.7552 61.2972 13.9062 61.6357C14.1458 62.1617 14.4479 62.6461 14.7968 63.0836C15.0468 63.3909 15.0572 63.818 14.8125 64.1253L14.7447 64.2086C14.3437 64.7086 14.4427 65.4378 14.9635 65.8128C15.4531 66.1617 16.1406 66.0263 16.5208 65.5524L16.6614 65.3805C16.8854 65.0992 17.2656 65.0003 17.5937 65.1305C18.1406 65.344 18.7135 65.4847 19.3072 65.5472C19.677 65.5836 19.9791 65.8597 20.0364 66.2294L20.0572 66.3753C20.1614 67.0003 20.7604 67.4222 21.3906 67.2919C21.9791 67.1669 22.3437 66.5576 22.25 65.9638L22.2343 65.8857C22.177 65.5159 22.3854 65.1565 22.7239 65.0055C23.1822 64.8024 23.6145 64.5472 24.0052 64.2555C24.3072 64.0263 24.7239 64.0263 25.0208 64.2607L25.0885 64.3232C25.5833 64.719 26.3177 64.6253 26.6927 64.0992C27.0416 63.6149 26.9062 62.9222 26.4322 62.5419L26.3854 62.5003C26.0937 62.2711 26.0052 61.8701 26.151 61.5263C26.401 60.9482 26.5729 60.3232 26.651 59.6826C26.6979 59.3128 26.9687 59.0159 27.3385 58.9586L27.5312 58.9326C28.1562 58.8336 28.5781 58.2347 28.4531 57.5992C28.3281 57.0107 27.7239 56.6461 27.1302 56.7399L27.0364 56.7503C26.6614 56.8076 26.3072 56.5992 26.1562 56.2555C25.9375 55.7347 25.6562 55.2503 25.3229 54.8076C25.0937 54.5055 25.0885 54.094 25.3281 53.7919L25.526 53.5419C25.927 53.0472 25.8281 52.3128 25.3072 51.9378C24.8177 51.5836 24.1302 51.7242 23.75 52.1982L23.5364 52.4638C23.3072 52.7503 22.9114 52.844 22.5729 52.6982C21.9843 52.4586 21.3593 52.2919 20.7083 52.2242C20.3385 52.1826 20.0364 51.9065 19.9791 51.5367L19.9427 51.3336C19.8437 50.7034 19.2447 50.2815 18.6145 50.4169C18.026 50.5419 17.6614 51.1461 17.7552 51.7399L17.7812 51.8805C17.8385 52.2555 17.6354 52.6097 17.2916 52.7659C17 52.8909 16.6354 53.1201 16.3072 53.3388C15.8125 53.6774 15.1666 53.6982 14.651 53.3909L14.5572 53.3336C14.0156 53.0107 13.302 53.2086 13.0052 53.7815C12.7239 54.3128 12.9583 54.9794 13.4791 55.2867L13.4947 55.2972C13.8541 55.5055 13.9843 55.9482 13.8229 56.3336C13.5781 56.9274 13.4166 57.5628 13.3541 58.219C13.3125 58.594 13.0364 58.9013 12.6666 58.9586L12.5677 58.9742C11.9739 59.0628 11.5104 59.594 11.5677 60.193Z" fill="#FFD471"/>
<path d="M19.0938 59.0262C19.0105 58.521 19.3594 58.047 19.8646 57.9689C20.3698 57.8856 20.8438 58.2345 20.9219 58.7397C21.0052 59.2449 20.6563 59.7189 20.1511 59.8022C19.6459 59.8804 19.1719 59.5314 19.0938 59.0262ZM17.5 59.2449C17.7136 60.6356 19.0157 61.5783 20.3959 61.3595C21.7813 61.1408 22.724 59.8439 22.5052 58.4533C22.2865 57.0731 20.9896 56.1251 19.6094 56.3439C18.224 56.5626 17.2813 57.8647 17.5 59.2449Z" fill="#FFD471"/>
<path d="M140.687 14.6044C140.625 11.5732 143.588 9.47422 146.422 10.5315C148.005 11.1201 149.099 12.6669 149.13 14.3596C149.193 17.3857 146.234 19.4898 143.401 18.4326C141.818 17.8388 140.719 16.2971 140.687 14.6044ZM138.099 14.1201L138.463 14.1826C138.641 14.2086 138.766 14.3648 138.766 14.5419C138.766 14.8701 138.797 15.1982 138.849 15.5159C138.88 15.6982 138.781 15.8753 138.604 15.9273L138.229 16.0471C138.068 16.0992 137.979 16.2711 138.031 16.4326L138.312 17.3336C138.365 17.4951 138.531 17.5836 138.693 17.5367L139.172 17.3857C139.333 17.3336 139.51 17.4065 139.594 17.5523C139.755 17.8284 139.937 18.094 140.135 18.344C140.24 18.4742 140.25 18.6565 140.151 18.7919L139.792 19.2763C139.693 19.4065 139.719 19.5992 139.854 19.7034L140.609 20.2659C140.745 20.3701 140.937 20.3388 141.036 20.2034L141.297 19.8544C141.411 19.7034 141.62 19.6669 141.781 19.7659C142.104 19.9534 142.448 20.1148 142.807 20.2451C142.974 20.3076 143.078 20.4742 143.047 20.6513L142.963 21.1565C142.937 21.3232 143.047 21.4794 143.213 21.5055L144.146 21.6669C144.312 21.693 144.469 21.5836 144.495 21.4169L144.583 20.9065C144.615 20.7346 144.766 20.6096 144.943 20.6096C145.245 20.6044 145.547 20.5836 145.838 20.5367C146.021 20.5055 146.198 20.6096 146.25 20.7815L146.422 21.3128C146.469 21.4794 146.641 21.5628 146.797 21.5159L147.703 21.2346C147.865 21.1826 147.953 21.0107 147.901 20.8492L147.713 20.2451C147.661 20.0784 147.734 19.9013 147.885 19.818C148.234 19.6201 148.562 19.3909 148.865 19.1305C148.995 19.0211 149.182 19.0055 149.323 19.1096L149.719 19.4065C149.854 19.5055 150.047 19.4794 150.146 19.3492L150.713 18.5836C150.812 18.4534 150.786 18.2607 150.651 18.1617L150.333 17.9221C150.187 17.8128 150.151 17.6148 150.24 17.4482C150.396 17.1669 150.531 16.8701 150.641 16.5628C150.698 16.3961 150.865 16.2919 151.042 16.318L151.458 16.3909C151.625 16.4169 151.781 16.3076 151.807 16.1409L151.969 15.2086C151.995 15.0419 151.885 14.8805 151.719 14.8544L151.302 14.7815C151.125 14.7555 151.005 14.5992 151.005 14.4221C151 14.0419 150.958 13.6669 150.885 13.3023C150.854 13.1201 150.953 12.9378 151.13 12.8805L151.526 12.7555C151.687 12.7034 151.776 12.5315 151.724 12.3753L151.443 11.469C151.391 11.3076 151.219 11.219 151.062 11.2711L150.516 11.4378C150.354 11.4898 150.182 11.4221 150.094 11.2815C149.932 11.0159 149.75 10.7659 149.552 10.5263C149.443 10.3961 149.427 10.2086 149.531 10.0732L149.932 9.53151C150.036 9.39609 150.005 9.20859 149.87 9.10964L149.109 8.53672C148.979 8.43776 148.786 8.46901 148.687 8.60443L148.359 9.04193C148.245 9.19297 148.047 9.22943 147.885 9.14089C147.588 8.97422 147.281 8.8336 146.958 8.71901C146.792 8.65651 146.687 8.48985 146.719 8.31797L146.802 7.80755C146.833 7.64089 146.724 7.48464 146.552 7.45339L145.62 7.29714C145.458 7.26589 145.297 7.38047 145.271 7.54714L145.187 8.05234C145.156 8.22943 145 8.35443 144.823 8.35443C144.536 8.35964 144.255 8.38047 143.979 8.42214C143.797 8.45339 143.625 8.34922 143.568 8.17734L143.401 7.64089C143.349 7.47943 143.177 7.39089 143.016 7.43776L142.115 7.72422C141.953 7.7763 141.865 7.94297 141.917 8.10443L142.104 8.69818C142.156 8.86485 142.078 9.03672 141.922 9.12526C141.594 9.30755 141.281 9.5211 140.99 9.76068C140.859 9.86485 140.677 9.87526 140.542 9.7763L140.036 9.3961C139.901 9.29714 139.708 9.32318 139.609 9.4586L139.042 10.219C138.943 10.3492 138.969 10.5419 139.104 10.6461L139.495 10.9378C139.646 11.0471 139.677 11.2503 139.588 11.4117C139.406 11.7242 139.25 12.0576 139.125 12.4013C139.068 12.5732 138.901 12.6773 138.729 12.6461L138.359 12.5836C138.198 12.5576 138.036 12.6669 138.01 12.8336L137.849 13.7711C137.823 13.9326 137.937 14.094 138.099 14.1201Z" fill="#ADDDFD"/>
<path d="M34.0678 70.7657C34.3126 73.224 32.2605 75.2761 29.8126 75.0313C27.9948 74.849 26.5261 73.3802 26.349 71.5625C26.099 69.1094 28.1511 67.0521 30.6042 67.2969C32.4167 67.4792 33.8855 68.9479 34.0678 70.7657ZM24.1042 71.1511C24.0782 71.6042 24.4428 71.9896 24.8959 71.9896L25.0365 71.9948C25.3021 71.9948 25.5261 72.1719 25.599 72.4271C25.7084 72.8282 25.8646 73.2032 26.0626 73.5521C26.2032 73.7917 26.1615 74.0938 25.9584 74.2813L25.9011 74.3334C25.5626 74.6407 25.5521 75.1719 25.8751 75.4948C26.1823 75.7969 26.6876 75.7761 27.0053 75.4844L27.1198 75.375C27.3126 75.2032 27.5886 75.1771 27.8126 75.3073C28.1719 75.5157 28.5626 75.6771 28.974 75.7865C29.2292 75.8542 29.4115 76.0834 29.4115 76.3542V76.4584C29.4115 76.9115 29.7917 77.2761 30.2501 77.25C30.6823 77.2292 31.0001 76.8438 31.0001 76.4115V76.3542C31.0001 76.0834 31.1876 75.8542 31.4428 75.7865C31.7917 75.6927 32.1198 75.5625 32.4323 75.4011C32.6719 75.2761 32.9636 75.3177 33.1459 75.5209L33.1876 75.5677C33.4948 75.9063 34.0209 75.9167 34.3438 75.5938C34.6459 75.2865 34.6251 74.7813 34.3334 74.4636L34.3073 74.4271C34.1251 74.2292 34.1042 73.9427 34.2501 73.7136C34.4896 73.3334 34.6823 72.9167 34.8073 72.4688C34.8803 72.2188 35.1094 72.0365 35.3698 72.0365H35.5105C35.9636 72.0365 36.3282 71.6615 36.3073 71.1979C36.2865 70.7709 35.9011 70.4479 35.474 70.4427H35.4063C35.1355 70.4427 34.9063 70.2552 34.8386 69.9948C34.7448 69.599 34.599 69.2292 34.4115 68.8802C34.2813 68.6459 34.323 68.349 34.5261 68.1667L34.6928 68.0104C35.0313 67.7032 35.0469 67.1771 34.7188 66.8542C34.4115 66.5521 33.9115 66.5729 33.5938 66.8646L33.4115 67.0261C33.2136 67.2032 32.9271 67.2292 32.7032 67.0886C32.3178 66.849 31.8959 66.6667 31.4428 66.5417C31.1823 66.474 31.0001 66.2448 31.0001 65.9792V65.8282C31.0001 65.3698 30.6251 65.0104 30.1615 65.0365C29.7344 65.0573 29.4115 65.4427 29.4115 65.875V65.9792C29.4115 66.2448 29.2292 66.474 28.9688 66.5417C28.7501 66.599 28.4688 66.724 28.2084 66.8438C27.823 67.0209 27.3698 66.9636 27.0365 66.6927L26.9792 66.6407C26.6303 66.3542 26.1042 66.4167 25.8334 66.7813C25.573 67.1302 25.6667 67.625 26.0001 67.8959L26.0105 67.9063C26.2396 68.0938 26.2813 68.4219 26.1251 68.6771C25.8855 69.0677 25.7032 69.5 25.5834 69.9532C25.5157 70.2188 25.2865 70.4011 25.0157 70.4011H24.948C24.5157 70.3959 24.1303 70.7188 24.1042 71.1511Z" fill="#A2DDD0"/>
<path d="M139.943 129.24H136.526C136.552 128.844 136.568 128.459 136.568 128.063C136.557 126.709 136.406 125.354 136.234 124.021C136.068 122.729 135.802 121.464 135.344 120.25C135.099 119.599 134.828 118.959 134.682 118.276C134.573 117.75 134.542 117.214 134.583 116.683H139.443C139.385 117.641 139.328 118.594 139.64 119.516C139.812 120.021 139.995 120.506 140.12 121.021C140.239 121.521 140.318 122.026 140.37 122.537C140.578 124.677 140.26 126.844 139.979 128.964C139.969 129.058 139.953 129.146 139.943 129.24Z" fill="#BF7968"/>
<path d="M136.479 129.24C136.443 128.901 136.406 128.563 136.375 128.229C136.375 128.229 137.411 128.339 140.229 128.188C140.229 128.188 140.188 128.656 140.135 129.24H136.479Z" fill="#FFD471"/>
<path d="M132.464 136.089C132.547 135.651 132.854 135.36 133.198 135.131C133.854 134.683 135.922 134.094 136.141 133.896C136.563 133.516 136.641 132.901 136.625 132.354C136.583 131.203 136.438 130.047 136.339 128.901C136.339 128.901 137.792 129.261 140.276 128.854C140.276 128.854 140.109 130.912 140.026 131.943C139.984 132.448 139.943 132.948 139.979 133.453C140.016 133.896 140.109 134.334 140.198 134.766C140.286 135.198 140.37 135.631 140.385 136.073C140.385 136.151 140.385 136.313 140.385 136.313C140.115 136.594 139.464 136.573 139.156 136.558C138.385 136.526 137.641 136.407 136.859 136.459C135.859 136.521 134.865 136.688 133.859 136.724C133.516 136.74 133.188 136.735 132.875 136.683C132.474 136.584 132.443 136.209 132.464 136.089Z" fill="#091317"/>
<path d="M145.786 129.24H142.37C142.396 128.844 142.411 128.459 142.411 128.063C142.401 126.709 142.25 125.354 142.078 124.021C141.906 122.729 141.646 121.464 141.188 120.25C140.943 119.599 140.672 118.959 140.526 118.276C140.411 117.75 140.385 117.214 140.427 116.683H145.286C145.229 117.641 145.172 118.594 145.484 119.516C145.651 120.021 145.839 120.506 145.958 121.021C146.078 121.521 146.161 122.026 146.214 122.537C146.422 124.677 146.104 126.844 145.823 128.964C145.813 129.058 145.797 129.146 145.786 129.24Z" fill="#BF7968"/>
<path d="M142.323 129.24C142.286 128.901 142.25 128.563 142.219 128.229C142.219 128.229 143.25 128.339 146.073 128.188C146.073 128.188 146.031 128.656 145.974 129.24H142.323Z" fill="#FFD471"/>
<path d="M138.307 136.089C138.391 135.651 138.693 135.36 139.036 135.131C139.698 134.683 141.766 134.094 141.984 133.896C142.406 133.516 142.484 132.901 142.464 132.354C142.427 131.203 142.276 130.047 142.182 128.901C142.182 128.901 143.635 129.261 146.12 128.854C146.12 128.854 145.953 130.912 145.87 131.943C145.828 132.448 145.781 132.948 145.823 133.453C145.854 133.896 145.948 134.334 146.036 134.766C146.13 135.198 146.214 135.631 146.229 136.073C146.229 136.151 146.229 136.313 146.229 136.313C145.953 136.594 145.307 136.573 145 136.558C144.224 136.526 143.484 136.407 142.703 136.459C141.698 136.521 140.708 136.688 139.703 136.724C139.359 136.74 139.031 136.735 138.719 136.683C138.318 136.584 138.281 136.209 138.307 136.089Z" fill="#12252E"/>
<path d="M123.437 79.6927C123.516 79.8021 123.599 79.901 123.687 80C123.656 79.9739 123.63 79.9479 123.599 79.9219C123.51 79.8437 123.312 79.6042 123.161 79.6562C122.99 79.7135 123.115 79.9271 123.167 80.026C123.318 80.2969 123.458 80.5989 123.651 80.8437C123.859 81.1042 124.167 81.2552 124.427 81.4635C124.687 81.6719 124.911 81.9271 125.135 82.1719C125.609 82.7031 126.339 83.2135 126.411 83.9739C126.776 83.8698 128.349 83.1979 128.344 83.1875C128.234 82.9792 128.073 82.8021 127.943 82.6042C127.797 82.3906 127.682 82.1614 127.589 81.9219C127.422 81.4687 127.38 81.0052 127.391 80.526C127.391 80.1771 127.37 79.8437 127.193 79.5364C127.089 79.3594 126.964 79.1927 126.833 79.0312C126.76 78.9375 126.625 78.7292 126.5 78.7083C126.266 78.6667 126.271 78.9948 126.312 79.1406C126.339 79.2239 126.38 79.2969 126.417 79.375L126.49 79.5677C126.417 79.5989 126.349 79.6302 126.276 79.6614L126.203 79.6042C126.016 79.5104 125.844 79.3125 125.682 79.1823C125.292 78.8594 124.927 78.5156 124.557 78.1719C124.437 78.0625 124.203 77.8073 124.094 78.0729C124.057 78.151 124.062 78.2292 124.083 78.3073C123.948 78.1614 123.714 77.9844 123.562 78.1458C123.5 78.2135 123.521 78.3073 123.557 78.3854C123.615 78.5312 123.698 78.6771 123.766 78.8177C123.844 78.9687 123.917 79.1354 124.026 79.2656C124.115 79.3854 124.229 79.4896 124.339 79.5937C124.464 79.7239 124.583 79.8646 124.703 80C124.312 79.7812 123.932 79.5521 123.661 79.1823C123.573 79.0573 123.323 78.5469 123.099 78.7708C122.875 79.0104 123.307 79.5208 123.437 79.6927Z" fill="#BF7968"/>
<path d="M146.135 93.8537L146.297 92.6923C146.594 91.0985 147.088 89.9787 147.547 88.4266C147.963 90.1454 149.307 91.9527 150.359 93.3902C149.963 93.7235 147.443 96.8225 146.807 97.5204C146.573 96.2548 146.208 95.3016 146.135 93.8537ZM128.281 87.6975C129.12 88.7808 130.01 90.1714 131.422 90.3433C132.875 90.5256 134.281 89.9006 135.5 89.1506C135.729 89.01 136.526 88.5933 136.76 88.4475C136.531 89.5516 136.661 90.5985 136.765 91.4631C137.015 93.6558 136.187 95.1871 135.651 97.2964C135.114 99.4162 134.62 101.541 134.167 103.682C133.271 107.932 132.562 112.218 132.026 116.526C137.338 117.333 143.031 118.609 148.328 116.546C148.156 113.276 147.989 110.005 147.818 106.739C147.672 103.885 147.531 101.026 147.151 98.1871C147.5 98.5985 148.062 99.6298 148.062 99.6298C149.078 98.9891 152.719 96.3433 153.229 95.6246C154.099 94.411 153.833 93.2391 153.396 91.9006C153.104 91.0048 152.708 90.1506 152.422 89.2548C152.14 88.3537 150.682 84.3693 148.89 82.8225C147.239 81.4006 145.521 81.4371 142.719 81.6298C141.088 81.7443 139.687 81.5308 137.87 82.2912C136.948 82.6714 136.021 83.635 134.922 84.6193C133.38 86.0048 132.729 87.26 131.495 86.1506C130.344 85.1193 129.224 83.4787 128.125 82.3902C127.26 82.9162 126.906 83.2079 125.932 83.4683C126.896 84.8433 127.255 86.3693 128.281 87.6975Z" fill="#98D4FC"/>
<path d="M145.057 78.8179C145.115 78.3022 145.177 77.9533 145.177 77.9533C145.177 77.9533 144.344 77.8335 144.182 77.0418C144.182 77.0314 143.557 72.7033 142.083 72.5418C140.339 72.3543 139.542 72.8179 139.188 74.5262C139.042 75.2449 138.661 75.5001 138.286 75.8179C138.135 75.9429 138.24 76.2293 138.453 76.2137L138.708 76.2293C138.766 76.2345 138.807 76.2814 138.807 76.3387C138.797 76.8283 138.833 77.297 138.938 77.7085C139.172 78.6824 139.047 79.6929 140.724 79.672C140.922 79.6668 141.109 79.6512 141.297 79.6356C141.297 79.6356 141.26 80.7918 140.87 82.547C140.828 82.7293 140.797 82.9376 140.797 82.9376C141.411 83.7397 143.432 83.4376 144.302 82.6356C144.651 82.3126 145.188 81.8074 145.167 81.7085C144.953 80.7501 144.974 79.6251 145.057 78.8179Z" fill="#BF7968"/>
<path d="M151.031 112.927C152.401 111.927 152.703 110.006 151.709 108.631L134.115 84.4118C133.86 84.0524 133.354 83.9743 133 84.2347L129.328 86.9066C128.969 87.167 128.891 87.6722 129.151 88.0264L146.74 112.25C147.74 113.62 149.656 113.927 151.031 112.927Z" fill="#20615E"/>
<path d="M129.182 87.0106L131.161 85.5731L133.14 84.1304C133.14 84.1304 117.01 61.6981 114.474 61.4013C113.864 61.3283 113.734 61.5731 113.734 61.5731C113.734 61.5731 113.458 61.6252 113.338 62.2242C112.838 64.7346 129.182 87.0106 129.182 87.0106Z" fill="#2A817D"/>
<path d="M114.099 61.3958L113.526 60.6041C113.396 60.427 113.146 60.3853 112.963 60.5155C112.786 60.6458 112.745 60.8958 112.875 61.0728L113.453 61.8697L114.099 61.3958Z" fill="#29566D"/>
<path d="M129.641 88.7028L134.604 85.083L135.318 86.0622L130.349 89.682L129.641 88.7028Z" fill="#254D62"/>
<path d="M145.854 113.667C146.099 113.484 146.156 113.141 145.974 112.891L145.615 112.396L146.214 111.963C146.302 112.062 146.453 112.083 146.568 112.005L151.526 108.391C151.646 108.302 151.672 108.135 151.583 108.016L150.802 106.937C150.714 106.818 150.547 106.792 150.427 106.875L145.469 110.49C145.354 110.573 145.328 110.724 145.396 110.838L144.802 111.276L133.38 95.5624L133.542 94.5416C133.562 94.3958 133.531 94.2499 133.443 94.1301L133.099 93.651C133.01 93.5364 132.88 93.4531 132.734 93.4322L132.073 93.3281C131.922 93.302 131.776 93.3437 131.661 93.4218C131.547 93.5104 131.464 93.6354 131.437 93.7864C131.391 94.0885 131.599 94.3749 131.901 94.4218L132.339 94.4895L132.411 94.5937L132.25 95.6145C132.229 95.7604 132.266 95.9114 132.349 96.026L145.078 113.547C145.26 113.792 145.604 113.844 145.854 113.667Z" fill="#254D62"/>
<path d="M145.136 102.318C145.229 102.224 145.313 102.125 145.396 102.021C145.38 102.052 145.354 102.089 145.333 102.12C145.276 102.219 145.068 102.453 145.141 102.594C145.229 102.756 145.417 102.599 145.505 102.532C145.75 102.339 146.026 102.157 146.234 101.922C146.458 101.672 146.563 101.349 146.724 101.063C146.891 100.771 147.104 100.511 147.318 100.25C147.761 99.6983 148.151 98.891 148.891 98.7035C148.734 98.3597 147.823 96.9118 147.813 96.917C147.62 97.0576 147.474 97.2451 147.297 97.4066C147.109 97.5837 146.901 97.7347 146.682 97.8597C146.261 98.0941 145.813 98.2087 145.339 98.2816C144.995 98.3285 144.667 98.4014 144.391 98.6305C144.229 98.7555 144.083 98.9066 143.953 99.0628C143.87 99.1462 143.682 99.3128 143.682 99.443C143.682 99.6826 144.005 99.6253 144.141 99.5576C144.219 99.5212 144.287 99.4691 144.354 99.4222C144.38 99.4014 144.5 99.3076 144.531 99.318C144.573 99.3858 144.615 99.4483 144.656 99.5108L144.609 99.5941C144.547 99.7972 144.386 100 144.276 100.177C144.021 100.61 143.74 101.026 143.458 101.443C143.37 101.584 143.156 101.849 143.432 101.922C143.516 101.943 143.594 101.927 143.672 101.896C143.542 102.052 143.406 102.313 143.589 102.433C143.667 102.485 143.755 102.448 143.828 102.407C143.964 102.323 144.094 102.219 144.224 102.131C144.359 102.026 144.505 101.927 144.62 101.802C144.729 101.693 144.807 101.563 144.896 101.443C145.005 101.297 145.125 101.157 145.24 101.016C145.083 101.438 144.922 101.849 144.594 102.177C144.49 102.282 144.021 102.61 144.281 102.792C144.547 102.98 144.984 102.474 145.136 102.318Z" fill="#BF7968"/>
<path d="M146.547 97.7028C146.547 97.7028 147.063 98.0465 147.479 98.5882C147.818 99.0309 148.063 99.6299 148.063 99.6299L149.333 98.7549L147.859 96.2861L146.547 97.7028Z" fill="#98D4FC"/>
<path d="M148.281 74.7187C147.901 74.4635 147.542 74.4843 147.297 74.5364C147.443 73.6562 147.417 73.1093 147.188 72.5676C146.74 71.5103 145.88 70.6718 144.781 70.2447C142.432 69.3385 142.219 70.4374 140.932 70.3697C140.469 70.3489 140.057 70.1718 139.636 70.4583C139.203 70.7447 138.964 71.2864 138.959 71.7916C138.953 73.4947 140.318 73.1093 141.026 73.7135C141.526 74.1458 141.875 74.9322 141.964 75.177C142.198 75.8645 142.953 76.1353 143.261 76.7864C143.584 77.4583 143.703 78.5103 144.271 79.026C144.719 79.4322 145.761 79.0103 146.146 78.526C146.292 78.6614 146.823 78.8176 147.344 78.6978C147.995 78.5468 148.485 77.7916 148.776 76.8593C149.099 75.8385 148.724 75.0103 148.281 74.7187Z" fill="#12252E"/>
<path d="M47.2502 112.661C47.4585 112.771 47.6616 112.891 47.8595 113.016C48.0522 113.135 48.3856 113.432 48.6304 113.25C48.8491 113.078 48.6512 112.807 48.5262 112.651C48.2606 112.333 47.9585 111.964 47.5939 111.755C47.2085 111.531 46.7502 111.531 46.3335 111.417C45.8075 111.266 45.396 110.911 45.1616 110.422C44.4793 110.87 43.6356 111.453 43.1304 111.818C43.3022 112.188 43.6043 112.49 43.7241 112.891C43.8439 113.276 43.8387 113.687 43.9637 114.073C44.1825 114.745 44.6147 115.333 45.1043 115.833C45.2658 115.995 45.4845 116.234 45.7397 116.161C45.8127 116.141 45.8804 116.036 45.9272 116.021C46.0054 116.005 46.1304 116.104 46.2241 116.135C46.4012 116.193 46.6512 116.219 46.8022 116.078C46.9481 115.943 46.896 115.766 46.8075 115.615C47.0627 115.776 47.4429 115.974 47.6929 115.875C47.9012 115.786 47.8439 115.578 47.7554 115.417C47.9897 115.542 48.271 115.656 48.521 115.51C48.7345 115.391 48.6877 115.182 48.5835 115C48.4168 114.714 48.12 114.547 47.8856 114.328C47.521 114 47.3647 113.51 47.2189 113.057C47.1877 112.943 47.146 112.823 47.12 112.708C47.0887 112.552 47.1095 112.589 47.2502 112.661Z" fill="#EE9681"/>
<path d="M41.8542 104.193C41.0886 102.948 41.0417 101.677 40.9375 100.281H36.0209C36.0209 100.281 36.1146 102.432 36.1667 102.406C36.3282 103.724 36.6719 105.005 37.4688 106.109C38.2136 107.141 39.1355 108.068 39.974 109.021C40.9532 110.135 41.9063 111.281 42.974 112.313C43.6355 111.469 44.5052 110.953 45.5625 110.776C45.0938 109.615 44.5573 108.474 43.9323 107.385C43.3021 106.281 42.5209 105.276 41.8542 104.193Z" fill="#8DC5EA"/>
<path d="M24.6875 118.031C24.9375 118.557 25.1979 119.083 25.3229 119.656C25.4844 120.375 25.3698 121.099 25.1979 121.802C24.6771 124 24.5313 126.182 24.7448 128.458H29.1823C29.1875 127.244 30.099 123.114 30.4271 122.291C30.7344 121.521 31.099 120.776 31.3229 119.974C31.7865 118.297 31.3594 116.5 31.0677 114.828C30.75 112.994 30.3802 111.172 30.0938 109.328C29.7969 107.422 29.6198 105.5 29.6667 103.567H21.3958C20.3125 107.369 21.6042 111.39 23.2031 114.89C23.6823 115.948 24.1927 116.984 24.6875 118.031Z" fill="#25716D"/>
<path d="M34.3542 136.375C34.25 135.823 33.8646 135.443 33.4271 135.151C32.5886 134.583 29.9688 133.839 29.6875 133.589C29.1511 133.109 29.0521 132.323 29.0782 131.635C29.1302 130.172 29.3125 128.708 29.4375 127.25C29.4375 127.25 27.5938 127.698 24.4375 127.188C24.4375 127.188 24.6511 129.802 24.7605 131.109C24.8125 131.75 24.8646 132.391 24.8177 133.026C24.7761 133.589 24.6563 134.141 24.5417 134.693C24.4271 135.24 24.3177 135.792 24.3021 136.354C24.2969 136.453 24.3021 136.661 24.3021 136.661C24.6459 137.016 25.474 136.984 25.8594 136.969C26.8438 136.922 27.7865 136.776 28.7761 136.839C30.0469 136.922 31.3073 137.13 32.5834 137.177C33.0209 137.193 33.4375 137.188 33.8334 137.125C34.3386 136.995 34.3855 136.521 34.3542 136.375Z" fill="#091317"/>
<path d="M21.3854 118.208C21.6354 118.734 21.8958 119.266 22.0208 119.839C22.1771 120.557 22.0625 121.276 21.8958 121.984C21.3698 124.177 21.2292 126.365 21.4375 128.635H25.8802C25.8802 127.427 26.7917 123.297 27.1198 122.474C27.4271 121.703 27.7969 120.953 28.0156 120.151C28.4844 118.479 28.0573 116.677 27.7656 115.005C27.4479 113.172 27.0729 111.349 26.7917 109.51C26.4948 107.604 26.3125 105.682 26.3646 103.75H18.0885C17.0104 107.547 18.3021 111.573 19.8958 115.073C20.375 116.125 20.8906 117.167 21.3854 118.208Z" fill="#2A817D"/>
<path d="M42.5262 90.7813C42.9117 90.4271 43.1564 90.1667 43.1564 90.1667C43.1564 90.1667 43.7554 90.7709 44.495 90.4271C44.5054 90.4219 49.0992 87.573 50.1096 88.6771C51.3127 89.9792 50.7033 91.6771 49.5314 92.9844C49.0314 93.5365 49.0523 93.9948 49.021 94.4948C49.0054 94.6928 48.7189 94.7761 48.6044 94.5938L48.4377 94.3959C48.396 94.3542 48.3335 94.349 48.2867 94.3803C47.8908 94.6876 47.495 94.9323 47.0939 95.099C46.1669 95.4844 45.4221 96.198 44.4325 94.8178C44.3179 94.6563 44.2137 94.4948 44.12 94.3282L41.7398 96.7188C40.7189 96.698 40.5731 94.0938 40.3648 93.5001C40.3335 93.4011 39.9898 92.0157 40.0835 91.974C40.9898 91.5678 41.9221 91.3334 42.5262 90.7813Z" fill="#FFA18A"/>
<path d="M42.8853 89.146C43.5051 88.1929 44.7968 83.9429 48.8384 84.6877C51.2447 85.1304 54.6093 88.9116 52.328 91.1773C51.0728 92.4221 49.6197 89.9741 46.7499 91.4012C46.7707 91.3856 46.6301 90.8543 46.4843 90.8335C47.078 90.4273 45.5676 91.2971 44.4634 91.3335C43.8957 91.3543 42.7395 91.3335 42.3072 90.3648C41.9218 89.5002 42.6509 89.5054 42.8853 89.146Z" fill="#12252E"/>
<path d="M45.7656 90.4689C45.5104 90.797 45.4427 91.172 45.7656 91.4272C46.0521 91.6564 46.4792 91.6512 46.7708 91.3543C47.0573 91.0574 47.0781 90.6147 46.8177 90.3491C46.349 89.8751 46.0104 90.1512 45.7656 90.4689Z" fill="#FFA18A"/>
<path d="M31.052 136.552C30.9479 136 30.5573 135.625 30.125 135.333C29.2812 134.766 26.6614 134.021 26.3854 133.766C25.8489 133.286 25.75 132.505 25.7708 131.813C25.8229 130.354 26.0104 128.885 26.1354 127.432C26.1354 127.432 24.2916 127.88 21.1302 127.375C21.1302 127.375 21.3489 129.984 21.4531 131.292C21.5052 131.927 21.5625 132.568 21.5156 133.208C21.4687 133.771 21.3489 134.323 21.2343 134.87C21.125 135.422 21.0156 135.974 20.9948 136.536C20.9948 136.635 20.9948 136.839 20.9948 136.839C21.3437 137.193 22.1666 137.161 22.5573 137.151C23.5364 137.104 24.4843 136.953 25.4739 137.021C26.7448 137.099 28.0052 137.307 29.2812 137.359C29.7187 137.375 30.1354 137.37 30.5312 137.307C31.0364 137.177 31.0781 136.703 31.052 136.552Z" fill="#12252E"/>
<path d="M58.2761 128.62C57.948 128.807 57.5261 128.693 57.3386 128.364C56.3698 126.677 55.7969 125.182 55.6303 123.917C55.4584 122.635 55.6459 121.167 56.1823 119.547C56.6667 118.094 56.9167 117 56.9271 116.297C56.9376 115.635 56.7917 115.052 56.4792 114.505C55.5469 112.875 54.5209 112.542 53.0521 113.385C52.3594 113.781 51.948 114.286 51.7813 114.922C51.6146 115.573 51.7396 116.271 52.1667 117.057C52.3438 117.385 52.224 117.797 51.9011 117.984L46.9011 120.859C46.7396 120.948 46.5521 120.974 46.3751 120.922C46.198 120.875 46.0469 120.755 45.9584 120.599C44.6251 118.213 44.3282 115.875 45.073 113.646C45.8073 111.443 47.474 109.583 50.0313 108.114C52.6042 106.635 55.0157 106.104 57.198 106.547C59.4167 106.995 61.2136 108.401 62.5469 110.724C63.1615 111.792 63.5053 112.958 63.573 114.182C63.6407 115.375 63.4167 116.87 62.9115 118.62L62.2761 120.765C61.9323 121.953 61.9844 123.042 62.4376 124.099L62.9636 125.177C63.1251 125.505 63.0053 125.896 62.6876 126.078L58.2761 128.62ZM65.1042 135.208C64.1094 135.781 63.1146 135.948 62.1459 135.703C61.1667 135.458 60.4011 134.864 59.8698 133.943C59.3334 133.01 59.2136 132.036 59.5001 131.052C59.7917 130.078 60.4271 129.307 61.4011 128.75C62.3698 128.187 63.3594 128.026 64.3438 128.265C65.3386 128.515 66.1146 129.109 66.6511 130.047C67.1823 130.969 67.3073 131.927 67.0261 132.901C66.7448 133.859 66.099 134.635 65.1042 135.208Z" fill="#4693B9"/>
<path d="M45.5104 114.005C45.7292 114.088 45.9479 114.177 46.1615 114.276C46.3646 114.369 46.7396 114.625 46.9531 114.411C47.1458 114.213 46.9219 113.968 46.7708 113.833C46.4687 113.547 46.125 113.218 45.7344 113.062C45.3229 112.89 44.8698 112.948 44.4375 112.885C43.901 112.802 43.4479 112.51 43.151 112.052C42.5313 112.588 41.7708 113.276 41.3125 113.703C41.5365 114.047 41.8698 114.307 42.0417 114.682C42.2083 115.052 42.2604 115.458 42.4323 115.823C42.7344 116.468 43.2396 116.994 43.7917 117.422C43.9687 117.562 44.2187 117.776 44.4635 117.672C44.5313 117.64 44.5833 117.526 44.6302 117.51C44.7083 117.479 44.8437 117.562 44.9375 117.583C45.125 117.614 45.3698 117.609 45.5052 117.453C45.6354 117.297 45.5625 117.125 45.4531 116.989C45.724 117.114 46.1302 117.265 46.3646 117.135C46.5625 117.021 46.474 116.817 46.3646 116.672C46.6146 116.76 46.9063 116.838 47.1354 116.666C47.3333 116.521 47.2604 116.323 47.1302 116.151C46.9323 115.89 46.6146 115.76 46.3542 115.578C45.9531 115.297 45.7344 114.833 45.5313 114.401C45.4844 114.291 45.4271 114.182 45.3854 114.067C45.3385 113.916 45.3646 113.948 45.5104 114.005Z" fill="#FFA18A"/>
<path d="M42.1771 109.042C41.5469 107.932 40.7604 106.932 40.0989 105.849C39.2969 104.547 39.2812 103.224 39.1719 101.745C39.1614 101.656 39.1458 101.568 39.1406 101.474C39.6719 101.229 40.2292 100.984 40.6875 100.63C41.1458 100.276 41.4583 99.7761 41.6302 99.224C41.9687 98.1355 41.8073 97.4949 41.8177 96.6407C41.8177 96.6407 41.2969 95.2136 41.2448 94.8699C41.0781 93.7605 41.5521 91.4324 40.5833 91.5261C35.0104 89.9845 28.8646 91.073 24.2552 94.6095C22.1198 96.2501 20.3385 98.3543 19.0729 100.734C18.7969 101.266 17.6146 103.75 17.6354 104.344C17.6406 104.557 23.1979 107.391 24.8646 107.88C25.6927 108.125 29.5625 108.563 30.5208 109.172C31.0833 107.245 32.25 105.542 33.8958 104.386C34.0625 104.266 34.2344 104.162 34.4114 104.057C34.5677 105.38 34.9167 106.662 35.7083 107.761C36.4531 108.797 37.3802 109.719 38.2187 110.677C39.1979 111.787 40.1458 112.938 41.2135 113.964C41.8802 113.125 42.75 112.609 43.8073 112.432C43.3385 111.266 42.8021 110.13 42.1771 109.042Z" fill="#98D4FC"/>
<path d="M40.078 91.5003C40.479 92.4534 40.3124 93.5471 40.4843 94.5471C40.6457 95.4534 40.9686 96.318 41.5468 97.0367C41.578 97.068 41.6249 97.0211 41.5988 96.9846C40.9895 96.2294 40.6665 95.3023 40.5259 94.3492C40.3853 93.4013 40.5207 92.3805 40.1457 91.4794C40.1301 91.443 40.0624 91.4586 40.078 91.5003Z" fill="#84B8DA"/>
<path d="M39.1874 101.416C39.4895 99.2341 39.7707 96.9372 38.8384 94.8643C38.8228 94.8226 38.7603 94.8591 38.7759 94.8955C39.703 96.9528 39.4165 99.2393 39.1197 101.396C39.1145 101.437 39.1822 101.458 39.1874 101.416Z" fill="#84B8DA"/>
<path d="M34.4115 104.005C34.2084 102.896 34.0105 101.792 33.8074 100.688C33.5938 99.5156 33.3594 98.3438 33.4532 97.1406C33.5365 96.1094 33.8126 95.0417 34.4532 94.2084C35.1042 93.3646 36.1615 92.8281 37.2344 93.0365C37.2761 93.0469 37.2969 92.9792 37.2501 92.9688C36.3334 92.7917 35.4063 93.1406 34.7449 93.7761C33.9949 94.4948 33.6199 95.5156 33.4584 96.5209C33.2657 97.7448 33.4219 98.9427 33.6407 100.151C33.8751 101.443 34.1094 102.734 34.3438 104.021C34.3542 104.063 34.4219 104.047 34.4115 104.005Z" fill="#84B8DA"/>
<path d="M144.984 31.6043C144.906 30.6668 143.693 29.9898 143.047 29.4533C141.37 28.0835 139.693 26.7085 138.021 25.3387C134.438 22.4012 130.854 19.4637 127.271 16.5314C126.682 16.047 126.089 15.3856 125.255 15.4845C124.839 15.5314 124.417 15.5783 123.995 15.6252C121.604 15.9012 119.214 16.172 116.823 16.4481C107.911 17.4637 98.9948 18.4793 90.0834 19.5002C79.5938 20.6981 69.1094 21.896 58.6198 23.0887C51.2917 23.9273 43.9584 24.7658 36.6302 25.6043C35.8438 25.6929 35.0573 25.7814 34.2709 25.87C33.9063 25.9116 33.4792 25.9168 33.1407 26.0731C32.224 26.5054 31.7709 28.1512 31.8594 28.8908C31.8959 29.2189 31.9375 29.547 31.974 29.8752C32.1615 31.4898 32.3542 33.0991 32.5417 34.7085C33.5886 43.6095 34.6355 52.5106 35.6771 61.4116C35.7969 62.422 36.0938 63.5418 37.4323 63.3908C37.8854 63.3387 38.3438 63.2866 38.7969 63.2345C41.2448 62.9533 43.6875 62.6773 46.1355 62.396C55.1094 61.37 64.0834 60.3491 73.0573 59.3231C83.5313 58.1252 94.0052 56.9325 104.479 55.7345C111.724 54.9116 118.974 54.0835 126.219 53.2554C127.24 53.1408 129.37 53.2658 130.073 52.3439C132.344 49.3804 134.615 46.4168 136.885 43.4533C138.583 41.2345 140.286 39.0158 141.984 36.797C142.536 36.0731 143.089 35.3543 143.646 34.6304C143.922 34.271 144.313 33.87 144.448 33.4273C144.38 33.646 144.521 33.2502 144.531 33.2189C144.63 32.9481 144.734 32.6773 144.833 32.4064C144.932 32.1408 145.005 31.8856 144.984 31.6043Z" fill="#6BA9C7"/>
<path d="M121.536 4.55222C119.12 6.55743 116.807 9.33868 116.865 12.8074C116.911 15.6251 117.536 19.2449 120.943 19.4741C124.844 19.7397 128.281 17.6876 130.229 14.6251C131.844 12.0887 132.583 9.38556 132.792 7.46368C133.047 5.14077 133.302 2.81785 133.557 0.489726C133.578 0.270975 133.354 0.0678498 133.151 0.145975C131.104 0.932434 129.01 1.55743 126.87 2.07827C124.88 2.55743 123.104 3.25014 121.536 4.55222Z" fill="#A2DDD0"/>
<path d="M133.328 0.41657C132.448 1.64574 131.557 2.88011 130.516 3.97386C130.432 4.06761 130.339 4.15094 130.25 4.23949C130.646 4.07282 131.042 3.90094 131.443 3.75511C131.953 3.56761 132.479 3.44782 133.021 3.46344C133.198 3.46344 133.229 3.7447 133.047 3.73949C132.511 3.72907 131.995 3.84886 131.495 4.03636C130.912 4.26032 130.344 4.51032 129.771 4.7447L129.703 4.76032C128.896 5.47907 128.031 6.13532 127.229 6.86449C126.365 7.64574 125.578 8.50511 124.844 9.40615C126.13 9.72386 127.516 9.0572 128.709 8.63532C129.438 8.38011 130.156 8.1197 130.88 7.8697C131.438 7.67178 132.016 7.47386 132.589 7.71344C132.755 7.78115 132.636 8.03636 132.469 7.96865C131.787 7.6822 130.953 8.14053 130.313 8.3697C129.568 8.63011 128.823 8.89574 128.084 9.15615C126.985 9.54157 125.807 9.96865 124.651 9.63532C123.584 10.9634 122.62 12.3697 121.667 13.7707C121.354 14.2291 121.037 14.6926 120.735 15.1562C124.521 15.2447 128.24 14.1353 131.307 11.8801C131.453 11.7707 131.61 12.0051 131.464 12.1145C128.313 14.4374 124.459 15.5676 120.557 15.4322C119.943 16.3957 119.386 17.3905 118.979 18.4634C118.917 18.6353 118.662 18.5103 118.724 18.3437C118.875 17.9478 119.047 17.5624 119.235 17.1874L119.224 17.1562C118.834 15.3593 118.672 13.5312 118.761 11.6926C118.849 9.85928 119.037 7.73428 120.12 6.19261C120.229 6.04157 120.438 6.22907 120.339 6.38011C119.755 7.20303 119.505 8.17178 119.328 9.15094C119.177 10.0207 119.078 10.9062 119.037 11.7916C118.964 13.4687 119.099 15.1457 119.438 16.7864C119.709 16.2707 120.005 15.7707 120.323 15.2812C120.318 15.2239 120.339 15.1718 120.401 15.1562C120.568 14.8957 120.74 14.6353 120.912 14.3749C121.271 13.8489 121.63 13.3176 121.99 12.7916C121.813 11.3801 121.818 9.9947 122.042 8.58324C122.292 7.01553 122.584 5.45303 122.849 3.89053C122.886 3.71344 123.162 3.76032 123.13 3.9374C122.865 5.45303 122.594 6.95824 122.344 8.47386C122.125 9.8072 122.094 11.1093 122.235 12.4374C122.662 11.8228 123.099 11.2082 123.547 10.6041C123.828 10.2291 124.12 9.85407 124.412 9.48428C124.417 9.42178 124.464 9.35407 124.537 9.33324C125.104 8.63532 125.703 7.95824 126.344 7.32282V7.3072C126.584 6.41657 126.365 5.51553 126.386 4.60928C126.412 3.64053 126.813 2.83324 127.307 2.02074C127.401 1.86449 127.662 1.98949 127.563 2.14053C127.313 2.55199 127.057 2.96344 126.891 3.41136C126.724 3.8697 126.656 4.34886 126.667 4.83324C126.682 5.54678 126.797 6.26553 126.698 6.97907C127.719 6.02074 128.86 5.20824 129.865 4.23428C131.104 3.03636 132.115 1.63011 133.115 0.234278C133.219 0.0884451 133.438 0.270737 133.328 0.41657Z" fill="#E0FBF0"/>
<path d="M19.6302 31.8023C18.2343 33.0992 16.7864 34.3127 15.2448 35.4117C15.0937 35.5211 15.1354 35.7763 15.2968 35.8648C17.0885 36.7919 18.8854 37.7242 20.677 38.6461C22.1614 39.4169 24.4531 40.1721 27.0468 40.219C30.177 40.2763 33.2968 38.7763 34.9687 35.844C36.427 33.2763 34.125 31.0992 32.1198 29.719C29.651 28.0211 26.552 28.3596 23.9583 29.1409C22.2708 29.6461 20.927 30.5992 19.6302 31.8023Z" fill="#A2DDD0"/>
<path d="M15.3594 35.6665C16.6614 35.6196 17.9687 35.5675 19.2552 35.3384C19.3646 35.3175 19.4687 35.2967 19.5729 35.2759C19.2604 35.479 18.9531 35.6873 18.651 35.9009C18.276 36.1769 17.9427 36.4998 17.6875 36.9009C17.6042 37.0311 17.7969 37.1821 17.8802 37.0519C18.125 36.6561 18.4583 36.3436 18.8333 36.0728C19.2708 35.7603 19.7187 35.4686 20.1667 35.1717L20.2083 35.1248C21.1094 34.8905 21.9948 34.578 22.901 34.3488C23.875 34.0988 24.8698 33.9425 25.8698 33.8384C25.4792 34.9269 24.3385 35.604 23.4687 36.2655C22.9375 36.6613 22.4062 37.0623 21.875 37.4634C21.4739 37.7707 21.0521 38.0936 20.9531 38.6196C20.9219 38.7759 21.1614 38.8071 21.1927 38.6509C21.3125 38.0259 22.0417 37.6457 22.5104 37.2915C23.0521 36.88 23.5989 36.4686 24.1406 36.0571C24.9427 35.453 25.8073 34.8123 26.1302 33.8123C27.5885 33.6821 29.0625 33.6561 30.5208 33.6405C31 33.63 31.4844 33.6248 31.9635 33.63C30.2187 36.4009 27.6458 38.5519 24.5625 39.6821C24.4114 39.7394 24.5052 39.9634 24.651 39.9113C27.8281 38.7446 30.4792 36.5103 32.25 33.6353C33.2292 33.6509 34.2135 33.7238 35.1771 33.9478C35.3333 33.979 35.3646 33.7394 35.2135 33.703C34.8542 33.6196 34.4948 33.5623 34.1406 33.5155L34.125 33.4998C33.0156 32.3592 31.776 31.3696 30.4114 30.5519C29.0521 29.7394 27.4375 28.8592 25.8125 28.9061C25.6562 28.9113 25.6875 29.1561 25.8437 29.1509C26.7135 29.1248 27.5312 29.4061 28.3177 29.7498C29.0156 30.0571 29.6979 30.4061 30.3542 30.8019C31.5937 31.5467 32.7344 32.4478 33.7552 33.4738C33.2552 33.4217 32.75 33.4009 32.25 33.3905C32.2135 33.3592 32.1614 33.354 32.1198 33.3905C31.8542 33.3853 31.5885 33.3853 31.3177 33.3853C30.7656 33.3905 30.2135 33.3957 29.6667 33.4061C28.7344 32.604 27.7344 31.9425 26.6094 31.4321C25.3698 30.8644 24.1042 30.328 22.8542 29.7707C22.7135 29.7134 22.6146 29.9373 22.7604 29.9998C23.9687 30.5311 25.1875 31.0571 26.3906 31.5988C27.4531 32.078 28.4062 32.6769 29.2969 33.4113C28.6458 33.4269 28 33.453 27.3489 33.4842C26.9427 33.505 26.5364 33.5363 26.1302 33.5728C26.0833 33.5415 26.0104 33.5467 25.9635 33.5884C25.1875 33.6665 24.4167 33.7707 23.6562 33.9269H23.6458C22.8906 33.6717 22.3437 33.0832 21.6823 32.6665C20.9739 32.2186 20.2031 32.1248 19.3802 32.0936C19.2239 32.0884 19.1927 32.3332 19.3489 32.3332C19.7604 32.3488 20.1771 32.3644 20.5833 32.4582C20.9896 32.5571 21.3646 32.7394 21.7083 32.9738C22.2187 33.3228 22.6771 33.755 23.2344 34.0207C22.0625 34.2967 20.9323 34.7342 19.75 34.9894C18.3021 35.3123 16.8073 35.3696 15.3281 35.4269C15.1719 35.4373 15.1979 35.6769 15.3594 35.6665Z" fill="#E0FBF0"/>
<path d="M29.7969 27.4952C31.5209 28.2087 33.3959 28.6045 35.3177 28.6618C36.7969 28.6983 38.1459 28.792 39.0105 27.1775C40.7396 23.9431 40.7084 19.9952 39.5417 16.9639C39.323 16.391 39.0469 15.8597 38.75 15.3441C38.1615 14.042 37.3594 12.865 36.3334 11.9014C34.4375 10.115 31.9948 9.10975 29.448 8.516C28.1875 8.22433 26.9011 8.03163 25.6094 7.87537C24.0313 7.68787 22.2084 7.72954 21.1615 6.41704C20.9323 6.12537 20.5 6.37537 20.4271 6.73475C19.9532 9.05246 19.4792 11.3962 19.5573 13.6983C19.6355 15.917 20.3282 17.9118 21.375 19.6931C23.375 23.0889 26.2084 26.0108 29.7969 27.4952Z" fill="#A2DDD0"/>
<path d="M29.0468 26.7607C30.1822 26.0889 31.4739 26.0472 32.6926 26.5055C33.3853 26.7659 34.026 26.9847 34.7708 26.9951C35.4895 27.0055 36.1978 26.8805 36.8958 26.7503C36.2916 25.4951 35.651 24.2555 34.8906 23.0784C34.8697 23.0524 34.8489 23.0211 34.8281 22.9899C31.3958 22.3649 28.1145 24.3232 24.6718 23.9014C24.4218 23.8701 24.4478 23.4795 24.6978 23.5107C28.0312 23.917 31.2031 22.0941 34.526 22.542C33.5676 21.193 32.427 20.0003 31.1926 18.8857C30.7812 18.5107 30.3645 18.1409 29.9478 17.7711C29.0103 17.7451 28.1249 18.0107 27.2083 18.1618C26.4114 18.292 25.6301 18.2868 24.8385 18.1305C23.2551 17.818 21.7968 17.0576 20.2083 16.7555C19.9635 16.7086 19.9895 16.3128 20.2343 16.3597C21.7916 16.6566 23.2239 17.3805 24.7708 17.7139C25.6822 17.9118 26.5572 17.8909 27.4687 17.7139C28.151 17.5836 28.8228 17.4274 29.5103 17.3857C28.1093 16.1514 26.7187 14.917 25.4218 13.5784C23.2968 13.1982 21.0364 12.667 19.8228 10.7034C19.6926 10.4899 20.0468 10.3128 20.177 10.5211C21.2083 12.2034 23.1301 12.7451 24.9583 13.0941C24.4791 12.5784 24.0103 12.0472 23.5624 11.4899C22.3437 9.97427 21.302 8.32323 20.5416 6.53156C20.4426 6.29719 20.7916 6.12011 20.8906 6.35448C21.9947 8.94302 23.6874 11.1826 25.6093 13.2139C25.7031 13.2347 25.7551 13.3076 25.7708 13.3857C25.9739 13.5993 26.1822 13.8076 26.3906 14.0107C26.5051 13.4222 26.5468 12.8336 26.5364 12.2399C26.4999 10.9014 26.2031 9.56802 25.9114 8.27636C25.8541 8.02636 26.2395 7.94823 26.2968 8.19823C26.7551 10.2086 27.1926 12.292 26.7187 14.3389C26.8853 14.5003 27.052 14.6618 27.2187 14.818C28.1614 15.7086 29.151 16.5576 30.1353 17.4118L30.151 17.4274C30.677 17.8857 31.2031 18.3441 31.7083 18.818C32.3801 17.4222 32.1614 15.8284 31.8958 14.3493C31.6041 12.7295 31.4166 11.1774 31.651 9.54198C31.6874 9.29198 32.0781 9.31802 32.0468 9.56802C31.9114 10.4795 31.8801 11.4014 31.9687 12.318C32.0624 13.2139 32.2656 14.0889 32.401 14.9743C32.6197 16.3753 32.6562 17.8128 32.0051 19.1045C33.0728 20.1201 34.0728 21.193 34.9114 22.4118C35.4426 23.1774 35.9062 23.9795 36.3489 24.7972C37.5468 23.3909 37.3645 21.3909 37.1926 19.667C37.0103 17.8493 37.0468 16.1253 37.7083 14.4014C37.7968 14.1618 38.1718 14.2868 38.0781 14.5264C37.7187 15.4639 37.5051 16.443 37.4635 17.4482C37.4218 18.5576 37.6093 19.6514 37.6874 20.7451C37.7916 22.3076 37.6301 23.9639 36.5416 25.1618C37.0208 26.0732 37.4635 27.0107 37.901 27.943C38.0103 28.1722 37.6562 28.3493 37.5468 28.1201C37.3906 27.7868 37.2343 27.4534 37.0728 27.1201C35.7968 27.3545 34.4843 27.5576 33.2239 27.1253C32.5468 26.8961 31.927 26.5993 31.1978 26.5784C30.4999 26.5628 29.8228 26.7607 29.2239 27.1201C29.0051 27.2451 28.8281 26.8961 29.0468 26.7607Z" fill="#E0FBF0"/>
<path d="M124.818 16.7553C125.297 16.7397 125.635 16.8543 125.906 17.0782L143.979 31.8855C144.583 32.3803 144.693 33.2657 144.214 33.8855L130.052 52.3751C129.813 52.6824 129.458 52.8855 129.068 52.9272L37.3698 63.3959C36.9011 63.4116 36.5677 63.3022 36.3021 63.0939C36 62.8543 35.8073 62.5053 35.7605 62.1251L31.849 28.823C31.7552 28.0314 32.323 27.3126 33.1198 27.2241L124.818 16.7553Z" fill="#4693B9"/>
<path d="M39.5468 60.9007C38.5781 60.9007 37.7656 60.1768 37.651 59.2132L34.3646 31.2341C34.3073 30.7288 34.4479 30.2341 34.7656 29.833C35.0781 29.432 35.5312 29.182 36.0312 29.1247L123.042 19.1924C123.146 19.182 123.255 19.1768 123.37 19.1768C124.286 19.1768 125.432 19.557 126.078 20.0882L140.536 31.932C141.344 32.5934 141.479 33.807 140.849 34.6299L129.536 49.3955C128.953 50.1611 127.74 50.8486 126.786 50.958L39.7604 60.8903C39.6927 60.8955 39.6198 60.9007 39.5468 60.9007ZM123.375 19.807C123.281 19.807 123.198 19.8122 123.115 19.8226L36.1041 29.7549C35.7708 29.7966 35.4687 29.9632 35.2604 30.2288C35.0468 30.4945 34.9531 30.8226 34.9948 31.1611L38.2812 59.1403C38.3593 59.7809 38.901 60.2653 39.5468 60.2653C39.5937 60.2653 39.6406 60.2653 39.6927 60.2601L126.714 50.3278C127.495 50.2393 128.557 49.6351 129.036 49.0101L140.344 34.2445C140.776 33.6872 140.677 32.8695 140.135 32.4216L125.677 20.5778C125.141 20.1403 124.151 19.807 123.375 19.807Z" fill="#7AB8DB"/>
<path d="M52.8177 47.8434C52.4427 48.4215 51.8646 48.9007 51.0938 49.2861C50.3229 49.6715 49.4532 49.9163 48.474 50.0309C47.4479 50.1507 46.5209 50.0309 45.6927 49.6715C44.8646 49.3121 44.1927 48.734 43.6771 47.9267C43.1563 47.1194 42.8229 46.1455 42.6771 44.9892L42.5834 44.1819C42.4479 42.9996 42.5261 41.9475 42.8282 41.0361C43.125 40.1194 43.625 39.3902 44.3229 38.8434C45.0209 38.2965 45.8802 37.9632 46.8854 37.8486C48.2969 37.6819 49.4323 37.8902 50.3073 38.4684C51.1771 39.0517 51.7604 39.9736 52.0521 41.2392L49.6771 41.5152C49.4896 40.8486 49.1875 40.3798 48.7813 40.109C48.3698 39.833 47.8438 39.7392 47.1927 39.8121C46.3594 39.9111 45.7604 40.2965 45.4011 40.9736C45.0365 41.6455 44.9271 42.6038 45.0625 43.8382L45.1511 44.5986C45.2969 45.8434 45.6407 46.7548 46.1875 47.3382C46.7344 47.9215 47.4636 48.1559 48.375 48.0517C49.2917 47.9423 49.9271 47.6715 50.2709 47.234L50.0365 45.1871L47.8073 45.4475L47.599 43.6402L52.2709 43.0986L52.8177 47.8434Z" fill="#ADDDFD"/>
<path d="M62.5781 36.1875L63.4844 44.0156C63.6302 45.3125 63.3437 46.3906 62.6198 47.2396C61.8958 48.0885 60.8333 48.599 59.4219 48.7604C58.0365 48.9219 56.8958 48.6823 55.9948 48.0417C55.099 47.401 54.5625 46.4427 54.401 45.1615L53.4844 37.2448L55.9271 36.9635L56.8333 44.8021C56.9271 45.5833 57.1771 46.125 57.5885 46.4375C58.0052 46.7552 58.5365 46.8698 59.1979 46.7917C60.5729 46.6354 61.1823 45.8281 61.0365 44.3802L60.125 36.474L62.5781 36.1875Z" fill="#ADDDFD"/>
<path d="M68.5573 47.5365L66.1094 47.8177L64.7344 35.9375L67.1771 35.6562L68.5573 47.5365Z" fill="#ADDDFD"/>
<path d="M72.1196 37.0885L73.0363 45.0208L74.2186 44.8854C75.1769 44.776 75.8696 44.3749 76.3019 43.6927C76.7342 43.0052 76.8905 42.0833 76.7655 40.9166L76.6925 40.2864C76.5519 39.0833 76.1978 38.1927 75.6248 37.6302C75.0519 37.0624 74.2863 36.8385 73.3228 36.9479L72.1196 37.0885ZM70.8228 47.2708L69.4478 35.3906L73.0936 34.9687C74.1405 34.8489 75.0988 34.9739 75.979 35.3489C76.854 35.7239 77.5728 36.3177 78.1353 37.1302C78.6978 37.9479 79.0415 38.9062 79.1717 40.0104L79.2342 40.5572C79.3644 41.6614 79.2498 42.6666 78.8957 43.5833C78.5415 44.4947 77.979 45.2343 77.2082 45.802C76.4373 46.3697 75.5311 46.7187 74.4946 46.8437L70.8228 47.2708Z" fill="#ADDDFD"/>
<path d="M88.2082 40.0361L83.5155 40.5778L83.8853 43.7601L89.3905 43.1195L89.6196 45.0882L81.6665 46.0101L80.2915 34.1299L88.229 33.208L88.4582 35.1924L82.9634 35.8278L83.2915 38.6611L87.9842 38.1143L88.2082 40.0361Z" fill="#ADDDFD"/>
<path d="M93.271 42.6722L98.4585 42.068L98.6877 44.0368L91.0522 44.9222L89.6772 33.042L92.12 32.7607L93.271 42.6722Z" fill="#ADDDFD"/>
<path d="M102.687 43.5726L100.245 43.8538L98.8696 31.9736L101.312 31.6924L102.687 43.5726Z" fill="#ADDDFD"/>
<path d="M114.599 42.1878L112.156 42.4691L106.495 35.2087L107.396 43.0212L104.953 43.3076L103.578 31.4274L106.021 31.141L111.698 38.4222L110.792 30.5889L113.224 30.3076L114.599 42.1878Z" fill="#ADDDFD"/>
<path d="M123.281 35.9587L118.583 36.5055L118.953 39.6878L124.464 39.0472L124.688 41.016L116.734 41.9378L115.359 30.0576L123.297 29.1357L123.526 31.1201L118.036 31.7555L118.365 34.5889L123.057 34.042L123.281 35.9587Z" fill="#ADDDFD"/>
</svg>
