<svg width="13956" height="465" viewBox="0 0 13956 465" fill="none" xmlns="http://www.w3.org/2000/svg">
<path fill-rule="evenodd" clip-rule="evenodd" d="M275.354 56L71 260.354L275.354 464.708L450.708 289.354H6928.75C6940.76 324.626 6974.17 350 7013.5 350C7052.83 350 7086.24 324.626 7098.25 289.354H13576L13751.4 464.708L13955.7 260.354L13751.4 56L13576 231.354H7098.15C7086.06 196.234 7052.73 171 7013.5 171C6974.27 171 6940.94 196.234 6928.85 231.354H450.708L275.354 56Z" fill="#A4A68B"/>
<path fill-rule="evenodd" clip-rule="evenodd" d="M204.354 0L0 204.354L204.354 408.708L379.708 233.354H6857.75C6869.76 268.626 6903.17 294 6942.5 294C6981.83 294 7015.24 268.626 7027.25 233.354H13505L13680.4 408.708L13884.7 204.354L13680.4 0L13505 175.354H7027.15C7015.06 140.234 6981.73 115 6942.5 115C6903.27 115 6869.94 140.234 6857.85 175.354H379.708L204.354 0Z" fill="#545454"/>
</svg>
