<svg width="115" height="89" viewBox="0 0 115 89" fill="none" xmlns="http://www.w3.org/2000/svg">
<mask id="mask0_85_668" style="mask-type:luminance" maskUnits="userSpaceOnUse" x="40" y="0" width="35" height="34">
<path d="M40 0.3125H74.6667V33.3333H40V0.3125Z" fill="white"/>
</mask>
<g mask="url(#mask0_85_668)">
<path d="M73.724 15.8125C73.724 7.26563 66.7708 0.3125 58.2292 0.3125C50.8385 0.3125 44.9635 3.99479 42.4635 9.64583H50.1563C50.7031 9.64583 51.1458 10.0885 51.1458 10.6302C51.1458 11.1771 50.7031 11.6198 50.1563 11.6198H41.7552C41.3646 12.9948 41.1562 14.4531 41.1562 15.9896V16.9427H49.7604C50.3021 16.9427 50.7448 17.3854 50.7448 17.9323C50.7448 18.474 50.3021 18.9167 49.7604 18.9167H41.1562V23.401H49.7604C50.3021 23.401 50.7448 23.8438 50.7448 24.3854C50.7448 24.9323 50.3021 25.375 49.7604 25.375H41.1562V32.4427H73.724V15.8125Z" fill="#545454"/>
</g>
<path d="M73.724 34.4219H41.1562V36.8646H73.724V34.4219Z" fill="#545454"/>
<path d="M59.4948 58.3128C65.3177 58.3128 70.0573 53.5732 70.0573 47.7503V42.1253C70.0573 41.5785 70.5 41.1357 71.0469 41.1357C71.5938 41.1357 72.0365 41.5785 72.0365 42.1253V47.7503C72.0365 54.667 66.4115 60.292 59.4948 60.292C58.9479 60.292 58.5052 59.8493 58.5052 59.3024C58.5052 58.7555 58.9479 58.3128 59.4948 58.3128ZM55.3854 61.9795H59.4948C67.3438 61.9795 73.724 55.5993 73.724 47.7503V38.8389H41.1562V47.7503C41.1562 55.5993 47.5365 61.9795 55.3854 61.9795Z" fill="#545454"/>
<mask id="mask1_85_668" style="mask-type:luminance" maskUnits="userSpaceOnUse" x="0" y="20" width="115" height="69">
<path d="M0.443359 20.042H114.443V88.4691H0.443359V20.042Z" fill="white"/>
</mask>
<g mask="url(#mask1_85_668)">
<path d="M113.454 33.5521H108.141C107.667 33.5521 107.261 33.8802 107.167 34.3438L105.261 43.9375L101.527 21.1615C101.402 20.401 100.85 20.0521 100.36 20.0469C100.355 20.0469 100.35 20.0469 100.35 20.0469C99.86 20.0469 99.3132 20.3802 99.1777 21.125L95.5684 40.6719L93.0423 29.3802C92.9121 28.7656 92.4694 28.3542 91.9121 28.3385C91.4642 28.3229 90.9173 28.6146 90.7559 29.2344L88.1204 37.1302C88.1152 37.151 88.11 37.1667 88.1048 37.1875L79.5736 37.1458C79.5736 37.1458 79.5736 37.1458 79.5684 37.1458C79.5007 37.1458 79.4329 37.151 79.3704 37.1667C79.3392 37.1719 79.3132 37.1823 79.2819 37.1927C79.2507 37.2031 79.2142 37.2083 79.1882 37.224C79.1569 37.2344 79.1309 37.25 79.1048 37.2656C79.0788 37.2813 79.0475 37.2969 79.0163 37.3125C78.9902 37.3333 78.9694 37.3542 78.9486 37.375C78.9225 37.3906 78.8965 37.4115 78.8704 37.4323C78.8496 37.4583 78.8288 37.4844 78.8079 37.5104C78.7923 37.5313 78.7715 37.5521 78.7507 37.5781C78.735 37.6042 78.7194 37.6354 78.7038 37.6615C78.6882 37.6927 78.6725 37.7187 78.6621 37.7448C78.6465 37.776 78.6413 37.8073 78.6309 37.8385C78.6204 37.8698 78.61 37.901 78.6048 37.9323C78.5944 37.9635 78.5944 37.9948 78.5944 38.0313C78.5892 38.0625 78.584 38.0938 78.584 38.1302V48.0365C78.584 58.3021 70.2298 66.651 59.9642 66.651H54.9173C44.6517 66.651 36.3027 58.3021 36.3027 48.0365V38.1302C36.3027 38.0938 36.2923 38.0625 36.2923 38.0313C36.2871 37.9948 36.2871 37.9635 36.2819 37.9323C36.2715 37.901 36.2611 37.8698 36.2507 37.8385C36.2402 37.8073 36.235 37.776 36.2246 37.7448C36.209 37.7187 36.1934 37.6927 36.1777 37.6615C36.1621 37.6354 36.1517 37.6042 36.1309 37.5781C36.1152 37.5521 36.0944 37.5313 36.0736 37.5104C36.0527 37.4844 36.0319 37.4583 36.0111 37.4323C35.9902 37.4115 35.959 37.3906 35.9382 37.375C35.9121 37.3542 35.8913 37.3333 35.8652 37.3125C35.8392 37.2969 35.8079 37.2813 35.7767 37.2656C35.7507 37.25 35.7246 37.2344 35.6986 37.224C35.6673 37.2083 35.6309 37.2031 35.5996 37.1927C35.5736 37.1823 35.5423 37.1719 35.5111 37.1667C35.4486 37.151 35.3809 37.1458 35.3132 37.1458H35.3079L26.7819 37.1875C26.7715 37.1563 26.7559 37.1198 26.7454 37.0729L24.1465 29.2865C23.9642 28.6146 23.4121 28.3281 22.9694 28.3385C22.4121 28.3542 21.9694 28.7656 21.8444 29.3646L19.3132 40.6771L15.7038 21.1302C15.5684 20.375 15.0059 20.0729 14.5267 20.0469C14.0319 20.0521 13.485 20.3958 13.36 21.1615L9.62044 43.9375L7.71419 34.3438C7.62044 33.8802 7.21419 33.5521 6.74544 33.5521H1.42773C0.886068 33.5521 0.443359 33.9948 0.443359 34.5365C0.443359 35.0833 0.886068 35.526 1.42773 35.526H5.93294L8.36523 47.7813C8.55273 48.7031 9.18294 49.026 9.67773 49.026C9.68815 49.026 9.69336 49.026 9.69857 49.026C10.2038 49.0208 10.8496 48.6667 11.0059 47.7083L14.5788 25.9167L17.9382 44.1042C18.11 45.0365 18.7507 45.375 19.2402 45.3802C19.7298 45.3802 20.3704 45.0677 20.5632 44.1667L23.1569 32.5573L24.8548 37.6458C25.11 38.5833 25.735 39.1667 26.4902 39.1667L34.3236 39.125V48.0365C34.3236 58.7917 42.6152 67.6406 53.1361 68.5469V86.4896H41.4746C40.9277 86.4896 40.485 86.9323 40.485 87.4792C40.485 88.026 40.9277 88.4688 41.4746 88.4688H74.7142C75.2611 88.4688 75.7038 88.026 75.7038 87.4792C75.7038 86.9323 75.2611 86.4896 74.7142 86.4896H61.7454V68.5469C72.2715 67.6406 80.5579 58.7917 80.5579 48.0365V39.125L88.3965 39.1667C89.1517 39.1667 89.7767 38.5833 90.0111 37.6979L91.7298 32.5573L94.3184 44.151C94.5059 45.0625 95.1413 45.3802 95.6257 45.3802C95.6309 45.3802 95.6361 45.3802 95.6413 45.3802C96.1309 45.375 96.7715 45.0365 96.9434 44.1042L100.303 25.9167L103.876 47.7083C104.037 48.6667 104.678 49.0208 105.183 49.026C105.188 49.026 105.199 49.026 105.204 49.026C105.699 49.026 106.334 48.7031 106.516 47.776L108.949 35.526H113.454C114.001 35.526 114.443 35.0833 114.443 34.5365C114.443 33.9948 114.001 33.5521 113.454 33.5521Z" fill="#545454"/>
</g>
</svg>
