<svg width="227" height="215" viewBox="0 0 227 215" fill="none" xmlns="http://www.w3.org/2000/svg">
<path d="M140.661 8.84375C156.469 15.4375 170.521 25.4687 184.365 35.4323C191.458 40.5521 198.625 45.7448 204.245 52.4115C208.745 57.6719 212.188 63.7083 215.349 69.8125C219.635 77.9479 223.568 86.3698 225.323 95.349C228.698 112.677 223.568 130.99 214.01 145.865C204.458 160.734 190.896 172.661 176.495 182.974C166.375 190.271 155.63 196.937 143.896 201.219C107.432 214.479 63.8021 201.568 38.0156 172.521C12.2292 143.479 4.49999 100.682 15.1094 63.3542C17.5677 54.5885 21.0833 46.099 25.8594 38.3073C50.3125 -1.05209 100.125 -8.06771 140.661 8.84375Z" fill="#DFD3C3"/>
<mask id="mask0_16_243" style="mask-type:luminance" maskUnits="userSpaceOnUse" x="0" y="8" width="218" height="207">
<path d="M0.666656 8.66667H218V214.969H0.666656V8.66667Z" fill="white"/>
</mask>
<g mask="url(#mask0_16_243)">
<path d="M88.6719 10.2448C102.724 10.2448 117.125 13.1927 130.474 18.7344C146.495 25.401 161.036 35.9219 173.896 45.1823C180.781 50.1667 187.948 55.2865 193.568 61.8802C197.995 67.0729 201.437 73.1771 204.526 79C208.604 86.7865 212.609 95.2083 214.365 104.188C217.453 119.833 213.38 137.865 203.266 153.651C195.115 166.349 183.307 177.995 166.167 190.344C153.87 199.182 143.896 204.724 133.849 208.375C124.505 211.813 114.458 213.495 104.057 213.495C75.9531 213.495 48.1302 201.005 29.5156 180.099C17.2187 166.208 8.64583 148.667 4.71354 129.307C0.848952 110.365 1.55208 90.6458 6.82291 72.2656C9.48958 62.9323 13.0729 54.6563 17.4323 47.5677C25.1562 35.1511 35.5573 25.6094 48.4844 19.1563C60.3594 13.3333 74.2708 10.2448 88.6719 10.2448ZM88.6719 8.84376C60.1458 8.84376 32.5365 20.6979 16.2344 46.9375C11.4583 54.6563 8.01562 63.2136 5.48437 71.9844C-5.12501 109.307 2.74478 152.104 28.5312 181.083C47.4323 202.339 75.8854 214.969 104.13 214.969C114.385 214.969 124.646 213.286 134.411 209.776C146.141 205.495 156.891 198.833 167.01 191.536C181.411 181.224 194.974 169.297 204.526 154.422C214.083 139.547 219.214 121.234 215.839 103.906C214.083 94.9271 210.146 86.5104 205.865 78.3698C202.63 72.2656 199.187 66.2344 194.76 60.9688C189.073 54.3073 181.974 49.1146 174.88 43.9896C160.969 34.0313 146.917 23.9948 131.177 17.401C117.547 11.7917 103.005 8.84376 88.6719 8.84376Z" fill="#936E4C"/>
</g>
</svg>
