<svg width="73" height="73" viewBox="0 0 73 73" fill="none" xmlns="http://www.w3.org/2000/svg">
<mask id="mask0_98_34" style="mask-type:luminance" maskUnits="userSpaceOnUse" x="0" y="0" width="73" height="73">
<path d="M0 0.015625H72.9792V72.9948H0V0.015625Z" fill="white"/>
</mask>
<g mask="url(#mask0_98_34)">
<path d="M57.0892 0.015625H15.7142C7.06315 0.015625 0.0214844 7.05729 0.0214844 15.7083V57.0833C0.0214844 65.7344 7.06315 72.776 15.7142 72.776H57.0892C65.7454 72.776 72.7819 65.7344 72.7819 57.0833V15.7083C72.7819 7.05729 65.7454 0.015625 57.0892 0.015625ZM67.9329 57.0833C67.9329 63.0625 63.0684 67.9271 57.0892 67.9271H15.7142C9.74024 67.9271 4.87565 63.0625 4.87565 57.0833V15.7083C4.87565 9.72917 9.74024 4.86458 15.7142 4.86458H57.0892C63.0684 4.86458 67.9329 9.72917 67.9329 15.7083V57.0833Z" fill="#545454"/>
</g>
<path d="M49.6139 33.9684H38.8275V23.182C38.8275 21.8434 37.7389 20.7549 36.4004 20.7549C35.0619 20.7549 33.9733 21.8434 33.9733 23.182V33.9684H23.1869C21.8483 33.9684 20.7598 35.057 20.7598 36.3955C20.7598 37.734 21.8483 38.8226 23.1869 38.8226H33.9733V49.6091C33.9733 50.9528 35.0619 52.0361 36.4004 52.0361C37.7389 52.0361 38.8275 50.9528 38.8275 49.6091V38.8226H49.6139C50.9577 38.8226 52.041 37.734 52.041 36.3955C52.041 35.057 50.9577 33.9684 49.6139 33.9684Z" fill="#545454"/>
</svg>
