<svg width="43" height="49" viewBox="0 0 43 49" fill="none" xmlns="http://www.w3.org/2000/svg">
<path d="M22.4533 22.9166C22.5991 22.802 22.7605 22.7239 22.9428 22.6718C23.1199 22.625 23.3022 22.6093 23.4845 22.6354C23.6668 22.6562 23.8387 22.7135 24.0001 22.8073C24.1616 22.8958 24.297 23.0156 24.4116 23.1614L41.5366 45.2083C41.646 45.3541 41.7293 45.5156 41.7762 45.6927C41.8283 45.8698 41.8387 46.0521 41.8178 46.2344C41.7918 46.4219 41.7345 46.5937 41.646 46.7552C41.5522 46.9166 41.4324 47.0521 41.2866 47.1666C41.1407 47.276 40.9793 47.3593 40.8022 47.4062C40.6251 47.4583 40.4428 47.4687 40.2605 47.4479C40.073 47.4219 39.9012 47.3646 39.7397 47.276C39.5835 47.1823 39.4428 47.0625 39.3282 46.9166L22.2085 24.875C22.0939 24.7291 22.0157 24.5677 21.9637 24.3854C21.9168 24.2083 21.9012 24.026 21.9272 23.8437C21.948 23.6614 22.0053 23.4895 22.0991 23.3281C22.1876 23.1666 22.3074 23.0312 22.4533 22.9166Z" stroke="black" stroke-width="0.930427"/>
<path d="M29.5364 14.8958C29.5364 15.8385 29.4478 16.7812 29.2603 17.7083C29.0781 18.6354 28.802 19.5365 28.4374 20.4115C28.078 21.2865 27.6353 22.1198 27.1093 22.9062C26.5833 23.6927 25.9843 24.4219 25.3124 25.0937C24.6458 25.7604 23.9166 26.3594 23.1301 26.8854C22.3385 27.4114 21.5103 27.8542 20.6353 28.2187C19.7603 28.5781 18.8593 28.8542 17.9322 29.0364C16.9999 29.2239 16.0624 29.3177 15.1145 29.3177C14.1718 29.3177 13.2291 29.2239 12.302 29.0364C11.3749 28.8542 10.4739 28.5781 9.59889 28.2187C8.72389 27.8542 7.89056 27.4114 7.1041 26.8854C6.31765 26.3594 5.58848 25.7604 4.9166 25.0937C4.24994 24.4219 3.65096 23.6927 3.12492 22.9062C2.59888 22.1198 2.15619 21.2865 1.7916 20.4115C1.43223 19.5365 1.15616 18.6354 0.973873 17.7083C0.786373 16.7812 0.692627 15.8385 0.692627 14.8958C0.692627 13.9479 0.786373 13.0104 0.973873 12.0781C1.15616 11.151 1.43223 10.25 1.7916 9.37499C2.15619 8.49999 2.59888 7.66666 3.12492 6.8802C3.65096 6.09374 4.24994 5.36458 4.9166 4.69791C5.58848 4.02604 6.31765 3.42708 7.1041 2.90104C7.89056 2.37499 8.72389 1.93229 9.59889 1.5677C10.4739 1.20833 11.3749 0.932287 12.302 0.749995C13.2291 0.562496 14.1718 0.473953 15.1145 0.473953C16.0624 0.473953 16.9999 0.562496 17.9322 0.749995C18.8593 0.932287 19.7603 1.20833 20.6353 1.5677C21.5103 1.93229 22.3385 2.37499 23.1301 2.90104C23.9166 3.42708 24.6458 4.02604 25.3124 4.69791C25.9843 5.36458 26.5833 6.09374 27.1093 6.8802C27.6353 7.66666 28.078 8.49999 28.4374 9.37499C28.802 10.25 29.0781 11.151 29.2603 12.0781C29.4478 13.0104 29.5364 13.9479 29.5364 14.8958Z" stroke="black" stroke-width="0.930427"/>
</svg>
