<svg width="40" height="40" viewBox="0 0 40 40" fill="none" xmlns="http://www.w3.org/2000/svg">
<mask id="mask0_26_2652" style="mask-type:luminance" maskUnits="userSpaceOnUse" x="0" y="0" width="40" height="40">
<path d="M0 0H39.5313V39.5365H0V0Z" fill="white"/>
</mask>
<g mask="url(#mask0_26_2652)">
<path d="M36.5469 38.2135C36.099 38.2135 35.6771 38.0417 35.3646 37.7292L25.3073 27.6719L27.6719 25.3125L37.724 35.3646C38.0417 35.6823 38.2135 36.099 38.2135 36.5469C38.2135 37.4688 37.4635 38.2135 36.5469 38.2135ZM1.31771 15.4844C1.31771 7.67188 7.67188 1.31771 15.4844 1.31771C23.2917 1.31771 29.651 7.67188 29.651 15.4844C29.651 23.2969 23.2917 29.651 15.4844 29.651C7.67188 29.651 1.31771 23.2969 1.31771 15.4844ZM38.6563 34.4323L28.3385 24.1094C29.9948 21.6406 30.9688 18.6771 30.9688 15.4844C30.9688 6.94792 24.0208 0 15.4844 0C6.94271 0 0 6.94792 0 15.4844C0 24.0208 6.94271 30.9688 15.4844 30.9688C18.6719 30.9688 21.6406 30 24.1094 28.3385L34.4323 38.6563C34.9948 39.224 35.7448 39.5365 36.5469 39.5365C38.1927 39.5365 39.5313 38.1927 39.5313 36.5469C39.5313 35.75 39.2188 34.9948 38.6563 34.4323Z" fill="black"/>
</g>
<path d="M15.8281 2.64062L15.7916 3.95833C19.2083 4.04688 22.3854 5.63542 24.5156 8.31771L25.5468 7.49479C23.177 4.51042 19.6354 2.73958 15.8281 2.64062Z" fill="black"/>
<path d="M27.2396 10.2969C27.0261 9.8125 26.7813 9.33854 26.5105 8.88541L25.3802 9.5625C25.625 9.96875 25.8438 10.3958 26.0365 10.8281L27.2396 10.2969Z" fill="black"/>
</svg>
