<svg width="254" height="81" viewBox="0 0 254 81" fill="none" xmlns="http://www.w3.org/2000/svg">
<mask id="mask0_85_669" style="mask-type:luminance" maskUnits="userSpaceOnUse" x="0" y="0" width="255" height="81">
<path d="M0 0.333008H254.005V80.333H0V0.333008Z" fill="white"/>
</mask>
<g mask="url(#mask0_85_669)">
<path fill-rule="evenodd" clip-rule="evenodd" d="M244.943 0.640625H8.64583C3.90104 0.640625 0 4.54167 0 9.28646V71.4271C0 76.1719 3.90104 80.0729 8.64583 80.0729H244.943C249.688 80.0729 253.589 76.1719 253.589 71.4271V9.28646C253.589 4.54167 249.688 0.640625 244.943 0.640625Z" fill="#545454"/>
</g>
<path d="M107.292 44.6823L113.751 44.2083C113.896 45.4219 114.188 46.3542 114.62 46.974C115.318 48.0052 116.313 48.5208 117.631 48.5208C118.605 48.5208 119.344 48.25 119.881 47.7344C120.417 47.1979 120.667 46.599 120.667 45.8958C120.667 45.2396 120.417 44.6406 119.923 44.125C119.428 43.6094 118.271 43.1146 116.454 42.6354C113.464 41.875 111.36 40.8229 110.079 39.5417C108.798 38.2604 108.162 36.6094 108.162 34.6094C108.162 33.3073 108.49 32.0729 109.152 30.8958C109.813 29.7188 110.782 28.8125 112.1 28.1302C113.423 27.4688 115.219 27.1406 117.511 27.1406C120.313 27.1406 122.459 27.7396 123.949 28.974C125.433 30.1927 126.298 32.1354 126.589 34.776L120.193 35.2083C120.027 34.0521 119.657 33.2083 119.12 32.6719C118.563 32.1354 117.818 31.8854 116.85 31.8854C116.063 31.8854 115.464 32.0938 115.053 32.4635C114.641 32.8333 114.454 33.3281 114.454 33.8854C114.454 34.3021 114.62 34.651 114.949 34.9792C115.261 35.3125 116.021 35.6198 117.219 35.9323C120.193 36.6719 122.318 37.4375 123.594 38.2031C124.876 38.9635 125.824 39.8906 126.402 41.026C126.98 42.1406 127.271 43.4219 127.271 44.8021C127.271 46.4323 126.876 47.9635 126.094 49.3438C125.308 50.7292 124.214 51.7813 122.813 52.5C121.407 53.224 119.657 53.5729 117.511 53.5729C113.771 53.5729 111.173 52.7292 109.73 51.0573C108.303 49.3854 107.48 47.2604 107.292 44.6823ZM62.9225 40.349L46.7454 56.6927V48.5417C36.5059 46.4167 28.4382 48.7656 22.2871 56.5469C23.36 40.5521 34.2767 32.8125 46.7454 32.2969V24L62.9225 40.349ZM130.282 27.5729H137.074V36.5104H144.521V27.5729H151.355V53.1406H144.521V42.7813H137.074V53.1406H130.282V27.5729ZM169.433 48.9115H161.714L160.6 53.1198H153.646L161.938 27.5521H169.391L177.646 53.1198H170.527L169.433 48.9115ZM168.006 43.3802L165.594 34.1979L163.178 43.3802H168.006ZM179.917 53.1406V27.5729H191.266C193.37 27.5729 194.98 27.7813 196.074 28.2135C197.188 28.625 198.094 29.4115 198.756 30.5417C199.438 31.6771 199.787 33.0625 199.787 34.6927C199.787 36.1146 199.521 37.3333 199.006 38.3646C198.49 39.3958 197.766 40.2448 196.86 40.8854C196.282 41.2969 195.475 41.625 194.464 41.8958C195.271 42.2031 195.865 42.5156 196.24 42.8438C196.485 43.0521 196.86 43.5052 197.334 44.1875C197.808 44.8646 198.115 45.401 198.282 45.776L201.584 53.1615H193.886L190.256 45.3594C189.782 44.349 189.386 43.6927 189.016 43.401C188.521 43.0104 187.964 42.8021 187.344 42.8021H186.745V53.1615H179.917V53.1406ZM186.745 37.9531H189.615C189.923 37.9531 190.521 37.8281 191.433 37.6042C191.886 37.5 192.256 37.2292 192.527 36.7969C192.813 36.3646 192.959 35.8698 192.959 35.3125C192.959 34.4844 192.73 33.8438 192.277 33.4115C191.824 32.9792 190.975 32.75 189.74 32.75H186.745V37.9531ZM203.771 27.5729H221.995V33.0417H210.605V37.1094H221.146V42.3281H210.605V47.3646H222.324V53.1406H203.771V27.5729Z" fill="white"/>
<path d="M78.9785 0.640625H83.9108V80.0521H78.9785V0.640625Z" fill="#A4A68B"/>
</svg>
