<svg width="201" height="158" viewBox="0 0 201 158" fill="none" xmlns="http://www.w3.org/2000/svg">
<rect x="23.6833" y="97.5486" width="87.4735" height="69" rx="4.5" transform="rotate(-30.0972 23.6833 97.5486)" fill="#F8D9FF" stroke="black"/>
<rect x="17.2198" y="50.5721" width="113.875" height="69" rx="4.5" transform="rotate(-2.64194 17.2198 50.5721)" fill="#F0BEFC" stroke="black"/>
<rect x="0.620664" y="53.3319" width="187" height="69" rx="4.5" transform="rotate(-16.3723 0.620664 53.3319)" fill="#F8D9FF" stroke="black"/>
<path d="M25.1587 68.5501L31.4864 77.6976L31.6931 77.9963L32.0411 77.8921L42.6962 74.7008L35.9518 83.5455L35.7315 83.8344L35.9382 84.1332L42.2659 93.2806L31.7699 89.5995L31.4271 89.4793L31.2069 89.7681L24.4625 98.6129L24.72 87.4931L24.7284 87.1299L24.3856 87.0097L13.8897 83.3286L24.5448 80.1373L24.8928 80.0331L24.9012 79.6699L25.1587 68.5501Z" fill="#FBB040" stroke="black"/>
<path d="M60.1587 58.5501L66.4864 67.6976L66.6931 67.9963L67.0411 67.8921L77.6962 64.7008L70.9518 73.5455L70.7315 73.8344L70.9382 74.1332L77.2659 83.2806L66.7699 79.5995L66.4271 79.4793L66.2069 79.7681L59.4625 88.6129L59.72 77.4931L59.7284 77.1299L59.3856 77.0097L48.8897 73.3286L59.5448 70.1373L59.8928 70.0331L59.9012 69.6699L60.1587 58.5501Z" fill="#FBB040" stroke="black"/>
<path d="M95.1587 48.5501L101.486 57.6976L101.693 57.9963L102.041 57.8921L112.696 54.7008L105.952 63.5455L105.732 63.8344L105.938 64.1332L112.266 73.2806L101.77 69.5995L101.427 69.4793L101.207 69.7681L94.4625 78.6129L94.72 67.4931L94.7284 67.1299L94.3856 67.0097L83.8897 63.3286L94.5448 60.1373L94.8928 60.0331L94.9012 59.6699L95.1587 48.5501Z" fill="#FBB040" stroke="black"/>
<path d="M130.159 37.5501L136.486 46.6976L136.693 46.9963L137.041 46.8921L147.696 43.7008L140.952 52.5455L140.732 52.8344L140.938 53.1332L147.266 62.2806L136.77 58.5995L136.427 58.4793L136.207 58.7681L129.462 67.6129L129.72 56.4931L129.728 56.1299L129.386 56.0097L118.89 52.3286L129.545 49.1373L129.893 49.0331L129.901 48.6699L130.159 37.5501Z" fill="#FBB040" stroke="black"/>
<path d="M166.159 26.5501L172.486 35.6976L172.693 35.9963L173.041 35.8921L183.696 32.7008L176.952 41.5455L176.732 41.8344L176.938 42.1332L183.266 51.2806L172.77 47.5995L172.427 47.4793L172.207 47.7681L165.462 56.6129L165.72 45.4931L165.728 45.1299L165.386 45.0097L154.89 41.3286L165.545 38.1373L165.893 38.0331L165.901 37.6699L166.159 26.5501Z" fill="#FBB040" stroke="black"/>
</svg>
