<svg width="442" height="470" viewBox="0 0 442 470" fill="none" xmlns="http://www.w3.org/2000/svg">
<path d="M0 27.9934H441.839V469.41H0V27.9934Z" fill="#FFFAE7"/>
<path d="M395.281 72.4257L370.177 11.8684C369.927 11.2694 369.651 10.6809 369.344 10.1132C369.036 9.54024 368.703 8.98816 368.339 8.44649C367.974 7.91003 367.583 7.39441 367.167 6.89441C366.755 6.39961 366.312 5.92566 365.849 5.47253C365.385 5.01941 364.901 4.58711 364.391 4.18607C363.885 3.77982 363.359 3.40482 362.812 3.05066C362.266 2.7017 361.703 2.37878 361.125 2.08711C360.547 1.79024 359.953 1.52982 359.349 1.29545C358.745 1.06107 358.13 0.857948 357.5 0.686072C356.875 0.514197 356.245 0.373573 355.604 0.264197C354.964 0.160031 354.318 0.0819066 353.672 0.0402399C353.026 -0.00142676 352.375 -0.011844 351.729 0.0141973C351.078 0.0350306 350.432 0.0923226 349.792 0.180864C349.146 0.269405 348.51 0.389197 347.88 0.54024C347.25 0.696489 346.63 0.878781 346.016 1.09753C345.406 1.31107 344.807 1.55586 344.219 1.83711C334.906 6.24857 331 17.4829 334.943 27.0038L335.333 27.9309H338.755L337.844 25.7121C337.448 24.7902 337.141 23.8423 336.922 22.8684C336.698 21.8892 336.573 20.9048 336.531 19.9048C336.495 18.8996 336.547 17.9048 336.693 16.9152C336.839 15.9257 337.073 14.9569 337.401 14.009C337.724 13.0663 338.13 12.1548 338.625 11.285C339.115 10.41 339.682 9.59232 340.323 8.82149C340.969 8.05586 341.677 7.35274 342.448 6.71732C343.219 6.08191 344.047 5.51941 344.922 5.03503C345.906 4.50899 346.937 4.09232 348.01 3.78503C349.083 3.47774 350.177 3.28503 351.286 3.2017C352.401 3.12357 353.51 3.15482 354.615 3.30586C355.724 3.45691 356.802 3.72253 357.854 4.09753C358.901 4.47253 359.906 4.95691 360.854 5.54024C361.807 6.12357 362.687 6.80066 363.495 7.56628C364.302 8.33712 365.026 9.18086 365.656 10.0975C366.292 11.0194 366.823 11.9934 367.25 13.0194L392.354 73.6548C392.76 74.5715 393.078 75.5246 393.307 76.5038C393.536 77.4829 393.672 78.4777 393.719 79.4829C393.766 80.4882 393.714 81.4882 393.578 82.4829C393.437 83.4777 393.203 84.4569 392.885 85.41C392.562 86.3632 392.156 87.2798 391.667 88.1548C391.177 89.035 390.609 89.8632 389.964 90.634C389.318 91.41 388.609 92.1184 387.833 92.759C387.057 93.3996 386.229 93.9673 385.354 94.4569C384.365 94.9777 383.339 95.3944 382.266 95.7017C381.193 96.0142 380.099 96.2069 378.984 96.285C377.87 96.3684 376.76 96.3319 375.656 96.1809C374.552 96.0298 373.469 95.7642 372.422 95.3892C371.37 95.0142 370.37 94.535 369.417 93.9517C368.469 93.3632 367.589 92.6913 366.776 91.9205C365.969 91.1548 365.25 90.3111 364.615 89.3892C363.984 88.4725 363.453 87.4986 363.021 86.4673L351.161 57.8788C351.042 57.5819 350.849 57.3423 350.583 57.1652C350.318 56.9882 350.021 56.8996 349.703 56.8996C349.437 56.8996 349.187 56.9569 348.958 57.0819C348.724 57.2069 348.531 57.3788 348.385 57.5975C348.234 57.8163 348.151 58.0559 348.125 58.3215C348.099 58.5819 348.135 58.8371 348.234 59.0819L360.099 87.6861C360.344 88.285 360.62 88.8684 360.927 89.4413C361.234 90.0142 361.573 90.5663 361.937 91.1027C362.297 91.6392 362.687 92.16 363.104 92.6548C363.521 93.1548 363.958 93.6288 364.422 94.0819C364.885 94.535 365.375 94.9621 365.88 95.3684C366.391 95.7694 366.917 96.1496 367.464 96.4986C368.005 96.8527 368.568 97.1705 369.146 97.4673C369.724 97.759 370.318 98.0246 370.922 98.259C371.531 98.4934 372.146 98.6965 372.771 98.8684C373.396 99.0402 374.031 99.1757 374.667 99.285C375.307 99.3944 375.953 99.4673 376.599 99.509C377.25 99.5507 377.896 99.5611 378.547 99.5402C379.193 99.5142 379.839 99.4621 380.484 99.3736C381.125 99.285 381.76 99.16 382.391 99.009C383.021 98.858 383.646 98.6705 384.255 98.4569C384.87 98.2382 385.469 97.9934 386.052 97.7173C395.318 93.2017 399.224 81.9152 395.281 72.4257Z" fill="#B3B3B3"/>
</svg>
